<?xml version="1.0" encoding="UTF-8" standalone="no"?>
<!-- Created with Inkscape (http://www.inkscape.org/) -->

<svg
   width="420mm"
   height="297mm"
   viewBox="0 0 420 297"
   version="1.1"
   id="svg4959"
   xml:space="preserve"
   inkscape:version="1.2 (dc2aedaf03, 2022-05-15)"
   sodipodi:docname="Sofle_Extended_Plates.svg"
   xmlns:inkscape="http://www.inkscape.org/namespaces/inkscape"
   xmlns:sodipodi="http://sodipodi.sourceforge.net/DTD/sodipodi-0.dtd"
   xmlns="http://www.w3.org/2000/svg"
   xmlns:svg="http://www.w3.org/2000/svg"
   xmlns:rdf="http://www.w3.org/1999/02/22-rdf-syntax-ns#"
   xmlns:cc="http://creativecommons.org/ns#"
   xmlns:dc="http://purl.org/dc/elements/1.1/"><title
     id="title7408">Sofle_Extended_Acrylic</title><sodipodi:namedview
     id="namedview4961"
     pagecolor="#ffffff"
     bordercolor="#000000"
     borderopacity="0.25"
     inkscape:showpageshadow="2"
     inkscape:pageopacity="0.0"
     inkscape:pagecheckerboard="0"
     inkscape:deskcolor="#d1d1d1"
     inkscape:document-units="mm"
     showgrid="false"
     inkscape:zoom="0.52724989"
     inkscape:cx="469.41689"
     inkscape:cy="699.8579"
     inkscape:window-width="1920"
     inkscape:window-height="1017"
     inkscape:window-x="1912"
     inkscape:window-y="1072"
     inkscape:window-maximized="1"
     inkscape:current-layer="layer1" /><defs
     id="defs4956" /><g
     inkscape:label="Layer 1"
     inkscape:groupmode="layer"
     id="layer1"><path
       d="m 185.38128,14.246006 0.014,0.035 v 62.707 32.542994 l -0.003,0.019 -0.011,0.017 -0.009,0.003 -0.007,0.007 -17.829,7.64087 -21.066,9.02813 -44.47,0.002 -30.946003,0.002 -1.822,0.82817 -15.622,7.10083 -8.345,8.345 -5.937,5.937 -0.035,0.015 -0.036,-0.015 -2.79301,-2.793 -17.843989,-17.844 -0.002,-0.004 -0.002,-10e-4 -0.011,-0.032 0.001,-0.002 -0.001,-0.002 0.794,-7.142 V 76.988005 10.313002 l 0.014,-0.03599 0.036,-0.014 h 17.014999 53.58 V 8.72501 l 0.014,-0.035 0.035,-0.01501 h 11.907003 5.507 V 7.087002 5.55 l 0.015,-0.035 0.035,-0.015 h 20.637 l 0.036,0.015 0.014,0.035 v 1.537002 h 0.6148 3.144 16.8292 l 0.035,0.015 0.015,0.036 V 11.451997 14.231 h 18.654 17.809 l 0.036,0.015 m -18.086,19.084999 -0.034,-0.258999 -0.1,-0.241001 -0.15901,-0.206997 -0.207,-0.159 -0.24099,-0.100003 -0.25901,-0.034 -0.25899,0.034 -0.24101,0.100003 -0.20699,0.159 -0.10001,0.130188 -0.059,0.07681 -0.1,0.241001 -0.034,0.258999 0.034,0.259003 0.1,0.240997 0.059,0.07681 0.0555,0.07219 0.0446,0.058 0.207,0.159 0.24101,0.1 0.25899,0.034 0.259,-0.034 0.241,-0.1 0.207,-0.159 0.0446,-0.058 0.11446,-0.149002 0.1,-0.240997 0.034,-0.259003 m -1.707,56.443002 -0.1,0.130188 -0.059,0.07681 -0.1,0.241001 -0.034,0.258999 0.034,0.259 0.1,0.241 0.059,0.07681 0.1,0.130189 0.17706,0.136001 0.0299,0.023 0.241,0.1 0.259,0.034 0.259,-0.034 0.241,-0.1 0.0299,-0.023 0.17705,-0.136001 0.15901,-0.207 0.1,-0.241 0.034,-0.259 -0.034,-0.258999 -0.1,-0.241001 -0.15901,-0.206999 -0.207,-0.159001 -0.241,-0.1 -0.259,-0.034 -0.25899,0.034 -0.24101,0.1 -0.207,0.159001 m -94.545003,-59.823999 -0.258,0.034 -0.242,0.100002 -0.207,0.159 -0.159,0.207001 -0.1,0.240998 -0.034,0.259002 0.034,0.258999 0.1,0.241001 0.159,0.206997 0.207,0.159001 0.242,0.100002 0.12142,0.016 0.13658,0.018 0.13712,-0.018 0.0999,-0.01311 0.022,-0.0029 0.241,-0.100002 0.207,-0.159001 0.159,-0.206997 0.1,-0.241001 0.034,-0.258999 -0.034,-0.259002 -0.1,-0.240998 -0.159,-0.207001 -0.207,-0.159 -0.241,-0.100002 -0.022,-0.0029 -0.237,-0.03111 m 0.707,58.856999 0.159,-0.207 0.1,-0.241 0.034,-0.259 -0.034,-0.259001 -0.1,-0.240999 -0.159,-0.207001 -0.207,-0.158999 -0.0145,-0.006 -0.22654,-0.094 -0.259,-0.034 -0.258,0.034 -0.22748,0.094 -0.0145,0.006 -0.207,0.158999 -0.159,0.207001 -0.1,0.240999 -0.034,0.259001 0.034,0.259 0.1,0.241 0.159,0.207 0.207,0.158999 0.242,0.1 0.258,0.034 0.237,-0.03111 0.022,-0.0029 0.241,-0.1 0.207,-0.158999 m -26.901,22.899992 -0.193,0.0253 -0.066,0.009 -0.241,0.099 -0.207,0.159 -0.159,0.208 -0.1,0.24 -0.034,0.26 0.034,0.258 0.1,0.242 0.159,0.206 0.207,0.159 0.241,0.1 0.066,0.009 0.193,0.0261 0.259,-0.035 0.241,-0.1 0.207,-0.159 0.159,-0.206 0.1,-0.242 0.034,-0.258 -0.034,-0.26 -0.1,-0.24 -0.159,-0.208 -0.207,-0.159 -0.241,-0.099 z"
       fill="none"
       stroke="#ff0000"
       stroke-width="0.001mm"
       id="path4979"
       style="stroke-width:1;stroke-dasharray:none" /><path
       d="m 401.06062,14.246006 0.014,0.035 v 62.707 32.542994 l -0.003,0.019 -0.011,0.017 -0.009,0.003 -0.007,0.007 -17.829,7.64087 -21.066,9.02813 -44.47,0.002 -30.946,0.002 -1.822,0.82817 -15.622,7.10083 -8.345,8.345 -5.937,5.937 -0.035,0.015 -0.036,-0.015 -2.79301,-2.793 -17.84399,-17.844 -0.002,-0.004 -0.002,-10e-4 -0.011,-0.032 0.001,-0.002 -0.001,-0.002 0.794,-7.142 V 76.988005 10.313002 l 0.014,-0.03599 0.036,-0.014 h 17.015 53.58 V 8.7250098 l 0.014,-0.035 0.035,-0.01501 h 11.907 5.507 V 7.087002 5.55 l 0.015,-0.035 0.035,-0.015 h 20.637 l 0.036,0.015 0.014,0.035 v 1.537002 h 0.6148 3.144 16.8292 l 0.035,0.015 0.015,0.036 V 11.451997 14.231 h 18.654 17.809 l 0.036,0.015 m -18.086,19.084999 -0.034,-0.258999 -0.1,-0.241001 -0.15901,-0.206997 -0.207,-0.159 -0.24099,-0.100003 -0.25901,-0.034 -0.25899,0.034 -0.24101,0.100003 -0.20699,0.159 -0.10001,0.130188 -0.059,0.07681 -0.1,0.241001 -0.034,0.258999 0.034,0.259003 0.1,0.240997 0.059,0.07681 0.0555,0.07219 0.0446,0.058 0.207,0.159 0.24101,0.1 0.25899,0.034 0.259,-0.034 0.241,-0.1 0.207,-0.159 0.0446,-0.058 0.11446,-0.149002 0.1,-0.240997 0.034,-0.259003 m -1.707,56.443002 -0.1,0.130188 -0.059,0.07681 -0.1,0.241001 -0.034,0.258999 0.034,0.259 0.1,0.241 0.059,0.07681 0.1,0.130189 0.17706,0.136001 0.0299,0.023 0.241,0.1 0.259,0.034 0.259,-0.034 0.241,-0.1 0.0299,-0.023 0.17705,-0.136001 0.15901,-0.207 0.1,-0.241 0.034,-0.259 -0.034,-0.258999 -0.1,-0.241001 -0.15901,-0.206999 -0.207,-0.159001 -0.241,-0.1 -0.259,-0.034 -0.25899,0.034 -0.24101,0.1 -0.207,0.159001 m -94.545,-59.823999 -0.258,0.034 -0.242,0.100002 -0.207,0.159 -0.159,0.207001 -0.1,0.240998 -0.034,0.259002 0.034,0.258999 0.1,0.241001 0.159,0.206997 0.207,0.159001 0.242,0.100002 0.12142,0.016 0.13658,0.018 0.13712,-0.018 0.0999,-0.01311 0.022,-0.0029 0.241,-0.100002 0.207,-0.159001 0.159,-0.206997 0.1,-0.241001 0.034,-0.258999 -0.034,-0.259002 -0.1,-0.240998 -0.159,-0.207001 -0.207,-0.159 -0.241,-0.100002 -0.022,-0.0029 -0.237,-0.03111 m 0.707,58.856999 0.159,-0.207 0.1,-0.241 0.034,-0.259 -0.034,-0.259001 -0.1,-0.240999 -0.159,-0.207001 -0.207,-0.158999 -0.0145,-0.006 -0.22654,-0.094 -0.259,-0.034 -0.258,0.034 -0.22748,0.094 -0.0145,0.006 -0.207,0.158999 -0.159,0.207001 -0.1,0.240999 -0.034,0.259001 0.034,0.259 0.1,0.241 0.159,0.207 0.207,0.158999 0.242,0.1 0.258,0.034 0.237,-0.03111 0.022,-0.0029 0.241,-0.1 0.207,-0.158999 m -26.901,22.899992 -0.193,0.0253 -0.066,0.009 -0.241,0.099 -0.207,0.159 -0.159,0.208 -0.1,0.24 -0.034,0.26 0.034,0.258 0.1,0.242 0.159,0.206 0.207,0.159 0.241,0.1 0.066,0.009 0.193,0.0261 0.259,-0.035 0.241,-0.1 0.207,-0.159 0.159,-0.206 0.1,-0.242 0.034,-0.258 -0.034,-0.26 -0.1,-0.24 -0.159,-0.208 -0.207,-0.159 -0.241,-0.099 z"
       fill="none"
       stroke="#ff0000"
       stroke-width="0.001mm"
       id="path4979-2"
       style="stroke-width:1;stroke-dasharray:none" /><path
       d="m 185.4238,277.48792 h -7.881 v -1.67599 -32.76801 -10.093 h -1.547 -1.0146 -1.41761 -1.25714 -0.40664 -4.096 -4.09601 -4.096 -5.07 v 10.093 32.76801 0.614 1.06199 h -36.05667 -3.04113 -0.6152 v 1.53801 l -0.014,0.035 -0.035,0.015 h -12.512 -3.562706 -1.33929 v 3.125 l -0.015,0.035 -0.035,0.015 h -4.187 -13.85 -2.6 l -0.036,-0.015 -0.014,-0.035 v -1.537 h -2.551 -4.578 -13.459 l -0.035,-0.015 -0.015,-0.036 v -4.187 -0.614 -2.292 h -2.875 -11.938 -4.446 -17.204 l -0.036,-0.015 -0.014,-0.035 v -2.6 -13.85001 -5.2 -8.776 -5.074 -5.2 -22.494 -10.406 -5.2 -16.45 l 0.003,-0.019 0.011,-0.017 0.009,-0.003 0.007,-0.007 17.224009,-7.38159 21.671,-9.28741 0.13573,-1e-5 1.69027,-9e-5 9.271,-4.9e-4 4.578,-2.4e-4 4.407,-2.3e-4 13.85,-7.4e-4 5.2,-2.7e-4 4.732997,-2.5e-4 9.118,-4.9e-4 22.26706,-10e-4 0.16594,-1e-5 1.217,-0.55317 16.227,-7.37582 0.157,-0.15699 2.08408,-2.08394 6.59154,-6.59108 5.44938,-5.449 0.035,-0.015 0.036,0.015 2.188,2.18801 18.449,18.449 0.002,0.003 0.002,9.9e-4 0.001,0.004 0.01,0.0279 -0.001,0.002 0.001,0.003 -0.45418,4.08482 -0.33982,3.05618 v 43.166 16.384 16.38401 32.768 1.626 l -0.014,0.036 -0.036,0.014 m -13.74901,-48.34995 0.22501,0.0295 0.034,0.004 0.259,-0.034 0.241,-0.1 0.207,-0.158 0.15899,-0.208 0.10001,-0.241 0.034,-0.259 -0.034,-0.258 -0.10001,-0.242 -0.15899,-0.207 -0.207,-0.159 -0.241,-0.1 -0.259,-0.034 -0.034,0.005 -0.22501,0.0295 -0.241,0.1 -0.207,0.159 -0.15899,0.207 -0.10001,0.242 -0.034,0.258 0.034,0.259 0.10001,0.241 0.15899,0.208 0.207,0.158 0.241,0.1 m -9.166,-0.707 0.034,-0.259 -0.034,-0.258 -0.1,-0.242 -0.159,-0.207 -0.207,-0.159 -0.242,-0.1 -0.141,-0.0186 -0.117,-0.0154 -0.259,0.034 -0.241,0.1 -0.208,0.159 -0.158,0.207 -0.1,0.242 -0.034,0.258 0.034,0.259 0.1,0.241 0.158,0.208 0.208,0.158 0.241,0.1 0.259,0.034 0.117,-0.0154 0.141,-0.0186 0.242,-0.1 0.207,-0.158 0.159,-0.208 0.1,-0.241 m -27.972,29.077 0.0983,-0.128 0.0607,-0.079 0.1,-0.241 0.034,-0.259 -0.034,-0.259 -0.1,-0.241 -0.159,-0.207 -0.207,-0.159 -0.242,-0.1 -0.258,-0.034 -0.259,0.034 -0.241,0.1 -0.207,0.159 -0.135,0.17575 -0.024,0.0312 -0.1,0.241 -0.034,0.259 0.034,0.259 0.1,0.241 0.024,0.0312 0.0367,0.0478 0.0983,0.128 0.207,0.159 0.241,0.10001 0.259,0.034 0.258,-0.034 0.242,-0.10001 0.207,-0.159 m -3.307,-6.272 v -8.19208 -2.693 h -13.85 v 2.693 11.157 h 1.272 8.192 4.096 0.29 v -2.965 m -19.05,-7.71 h -9.912 -3.939997 v 3.175 10.675 h 3.939997 9.912 v -13.85 m 49.048,-48.454 h 6.57601 4.33699 l 0.967,-1.063 v -10.417 h -5.30399 -6.57601 v 11.48 m -0.945,-19.061 0.241,-0.1 0.207,-0.159 0.159,-0.207 0.1,-0.241 0.034,-0.259 -0.034,-0.259 -0.1,-0.241 -0.159,-0.207 -0.207,-0.159 -0.241,-0.1 -0.259,-0.034 -0.259,0.034 -0.153,0.0635 -0.088,0.0365 -0.207,0.159 -0.159,0.207 -0.1,0.241 -0.034,0.259 0.034,0.259 0.1,0.241 0.159,0.207 0.207,0.159 0.088,0.0365 0.153,0.0635 0.259,0.034 0.259,-0.034 m -17.103,-0.495 8.24,-3.84201 4.313,-2.01099 -3.98242,-8.539 -0.33058,-0.70883 -1.541,-3.30417 -12.552,5.853 5.853,12.552 m -8.85,25.00099 0.207,-0.159 0.159,-0.207 0.0477,-0.115 0.0523,-0.126 0.034,-0.259 -0.034,-0.259 -0.1,-0.241 -0.159,-0.207 -0.207,-0.159 -0.242,-0.1 -0.258,-0.034 -0.259,0.034 -0.241,0.1 -0.207,0.159 -0.135,0.17576 -0.024,0.0312 -0.1,0.241 -0.034,0.259 0.034,0.259 0.1,0.241 0.024,0.0312 0.135,0.17575 0.207,0.159 0.241,0.1 0.259,0.034 0.258,-0.034 0.242,-0.1 m -60.251997,75.29501 v -10.06101 -3.175 h -4.578 -9.271 v 13.23601 0.614 h 9.271 4.578 v -0.614 m -35.241,-20.42601 0.13014,-0.054 0.11086,-0.046 0.207,-0.15899 0.159,-0.207 0.1,-0.24101 0.034,-0.25899 -0.034,-0.25901 -0.1,-0.24099 -0.159,-0.20701 -0.207,-0.159 -0.241,-0.1 -0.057,-0.007 -0.202,-0.0265 -0.259,0.034 -0.241,0.1 -0.207,0.159 -0.159,0.20701 -0.1,0.24099 -0.034,0.25901 0.034,0.25899 0.1,0.24101 0.159,0.207 0.207,0.15899 0.11086,0.046 0.13014,0.054 0.259,0.034 0.259,-0.034 m 16.192,-41.66598 v -3.444 -10.406 h -1.913 -8.192 -3.746 v 2.214 8.192 3.444 h 13.851 m 0,-32.9 h -1.913 -11.938 v 13.072 0.778 h 3.746 8.192 1.913 v -13.85 m -15.951,17.316 0.19268,-0.148 0.0143,-0.011 0.159,-0.207 0.1,-0.241 0.034,-0.259 -0.034,-0.259 -0.1,-0.241 -0.159,-0.207 -0.207,-0.159 -0.241,-0.1 -0.057,-0.007 -0.202,-0.0265 -0.259,0.034 -0.241,0.1 -0.207,0.159 -0.159,0.207 -0.1,0.241 -0.034,0.259 0.034,0.259 0.1,0.241 0.159,0.207 0.0143,0.011 0.19268,0.148 0.241,0.1 0.259,0.034 0.259,-0.034 0.241,-0.1 m 73.101997,78.29001 v -0.614 -2.56101 -10.675 h -9.912 -3.939997 v 3.175 10.06101 0.614 h 1.513 2.426997 9.912 m 24.25004,-22.22593 h 13.85 v -11.157 -2.693 h -13.85 v 2.693 11.157 m 13.85,5.2 h -13.85 v 13.85 h 13.85 v -13.85 m 0,-24.25 v -13.85 h -13.85 v 13.85 h 13.85 m 0,-19.05 v -5.825 -8.025 h -13.85 v 8.025 5.825 h 13.85 m -19.05,57.15 v -13.823 -0.027 h -0.29 -4.096 -8.192 -1.272 v 3.175 10.675 h 1.272 12.578 m 0,-57.15 v -5.825 -8.025 h -4.386 -8.192 -1.272 v 8.025 5.825 h 13.85 m -28.962,8.375 h -3.939997 v 13.85 h 3.939997 9.912 v -3.175 -10.675 h -9.912 m 9.912,-5.2 v -9 -4.85 h -0.794 -9.118 -3.939997 v 3.175 1.675 9 h 3.939997 9.912 m 5.2,15.875 h 13.85 v -13.85 h -13.85 v 13.85 m 50.42401,-87.2049 -8.84201,8.8429 4.335,4.335 4.50701,4.507 0.95099,0.951 4.353,-4.35255 5.441,-5.44045 -9.794,-9.794 -0.95099,0.9511 m -31.37401,49.1049 h 13.85 v -13.85 h -13.85 v 13.85 m -5.2,-3.159 v -10.691 h -0.794 -11.784 -1.272 v 13.85 h 1.272 8.192 4.096 0.29 v -3.159 m -0.794,-15.891 v -0.493 -13.357 h -13.85 v 13.357 0.493 h 2.066 11.784 m -28.168,8.375 h -3.939997 v 3.175 10.675 h 3.939997 9.118 0.794 v -13.85 h -0.794 -9.118 m 9.118,-5.2 v -3.668 -10.182 h -9.118 -4.732997 v 10.182 3.668 h 0.793 3.939997 9.118 m -18.256997,95.25001 v -0.614 -10.06101 h -7.245 -6.605 v 10.06101 0.614 3.17499 h 13.85 v -3.17499 m 0,-29.72501 h -7.245 -6.605 v 10.675 3.175 h 6.605 7.245 v -3.175 -10.675 m -19.051,10.675 v -13.85 h -4.578 -9.271 v 8.294 5.2 0.356 h 9.271 4.578 m 11.806,-15.875 h 7.245 v -13.85 h -7.245 -6.605 v 13.85 h 6.605 m 7.245,-19.05 v -12.175 -1.675 h -7.245 -6.605 v 1.675 12.175 h 6.605 7.245 m -19.051,-3.175 v -9 -4.85 h -4.578 -9.271 v 4.85 9 h 9.271 4.578 m -4.578,5.2 h -9.271 v 13.85 h 9.271 4.578 v -13.85 h -4.578 m -14.471,19.05 v -0.482 -5.074 h -13.851 v 5.074 8.192 0.584 h 3.746 8.192001 1.913 v -8.294 m 0,13.494 h -1.913 -8.192001 -3.746 v 2.408 11.44201 h 11.938 1.913 v -8.29401 -5.2 -0.356 m -13.851,-24.25 h 13.851 v -13.85 h -13.851 v 13.85 m -5.199999,38.10001 v -13.85001 h -13.84999 v 13.85001 h 13.84999 m 0,-19.05001 v -8.776 -5.074 h -13.84999 v 5.074 8.776 h 13.84999 m 0,-38.1 v -3.444 -10.406 h -13.84999 v 10.406 3.444 h 13.84999 m -13.84999,19.05 h 13.84999 v -13.85 h -13.84999 v 13.85 m 70.20699,-55.26201 v -7.007 h -13.85 v 7.007 6.843 h 7.399 6.451 v -3.175 -3.668 m 0.794,25.893 v -13.85 h -7.245 -6.605 v 10.675 3.175 h 6.605 7.245 m -19.051,-3.175 v -13.85 h -4.578 -9.271 v 8.294 5.2 0.356 h 9.271 4.578 m 0,-19.05 v -3.668 -10.182 h -4.578 -9.271 v 10.182 3.668 h 9.271 4.578 m -51.94999,-0.356 v 13.85 h 13.84999 v -13.85 z"
       fill="none"
       stroke="#ff0000"
       stroke-width="0.001mm"
       id="path6649"
       style="stroke-width:1;stroke-dasharray:none" /><path
       d="m 399.6784,276.0038 h -7.881 v -1.67599 -32.76801 -10.093 h -1.547 -1.0146 -1.41761 -1.25714 -0.40664 -4.096 -4.09601 -4.096 -5.07 v 10.093 32.76801 0.614 1.06199 h -36.05667 -3.04113 -0.6152 v 1.53801 l -0.014,0.035 -0.035,0.015 h -12.512 -3.56271 -1.33929 v 3.125 l -0.015,0.035 -0.035,0.015 h -4.187 -13.85 -2.6 l -0.036,-0.015 -0.014,-0.035 v -1.537 h -2.551 -4.578 -13.459 l -0.035,-0.015 -0.015,-0.036 v -4.187 -0.614 -2.292 h -2.875 -11.938 -4.446 -17.204 l -0.036,-0.015 -0.014,-0.035 v -2.6 -13.85001 -5.2 -8.776 -5.074 -5.2 -22.494 -10.406 -5.2 -16.45 l 0.003,-0.019 0.011,-0.017 0.009,-0.003 0.007,-0.007 17.22401,-7.38159 21.671,-9.28741 0.13573,-1e-5 1.69027,-9e-5 9.271,-4.9e-4 4.578,-2.4e-4 4.407,-2.3e-4 13.85,-7.4e-4 5.2,-2.7e-4 4.733,-2.5e-4 9.118,-4.9e-4 22.26706,-0.001 0.16594,-1e-5 1.217,-0.55317 16.227,-7.37582 0.157,-0.15699 2.08408,-2.08394 6.59154,-6.59108 5.44938,-5.449 0.035,-0.015 0.036,0.015 2.188,2.18801 18.449,18.449 0.002,0.003 0.002,9.9e-4 10e-4,0.004 0.01,0.0279 -10e-4,0.002 10e-4,0.003 -0.45418,4.08482 -0.33982,3.05618 v 43.166 16.384 16.38401 32.768 1.626 l -0.014,0.036 -0.036,0.014 m -13.74901,-48.34995 0.22501,0.0295 0.034,0.004 0.259,-0.034 0.241,-0.1 0.207,-0.158 0.15899,-0.208 0.10001,-0.241 0.034,-0.259 -0.034,-0.258 -0.10001,-0.242 -0.15899,-0.207 -0.207,-0.159 -0.241,-0.1 -0.259,-0.034 -0.034,0.005 -0.22501,0.0295 -0.241,0.1 -0.207,0.159 -0.15899,0.207 -0.10001,0.242 -0.034,0.258 0.034,0.259 0.10001,0.241 0.15899,0.208 0.207,0.158 0.241,0.1 m -9.166,-0.707 0.034,-0.259 -0.034,-0.258 -0.1,-0.242 -0.159,-0.207 -0.207,-0.159 -0.242,-0.1 -0.141,-0.0186 -0.117,-0.0154 -0.259,0.034 -0.241,0.1 -0.208,0.159 -0.158,0.207 -0.1,0.242 -0.034,0.258 0.034,0.259 0.1,0.241 0.158,0.208 0.208,0.158 0.241,0.1 0.259,0.034 0.117,-0.0154 0.141,-0.0186 0.242,-0.1 0.207,-0.158 0.159,-0.208 0.1,-0.241 m -27.972,29.077 0.0983,-0.128 0.0607,-0.079 0.1,-0.241 0.034,-0.259 -0.034,-0.259 -0.1,-0.241 -0.159,-0.207 -0.207,-0.159 -0.242,-0.1 -0.258,-0.034 -0.259,0.034 -0.241,0.1 -0.207,0.159 -0.135,0.17575 -0.024,0.0312 -0.1,0.241 -0.034,0.259 0.034,0.259 0.1,0.241 0.024,0.0312 0.0367,0.0478 0.0983,0.128 0.207,0.159 0.241,0.10001 0.259,0.034 0.258,-0.034 0.242,-0.10001 0.207,-0.159 m -3.307,-6.272 v -8.19208 -2.693 h -13.85 v 2.693 11.157 h 1.272 8.192 4.096 0.29 v -2.965 m -19.05,-7.71 h -9.912 -3.94 v 3.175 10.675 h 3.94 9.912 v -13.85 m 49.048,-48.454 h 6.57601 4.33699 l 0.967,-1.063 v -10.417 h -5.30399 -6.57601 v 11.48 m -0.945,-19.061 0.241,-0.1 0.207,-0.159 0.159,-0.207 0.1,-0.241 0.034,-0.259 -0.034,-0.259 -0.1,-0.241 -0.159,-0.207 -0.207,-0.159 -0.241,-0.1 -0.259,-0.034 -0.259,0.034 -0.153,0.0635 -0.088,0.0365 -0.207,0.159 -0.159,0.207 -0.1,0.241 -0.034,0.259 0.034,0.259 0.1,0.241 0.159,0.207 0.207,0.159 0.088,0.0365 0.153,0.0635 0.259,0.034 0.259,-0.034 m -17.103,-0.495 8.24,-3.84201 4.313,-2.01099 -3.98242,-8.539 -0.33058,-0.70883 -1.541,-3.30417 -12.552,5.853 5.853,12.552 m -8.85,25.00099 0.207,-0.159 0.159,-0.207 0.0477,-0.115 0.0523,-0.126 0.034,-0.259 -0.034,-0.259 -0.1,-0.241 -0.159,-0.207 -0.207,-0.159 -0.242,-0.1 -0.258,-0.034 -0.259,0.034 -0.241,0.1 -0.207,0.159 -0.135,0.17576 -0.024,0.0312 -0.1,0.241 -0.034,0.259 0.034,0.259 0.1,0.241 0.024,0.0312 0.135,0.17575 0.207,0.159 0.241,0.1 0.259,0.034 0.258,-0.034 0.242,-0.1 m -60.252,75.29501 v -10.06101 -3.175 h -4.578 -9.271 v 13.23601 0.614 h 9.271 4.578 v -0.614 m -35.241,-20.42601 0.13014,-0.054 0.11086,-0.046 0.207,-0.15899 0.159,-0.207 0.1,-0.24101 0.034,-0.25899 -0.034,-0.25901 -0.1,-0.24099 -0.159,-0.20701 -0.207,-0.159 -0.241,-0.1 -0.057,-0.007 -0.202,-0.0265 -0.259,0.034 -0.241,0.1 -0.207,0.159 -0.159,0.20701 -0.1,0.24099 -0.034,0.25901 0.034,0.25899 0.1,0.24101 0.159,0.207 0.207,0.15899 0.11086,0.046 0.13014,0.054 0.259,0.034 0.259,-0.034 m 16.192,-41.66598 v -3.444 -10.406 h -1.913 -8.192 -3.746 v 2.214 8.192 3.444 h 13.851 m 0,-32.9 h -1.913 -11.938 v 13.072 0.778 h 3.746 8.192 1.913 v -13.85 m -15.951,17.316 0.19268,-0.148 0.0143,-0.011 0.159,-0.207 0.1,-0.241 0.034,-0.259 -0.034,-0.259 -0.1,-0.241 -0.159,-0.207 -0.207,-0.159 -0.241,-0.1 -0.057,-0.007 -0.202,-0.0265 -0.259,0.034 -0.241,0.1 -0.207,0.159 -0.159,0.207 -0.1,0.241 -0.034,0.259 0.034,0.259 0.1,0.241 0.159,0.207 0.0143,0.011 0.19268,0.148 0.241,0.1 0.259,0.034 0.259,-0.034 0.241,-0.1 m 73.102,78.29001 v -0.614 -2.56101 -10.675 h -9.912 -3.94 v 3.175 10.06101 0.614 h 1.513 2.427 9.912 m 24.25004,-22.22593 h 13.85 v -11.157 -2.693 h -13.85 v 2.693 11.157 m 13.85,5.2 h -13.85 v 13.85 h 13.85 v -13.85 m 0,-24.25 v -13.85 h -13.85 v 13.85 h 13.85 m 0,-19.05 v -5.825 -8.025 h -13.85 v 8.025 5.825 h 13.85 m -19.05,57.15 v -13.823 -0.027 h -0.29 -4.096 -8.192 -1.272 v 3.175 10.675 h 1.272 12.578 m 0,-57.15 v -5.825 -8.025 h -4.386 -8.192 -1.272 v 8.025 5.825 h 13.85 m -28.962,8.375 h -3.94 v 13.85 h 3.94 9.912 v -3.175 -10.675 h -9.912 m 9.912,-5.2 v -9 -4.85 h -0.794 -9.118 -3.94 v 3.175 1.675 9 h 3.94 9.912 m 5.2,15.875 h 13.85 v -13.85 h -13.85 v 13.85 m 50.42401,-87.2049 -8.84201,8.8429 4.335,4.335 4.50701,4.507 0.95099,0.951 4.353,-4.35255 5.441,-5.44045 -9.794,-9.794 -0.95099,0.9511 m -31.37401,49.1049 h 13.85 v -13.85 h -13.85 v 13.85 m -5.2,-3.159 v -10.691 h -0.794 -11.784 -1.272 v 13.85 h 1.272 8.192 4.096 0.29 v -3.159 m -0.794,-15.891 v -0.493 -13.357 h -13.85 v 13.357 0.493 h 2.066 11.784 m -28.168,8.375 h -3.94 v 3.175 10.675 h 3.94 9.118 0.794 v -13.85 h -0.794 -9.118 m 9.118,-5.2 v -3.668 -10.182 h -9.118 -4.733 v 10.182 3.668 h 0.793 3.94 9.118 m -18.257,95.25001 v -0.614 -10.06101 h -7.245 -6.605 v 10.06101 0.614 3.17499 h 13.85 v -3.17499 m 0,-29.72501 h -7.245 -6.605 v 10.675 3.175 h 6.605 7.245 v -3.175 -10.675 m -19.051,10.675 v -13.85 h -4.578 -9.271 v 8.294 5.2 0.356 h 9.271 4.578 m 11.806,-15.875 h 7.245 v -13.85 h -7.245 -6.605 v 13.85 h 6.605 m 7.245,-19.05 v -12.175 -1.675 h -7.245 -6.605 v 1.675 12.175 h 6.605 7.245 m -19.051,-3.175 v -9 -4.85 h -4.578 -9.271 v 4.85 9 h 9.271 4.578 m -4.578,5.2 h -9.271 v 13.85 h 9.271 4.578 v -13.85 h -4.578 m -14.471,19.05 v -0.482 -5.074 h -13.851 v 5.074 8.192 0.584 h 3.746 8.192 1.913 v -8.294 m 0,13.494 h -1.913 -8.192 -3.746 v 2.408 11.44201 h 11.938 1.913 v -8.29401 -5.2 -0.356 m -13.851,-24.25 h 13.851 v -13.85 h -13.851 v 13.85 m -5.2,38.10001 v -13.85001 h -13.84999 v 13.85001 h 13.84999 m 0,-19.05001 v -8.776 -5.074 h -13.84999 v 5.074 8.776 h 13.84999 m 0,-38.1 v -3.444 -10.406 h -13.84999 v 10.406 3.444 h 13.84999 m -13.84999,19.05 h 13.84999 v -13.85 h -13.84999 v 13.85 M 306.5894,176.0238 v -7.007 h -13.85 v 7.007 6.843 h 7.399 6.451 v -3.175 -3.668 m 0.794,25.893 v -13.85 h -7.245 -6.605 v 10.675 3.175 h 6.605 7.245 m -19.051,-3.175 v -13.85 h -4.578 -9.271 v 8.294 5.2 0.356 h 9.271 4.578 m 0,-19.05 v -3.668 -10.182 h -4.578 -9.271 v 10.182 3.668 h 9.271 4.578 m -51.94999,-0.356 v 13.85 h 13.84999 v -13.85 z"
       fill="none"
       stroke="#ff0000"
       stroke-width="0.001mm"
       id="path6649-0"
       style="stroke-width:1;stroke-dasharray:none" /></g><metadata
     id="metadata7406"><rdf:RDF><cc:Work
         rdf:about=""><dc:title>Sofle_Extended_Acrylic</dc:title></cc:Work></rdf:RDF></metadata></svg>
