%TF.GenerationSoftware,KiCad,Pcbnew,(6.0.1)*%
%TF.CreationDate,2022-02-14T18:22:42+08:00*%
%TF.ProjectId,Sofle_Extended,536f666c-655f-4457-9874-656e6465642e,rev?*%
%TF.SameCoordinates,Original*%
%TF.FileFunction,Legend,Bot*%
%TF.FilePolarity,Positive*%
%FSLAX46Y46*%
G04 Gerber Fmt 4.6, Leading zero omitted, Abs format (unit mm)*
G04 Created by KiCad (PCBNEW (6.0.1)) date 2022-02-14 18:22:42*
%MOMM*%
%LPD*%
G01*
G04 APERTURE LIST*
%ADD10C,0.150000*%
%ADD11C,0.120000*%
%ADD12C,0.381000*%
%ADD13R,1.752600X1.752600*%
%ADD14C,1.752600*%
G04 APERTURE END LIST*
D10*
%TO.C,J3*%
X76459630Y-100582345D02*
X76459630Y-101153773D01*
X77459630Y-100868059D02*
X76459630Y-100868059D01*
X77459630Y-102058535D02*
X76983440Y-101725202D01*
X77459630Y-101487107D02*
X76459630Y-101487107D01*
X76459630Y-101868059D01*
X76507250Y-101963297D01*
X76554869Y-102010916D01*
X76650107Y-102058535D01*
X76792964Y-102058535D01*
X76888202Y-102010916D01*
X76935821Y-101963297D01*
X76983440Y-101868059D01*
X76983440Y-101487107D01*
X77459630Y-103058535D02*
X76983440Y-102725202D01*
X77459630Y-102487107D02*
X76459630Y-102487107D01*
X76459630Y-102868059D01*
X76507250Y-102963297D01*
X76554869Y-103010916D01*
X76650107Y-103058535D01*
X76792964Y-103058535D01*
X76888202Y-103010916D01*
X76935821Y-102963297D01*
X76983440Y-102868059D01*
X76983440Y-102487107D01*
X77412011Y-103439488D02*
X77459630Y-103582345D01*
X77459630Y-103820440D01*
X77412011Y-103915678D01*
X77364392Y-103963297D01*
X77269154Y-104010916D01*
X77173916Y-104010916D01*
X77078678Y-103963297D01*
X77031059Y-103915678D01*
X76983440Y-103820440D01*
X76935821Y-103629964D01*
X76888202Y-103534726D01*
X76840583Y-103487107D01*
X76745345Y-103439488D01*
X76650107Y-103439488D01*
X76554869Y-103487107D01*
X76507250Y-103534726D01*
X76459630Y-103629964D01*
X76459630Y-103868059D01*
X76507250Y-104010916D01*
%TO.C,J1*%
X103599404Y-73485714D02*
X103599404Y-73104761D01*
X102799404Y-73104761D01*
X103180357Y-73752380D02*
X103180357Y-74019047D01*
X103599404Y-74133333D02*
X103599404Y-73752380D01*
X102799404Y-73752380D01*
X102799404Y-74133333D01*
X103599404Y-74476190D02*
X102799404Y-74476190D01*
X102799404Y-74666666D01*
X102837500Y-74780952D01*
X102913690Y-74857142D01*
X102989880Y-74895238D01*
X103142261Y-74933333D01*
X103256547Y-74933333D01*
X103408928Y-74895238D01*
X103485119Y-74857142D01*
X103561309Y-74780952D01*
X103599404Y-74666666D01*
X103599404Y-74476190D01*
X100237500Y-73490476D02*
X100199404Y-73414285D01*
X100199404Y-73300000D01*
X100237500Y-73185714D01*
X100313690Y-73109523D01*
X100389880Y-73071428D01*
X100542261Y-73033333D01*
X100656547Y-73033333D01*
X100808928Y-73071428D01*
X100885119Y-73109523D01*
X100961309Y-73185714D01*
X100999404Y-73300000D01*
X100999404Y-73376190D01*
X100961309Y-73490476D01*
X100923214Y-73528571D01*
X100656547Y-73528571D01*
X100656547Y-73376190D01*
X100999404Y-73871428D02*
X100199404Y-73871428D01*
X100999404Y-74328571D01*
X100199404Y-74328571D01*
X100999404Y-74709523D02*
X100199404Y-74709523D01*
X100199404Y-74900000D01*
X100237500Y-75014285D01*
X100313690Y-75090476D01*
X100389880Y-75128571D01*
X100542261Y-75166666D01*
X100656547Y-75166666D01*
X100808928Y-75128571D01*
X100885119Y-75090476D01*
X100961309Y-75014285D01*
X100999404Y-74900000D01*
X100999404Y-74709523D01*
X105199404Y-72933333D02*
X105999404Y-73200000D01*
X105199404Y-73466666D01*
X105923214Y-74190476D02*
X105961309Y-74152380D01*
X105999404Y-74038095D01*
X105999404Y-73961904D01*
X105961309Y-73847619D01*
X105885119Y-73771428D01*
X105808928Y-73733333D01*
X105656547Y-73695238D01*
X105542261Y-73695238D01*
X105389880Y-73733333D01*
X105313690Y-73771428D01*
X105237500Y-73847619D01*
X105199404Y-73961904D01*
X105199404Y-74038095D01*
X105237500Y-74152380D01*
X105275595Y-74190476D01*
X105923214Y-74990476D02*
X105961309Y-74952380D01*
X105999404Y-74838095D01*
X105999404Y-74761904D01*
X105961309Y-74647619D01*
X105885119Y-74571428D01*
X105808928Y-74533333D01*
X105656547Y-74495238D01*
X105542261Y-74495238D01*
X105389880Y-74533333D01*
X105313690Y-74571428D01*
X105237500Y-74647619D01*
X105199404Y-74761904D01*
X105199404Y-74838095D01*
X105237500Y-74952380D01*
X105275595Y-74990476D01*
%TO.C,RSW1*%
X72593154Y-92500595D02*
X72212202Y-92233928D01*
X72593154Y-92043452D02*
X71793154Y-92043452D01*
X71793154Y-92348214D01*
X71831250Y-92424404D01*
X71869345Y-92462500D01*
X71945535Y-92500595D01*
X72059821Y-92500595D01*
X72136011Y-92462500D01*
X72174107Y-92424404D01*
X72212202Y-92348214D01*
X72212202Y-92043452D01*
X72174107Y-92843452D02*
X72174107Y-93110119D01*
X72593154Y-93224404D02*
X72593154Y-92843452D01*
X71793154Y-92843452D01*
X71793154Y-93224404D01*
X72555059Y-93529166D02*
X72593154Y-93643452D01*
X72593154Y-93833928D01*
X72555059Y-93910119D01*
X72516964Y-93948214D01*
X72440773Y-93986309D01*
X72364583Y-93986309D01*
X72288392Y-93948214D01*
X72250297Y-93910119D01*
X72212202Y-93833928D01*
X72174107Y-93681547D01*
X72136011Y-93605357D01*
X72097916Y-93567261D01*
X72021726Y-93529166D01*
X71945535Y-93529166D01*
X71869345Y-93567261D01*
X71831250Y-93605357D01*
X71793154Y-93681547D01*
X71793154Y-93872023D01*
X71831250Y-93986309D01*
X72174107Y-94329166D02*
X72174107Y-94595833D01*
X72593154Y-94710119D02*
X72593154Y-94329166D01*
X71793154Y-94329166D01*
X71793154Y-94710119D01*
X71793154Y-94938690D02*
X71793154Y-95395833D01*
X72593154Y-95167261D02*
X71793154Y-95167261D01*
%TO.C,U1*%
X86535833Y-43801309D02*
X86421547Y-43839404D01*
X86231071Y-43839404D01*
X86154880Y-43801309D01*
X86116785Y-43763214D01*
X86078690Y-43687023D01*
X86078690Y-43610833D01*
X86116785Y-43534642D01*
X86154880Y-43496547D01*
X86231071Y-43458452D01*
X86383452Y-43420357D01*
X86459642Y-43382261D01*
X86497738Y-43344166D01*
X86535833Y-43267976D01*
X86535833Y-43191785D01*
X86497738Y-43115595D01*
X86459642Y-43077500D01*
X86383452Y-43039404D01*
X86192976Y-43039404D01*
X86078690Y-43077500D01*
X85850119Y-43039404D02*
X85392976Y-43039404D01*
X85621547Y-43839404D02*
X85621547Y-43039404D01*
X79581104Y-37979404D02*
X79123961Y-37979404D01*
X79352532Y-38779404D02*
X79352532Y-37979404D01*
X78933485Y-37979404D02*
X78400151Y-38779404D01*
X78400151Y-37979404D02*
X78933485Y-38779404D01*
X77943008Y-37979404D02*
X77866818Y-37979404D01*
X77790628Y-38017500D01*
X77752532Y-38055595D01*
X77714437Y-38131785D01*
X77676342Y-38284166D01*
X77676342Y-38474642D01*
X77714437Y-38627023D01*
X77752532Y-38703214D01*
X77790628Y-38741309D01*
X77866818Y-38779404D01*
X77943008Y-38779404D01*
X78019199Y-38741309D01*
X78057294Y-38703214D01*
X78095389Y-38627023D01*
X78133485Y-38474642D01*
X78133485Y-38284166D01*
X78095389Y-38131785D01*
X78057294Y-38055595D01*
X78019199Y-38017500D01*
X77943008Y-37979404D01*
X76762056Y-37941309D02*
X77447770Y-38969880D01*
X76495389Y-38779404D02*
X76495389Y-37979404D01*
X76304913Y-37979404D01*
X76190628Y-38017500D01*
X76114437Y-38093690D01*
X76076342Y-38169880D01*
X76038247Y-38322261D01*
X76038247Y-38436547D01*
X76076342Y-38588928D01*
X76114437Y-38665119D01*
X76190628Y-38741309D01*
X76304913Y-38779404D01*
X76495389Y-38779404D01*
X75771580Y-37979404D02*
X75276342Y-37979404D01*
X75543008Y-38284166D01*
X75428723Y-38284166D01*
X75352532Y-38322261D01*
X75314437Y-38360357D01*
X75276342Y-38436547D01*
X75276342Y-38627023D01*
X75314437Y-38703214D01*
X75352532Y-38741309D01*
X75428723Y-38779404D01*
X75657294Y-38779404D01*
X75733485Y-38741309D01*
X75771580Y-38703214D01*
X86747309Y-38360357D02*
X86633023Y-38398452D01*
X86594928Y-38436547D01*
X86556833Y-38512738D01*
X86556833Y-38627023D01*
X86594928Y-38703214D01*
X86633023Y-38741309D01*
X86709214Y-38779404D01*
X87013976Y-38779404D01*
X87013976Y-37979404D01*
X86747309Y-37979404D01*
X86671119Y-38017500D01*
X86633023Y-38055595D01*
X86594928Y-38131785D01*
X86594928Y-38207976D01*
X86633023Y-38284166D01*
X86671119Y-38322261D01*
X86747309Y-38360357D01*
X87013976Y-38360357D01*
X86061595Y-37979404D02*
X85985404Y-37979404D01*
X85909214Y-38017500D01*
X85871119Y-38055595D01*
X85833023Y-38131785D01*
X85794928Y-38284166D01*
X85794928Y-38474642D01*
X85833023Y-38627023D01*
X85871119Y-38703214D01*
X85909214Y-38741309D01*
X85985404Y-38779404D01*
X86061595Y-38779404D01*
X86137785Y-38741309D01*
X86175880Y-38703214D01*
X86213976Y-38627023D01*
X86252071Y-38474642D01*
X86252071Y-38284166D01*
X86213976Y-38131785D01*
X86175880Y-38055595D01*
X86137785Y-38017500D01*
X86061595Y-37979404D01*
X76091976Y-48939404D02*
X76091976Y-48139404D01*
X75901500Y-48139404D01*
X75787214Y-48177500D01*
X75711023Y-48253690D01*
X75672928Y-48329880D01*
X75634833Y-48482261D01*
X75634833Y-48596547D01*
X75672928Y-48748928D01*
X75711023Y-48825119D01*
X75787214Y-48901309D01*
X75901500Y-48939404D01*
X76091976Y-48939404D01*
X74872928Y-48939404D02*
X75330071Y-48939404D01*
X75101500Y-48939404D02*
X75101500Y-48139404D01*
X75177690Y-48253690D01*
X75253880Y-48329880D01*
X75330071Y-48367976D01*
X86747309Y-63760357D02*
X86633023Y-63798452D01*
X86594928Y-63836547D01*
X86556833Y-63912738D01*
X86556833Y-64027023D01*
X86594928Y-64103214D01*
X86633023Y-64141309D01*
X86709214Y-64179404D01*
X87013976Y-64179404D01*
X87013976Y-63379404D01*
X86747309Y-63379404D01*
X86671119Y-63417500D01*
X86633023Y-63455595D01*
X86594928Y-63531785D01*
X86594928Y-63607976D01*
X86633023Y-63684166D01*
X86671119Y-63722261D01*
X86747309Y-63760357D01*
X87013976Y-63760357D01*
X86252071Y-63455595D02*
X86213976Y-63417500D01*
X86137785Y-63379404D01*
X85947309Y-63379404D01*
X85871119Y-63417500D01*
X85833023Y-63455595D01*
X85794928Y-63531785D01*
X85794928Y-63607976D01*
X85833023Y-63722261D01*
X86290166Y-64179404D01*
X85794928Y-64179404D01*
X86747309Y-61220357D02*
X86633023Y-61258452D01*
X86594928Y-61296547D01*
X86556833Y-61372738D01*
X86556833Y-61487023D01*
X86594928Y-61563214D01*
X86633023Y-61601309D01*
X86709214Y-61639404D01*
X87013976Y-61639404D01*
X87013976Y-60839404D01*
X86747309Y-60839404D01*
X86671119Y-60877500D01*
X86633023Y-60915595D01*
X86594928Y-60991785D01*
X86594928Y-61067976D01*
X86633023Y-61144166D01*
X86671119Y-61182261D01*
X86747309Y-61220357D01*
X87013976Y-61220357D01*
X86290166Y-60839404D02*
X85794928Y-60839404D01*
X86061595Y-61144166D01*
X85947309Y-61144166D01*
X85871119Y-61182261D01*
X85833023Y-61220357D01*
X85794928Y-61296547D01*
X85794928Y-61487023D01*
X85833023Y-61563214D01*
X85871119Y-61601309D01*
X85947309Y-61639404D01*
X86175880Y-61639404D01*
X86252071Y-61601309D01*
X86290166Y-61563214D01*
X83769166Y-64730357D02*
X84035833Y-64730357D01*
X84035833Y-65149404D02*
X84035833Y-64349404D01*
X83654880Y-64349404D01*
X82931071Y-65149404D02*
X83388214Y-65149404D01*
X83159642Y-65149404D02*
X83159642Y-64349404D01*
X83235833Y-64463690D01*
X83312023Y-64539880D01*
X83388214Y-64577976D01*
X86690166Y-53600357D02*
X86956833Y-53600357D01*
X86956833Y-54019404D02*
X86956833Y-53219404D01*
X86575880Y-53219404D01*
X85928261Y-53219404D02*
X86080642Y-53219404D01*
X86156833Y-53257500D01*
X86194928Y-53295595D01*
X86271119Y-53409880D01*
X86309214Y-53562261D01*
X86309214Y-53867023D01*
X86271119Y-53943214D01*
X86233023Y-53981309D01*
X86156833Y-54019404D01*
X86004452Y-54019404D01*
X85928261Y-53981309D01*
X85890166Y-53943214D01*
X85852071Y-53867023D01*
X85852071Y-53676547D01*
X85890166Y-53600357D01*
X85928261Y-53562261D01*
X86004452Y-53524166D01*
X86156833Y-53524166D01*
X86233023Y-53562261D01*
X86271119Y-53600357D01*
X86309214Y-53676547D01*
X75825309Y-63760357D02*
X75711023Y-63798452D01*
X75672928Y-63836547D01*
X75634833Y-63912738D01*
X75634833Y-64027023D01*
X75672928Y-64103214D01*
X75711023Y-64141309D01*
X75787214Y-64179404D01*
X76091976Y-64179404D01*
X76091976Y-63379404D01*
X75825309Y-63379404D01*
X75749119Y-63417500D01*
X75711023Y-63455595D01*
X75672928Y-63531785D01*
X75672928Y-63607976D01*
X75711023Y-63684166D01*
X75749119Y-63722261D01*
X75825309Y-63760357D01*
X76091976Y-63760357D01*
X74949119Y-63646071D02*
X74949119Y-64179404D01*
X75139595Y-63341309D02*
X75330071Y-63912738D01*
X74834833Y-63912738D01*
X86747309Y-58680357D02*
X86633023Y-58718452D01*
X86594928Y-58756547D01*
X86556833Y-58832738D01*
X86556833Y-58947023D01*
X86594928Y-59023214D01*
X86633023Y-59061309D01*
X86709214Y-59099404D01*
X87013976Y-59099404D01*
X87013976Y-58299404D01*
X86747309Y-58299404D01*
X86671119Y-58337500D01*
X86633023Y-58375595D01*
X86594928Y-58451785D01*
X86594928Y-58527976D01*
X86633023Y-58604166D01*
X86671119Y-58642261D01*
X86747309Y-58680357D01*
X87013976Y-58680357D01*
X85794928Y-59099404D02*
X86252071Y-59099404D01*
X86023500Y-59099404D02*
X86023500Y-58299404D01*
X86099690Y-58413690D01*
X86175880Y-58489880D01*
X86252071Y-58527976D01*
X86690166Y-56140357D02*
X86956833Y-56140357D01*
X86956833Y-56559404D02*
X86956833Y-55759404D01*
X86575880Y-55759404D01*
X86347309Y-55759404D02*
X85813976Y-55759404D01*
X86156833Y-56559404D01*
X76091976Y-51479404D02*
X76091976Y-50679404D01*
X75901500Y-50679404D01*
X75787214Y-50717500D01*
X75711023Y-50793690D01*
X75672928Y-50869880D01*
X75634833Y-51022261D01*
X75634833Y-51136547D01*
X75672928Y-51288928D01*
X75711023Y-51365119D01*
X75787214Y-51441309D01*
X75901500Y-51479404D01*
X76091976Y-51479404D01*
X75139595Y-50679404D02*
X75063404Y-50679404D01*
X74987214Y-50717500D01*
X74949119Y-50755595D01*
X74911023Y-50831785D01*
X74872928Y-50984166D01*
X74872928Y-51174642D01*
X74911023Y-51327023D01*
X74949119Y-51403214D01*
X74987214Y-51441309D01*
X75063404Y-51479404D01*
X75139595Y-51479404D01*
X75215785Y-51441309D01*
X75253880Y-51403214D01*
X75291976Y-51327023D01*
X75330071Y-51174642D01*
X75330071Y-50984166D01*
X75291976Y-50831785D01*
X75253880Y-50755595D01*
X75215785Y-50717500D01*
X75139595Y-50679404D01*
X76091976Y-54019404D02*
X76091976Y-53219404D01*
X75901500Y-53219404D01*
X75787214Y-53257500D01*
X75711023Y-53333690D01*
X75672928Y-53409880D01*
X75634833Y-53562261D01*
X75634833Y-53676547D01*
X75672928Y-53828928D01*
X75711023Y-53905119D01*
X75787214Y-53981309D01*
X75901500Y-54019404D01*
X76091976Y-54019404D01*
X74949119Y-53486071D02*
X74949119Y-54019404D01*
X75139595Y-53181309D02*
X75330071Y-53752738D01*
X74834833Y-53752738D01*
X79012976Y-65149404D02*
X79012976Y-64349404D01*
X78822500Y-64349404D01*
X78708214Y-64387500D01*
X78632023Y-64463690D01*
X78593928Y-64539880D01*
X78555833Y-64692261D01*
X78555833Y-64806547D01*
X78593928Y-64958928D01*
X78632023Y-65035119D01*
X78708214Y-65111309D01*
X78822500Y-65149404D01*
X79012976Y-65149404D01*
X77832023Y-64349404D02*
X78212976Y-64349404D01*
X78251071Y-64730357D01*
X78212976Y-64692261D01*
X78136785Y-64654166D01*
X77946309Y-64654166D01*
X77870119Y-64692261D01*
X77832023Y-64730357D01*
X77793928Y-64806547D01*
X77793928Y-64997023D01*
X77832023Y-65073214D01*
X77870119Y-65111309D01*
X77946309Y-65149404D01*
X78136785Y-65149404D01*
X78212976Y-65111309D01*
X78251071Y-65073214D01*
X86690166Y-51060357D02*
X86956833Y-51060357D01*
X86956833Y-51479404D02*
X86956833Y-50679404D01*
X86575880Y-50679404D01*
X85890166Y-50679404D02*
X86271119Y-50679404D01*
X86309214Y-51060357D01*
X86271119Y-51022261D01*
X86194928Y-50984166D01*
X86004452Y-50984166D01*
X85928261Y-51022261D01*
X85890166Y-51060357D01*
X85852071Y-51136547D01*
X85852071Y-51327023D01*
X85890166Y-51403214D01*
X85928261Y-51441309D01*
X86004452Y-51479404D01*
X86194928Y-51479404D01*
X86271119Y-51441309D01*
X86309214Y-51403214D01*
X76091976Y-59099404D02*
X76091976Y-58299404D01*
X75901500Y-58299404D01*
X75787214Y-58337500D01*
X75711023Y-58413690D01*
X75672928Y-58489880D01*
X75634833Y-58642261D01*
X75634833Y-58756547D01*
X75672928Y-58908928D01*
X75711023Y-58985119D01*
X75787214Y-59061309D01*
X75901500Y-59099404D01*
X76091976Y-59099404D01*
X75368166Y-58299404D02*
X74834833Y-58299404D01*
X75177690Y-59099404D01*
X87527491Y-64851797D02*
X87480351Y-64946078D01*
X87480351Y-64993219D01*
X87503921Y-65063929D01*
X87574632Y-65134640D01*
X87645342Y-65158210D01*
X87692483Y-65158210D01*
X87763193Y-65134640D01*
X87951755Y-64946078D01*
X87456780Y-64451103D01*
X87291789Y-64616095D01*
X87268219Y-64686806D01*
X87268219Y-64733946D01*
X87291789Y-64804657D01*
X87338929Y-64851797D01*
X87409640Y-64875367D01*
X87456780Y-64875367D01*
X87527491Y-64851797D01*
X87692483Y-64686806D01*
X86749674Y-65158210D02*
X86843955Y-65063929D01*
X86914665Y-65040359D01*
X86961806Y-65040359D01*
X87079657Y-65063929D01*
X87197508Y-65134640D01*
X87386070Y-65323202D01*
X87409640Y-65393912D01*
X87409640Y-65441053D01*
X87386070Y-65511764D01*
X87291789Y-65606044D01*
X87221078Y-65629615D01*
X87173938Y-65629615D01*
X87103227Y-65606044D01*
X86985376Y-65488193D01*
X86961806Y-65417483D01*
X86961806Y-65370342D01*
X86985376Y-65299632D01*
X87079657Y-65205351D01*
X87150367Y-65181780D01*
X87197508Y-65181780D01*
X87268219Y-65205351D01*
X76745833Y-64937500D02*
X76645833Y-64970833D01*
X76612500Y-65004166D01*
X76579166Y-65070833D01*
X76579166Y-65170833D01*
X76612500Y-65237500D01*
X76645833Y-65270833D01*
X76712500Y-65304166D01*
X76979166Y-65304166D01*
X76979166Y-64604166D01*
X76745833Y-64604166D01*
X76679166Y-64637500D01*
X76645833Y-64670833D01*
X76612500Y-64737500D01*
X76612500Y-64804166D01*
X76645833Y-64870833D01*
X76679166Y-64904166D01*
X76745833Y-64937500D01*
X76979166Y-64937500D01*
X76345833Y-64604166D02*
X75879166Y-64604166D01*
X76179166Y-65304166D01*
X87490166Y-45599404D02*
X87223500Y-46399404D01*
X86956833Y-45599404D01*
X86233023Y-46323214D02*
X86271119Y-46361309D01*
X86385404Y-46399404D01*
X86461595Y-46399404D01*
X86575880Y-46361309D01*
X86652071Y-46285119D01*
X86690166Y-46208928D01*
X86728261Y-46056547D01*
X86728261Y-45942261D01*
X86690166Y-45789880D01*
X86652071Y-45713690D01*
X86575880Y-45637500D01*
X86461595Y-45599404D01*
X86385404Y-45599404D01*
X86271119Y-45637500D01*
X86233023Y-45675595D01*
X85433023Y-46323214D02*
X85471119Y-46361309D01*
X85585404Y-46399404D01*
X85661595Y-46399404D01*
X85775880Y-46361309D01*
X85852071Y-46285119D01*
X85890166Y-46208928D01*
X85928261Y-46056547D01*
X85928261Y-45942261D01*
X85890166Y-45789880D01*
X85852071Y-45713690D01*
X85775880Y-45637500D01*
X85661595Y-45599404D01*
X85585404Y-45599404D01*
X85471119Y-45637500D01*
X85433023Y-45675595D01*
X85695833Y-64937500D02*
X85929166Y-64937500D01*
X85929166Y-65304166D02*
X85929166Y-64604166D01*
X85595833Y-64604166D01*
X85195833Y-64604166D02*
X85129166Y-64604166D01*
X85062500Y-64637500D01*
X85029166Y-64670833D01*
X84995833Y-64737500D01*
X84962500Y-64870833D01*
X84962500Y-65037500D01*
X84995833Y-65170833D01*
X85029166Y-65237500D01*
X85062500Y-65270833D01*
X85129166Y-65304166D01*
X85195833Y-65304166D01*
X85262500Y-65270833D01*
X85295833Y-65237500D01*
X85329166Y-65170833D01*
X85362500Y-65037500D01*
X85362500Y-64870833D01*
X85329166Y-64737500D01*
X85295833Y-64670833D01*
X85262500Y-64637500D01*
X85195833Y-64604166D01*
X76111023Y-43097500D02*
X76187214Y-43059404D01*
X76301500Y-43059404D01*
X76415785Y-43097500D01*
X76491976Y-43173690D01*
X76530071Y-43249880D01*
X76568166Y-43402261D01*
X76568166Y-43516547D01*
X76530071Y-43668928D01*
X76491976Y-43745119D01*
X76415785Y-43821309D01*
X76301500Y-43859404D01*
X76225309Y-43859404D01*
X76111023Y-43821309D01*
X76072928Y-43783214D01*
X76072928Y-43516547D01*
X76225309Y-43516547D01*
X75730071Y-43859404D02*
X75730071Y-43059404D01*
X75272928Y-43859404D01*
X75272928Y-43059404D01*
X74891976Y-43859404D02*
X74891976Y-43059404D01*
X74701500Y-43059404D01*
X74587214Y-43097500D01*
X74511023Y-43173690D01*
X74472928Y-43249880D01*
X74434833Y-43402261D01*
X74434833Y-43516547D01*
X74472928Y-43668928D01*
X74511023Y-43745119D01*
X74587214Y-43821309D01*
X74701500Y-43859404D01*
X74891976Y-43859404D01*
X86690166Y-48520357D02*
X86956833Y-48520357D01*
X86956833Y-48939404D02*
X86956833Y-48139404D01*
X86575880Y-48139404D01*
X85928261Y-48406071D02*
X85928261Y-48939404D01*
X86118738Y-48101309D02*
X86309214Y-48672738D01*
X85813976Y-48672738D01*
X75634833Y-56483214D02*
X75672928Y-56521309D01*
X75787214Y-56559404D01*
X75863404Y-56559404D01*
X75977690Y-56521309D01*
X76053880Y-56445119D01*
X76091976Y-56368928D01*
X76130071Y-56216547D01*
X76130071Y-56102261D01*
X76091976Y-55949880D01*
X76053880Y-55873690D01*
X75977690Y-55797500D01*
X75863404Y-55759404D01*
X75787214Y-55759404D01*
X75672928Y-55797500D01*
X75634833Y-55835595D01*
X74949119Y-55759404D02*
X75101500Y-55759404D01*
X75177690Y-55797500D01*
X75215785Y-55835595D01*
X75291976Y-55949880D01*
X75330071Y-56102261D01*
X75330071Y-56407023D01*
X75291976Y-56483214D01*
X75253880Y-56521309D01*
X75177690Y-56559404D01*
X75025309Y-56559404D01*
X74949119Y-56521309D01*
X74911023Y-56483214D01*
X74872928Y-56407023D01*
X74872928Y-56216547D01*
X74911023Y-56140357D01*
X74949119Y-56102261D01*
X75025309Y-56064166D01*
X75177690Y-56064166D01*
X75253880Y-56102261D01*
X75291976Y-56140357D01*
X75330071Y-56216547D01*
X76053880Y-61220357D02*
X75787214Y-61220357D01*
X75672928Y-61639404D02*
X76053880Y-61639404D01*
X76053880Y-60839404D01*
X75672928Y-60839404D01*
X74987214Y-60839404D02*
X75139595Y-60839404D01*
X75215785Y-60877500D01*
X75253880Y-60915595D01*
X75330071Y-61029880D01*
X75368166Y-61182261D01*
X75368166Y-61487023D01*
X75330071Y-61563214D01*
X75291976Y-61601309D01*
X75215785Y-61639404D01*
X75063404Y-61639404D01*
X74987214Y-61601309D01*
X74949119Y-61563214D01*
X74911023Y-61487023D01*
X74911023Y-61296547D01*
X74949119Y-61220357D01*
X74987214Y-61182261D01*
X75063404Y-61144166D01*
X75215785Y-61144166D01*
X75291976Y-61182261D01*
X75330071Y-61220357D01*
X75368166Y-61296547D01*
X74326797Y-64922508D02*
X74421078Y-64969648D01*
X74468219Y-64969648D01*
X74538929Y-64946078D01*
X74609640Y-64875367D01*
X74633210Y-64804657D01*
X74633210Y-64757516D01*
X74609640Y-64686806D01*
X74421078Y-64498244D01*
X73926103Y-64993219D01*
X74091095Y-65158210D01*
X74161806Y-65181780D01*
X74208946Y-65181780D01*
X74279657Y-65158210D01*
X74326797Y-65111070D01*
X74350367Y-65040359D01*
X74350367Y-64993219D01*
X74326797Y-64922508D01*
X74161806Y-64757516D01*
X74656780Y-65723896D02*
X74421078Y-65488193D01*
X74633210Y-65228921D01*
X74633210Y-65276061D01*
X74656780Y-65346772D01*
X74774632Y-65464623D01*
X74845342Y-65488193D01*
X74892483Y-65488193D01*
X74963193Y-65464623D01*
X75081044Y-65346772D01*
X75104615Y-65276061D01*
X75104615Y-65228921D01*
X75081044Y-65158210D01*
X74963193Y-65040359D01*
X74892483Y-65016789D01*
X74845342Y-65016789D01*
X76111023Y-45637500D02*
X76187214Y-45599404D01*
X76301500Y-45599404D01*
X76415785Y-45637500D01*
X76491976Y-45713690D01*
X76530071Y-45789880D01*
X76568166Y-45942261D01*
X76568166Y-46056547D01*
X76530071Y-46208928D01*
X76491976Y-46285119D01*
X76415785Y-46361309D01*
X76301500Y-46399404D01*
X76225309Y-46399404D01*
X76111023Y-46361309D01*
X76072928Y-46323214D01*
X76072928Y-46056547D01*
X76225309Y-46056547D01*
X75730071Y-46399404D02*
X75730071Y-45599404D01*
X75272928Y-46399404D01*
X75272928Y-45599404D01*
X74891976Y-46399404D02*
X74891976Y-45599404D01*
X74701500Y-45599404D01*
X74587214Y-45637500D01*
X74511023Y-45713690D01*
X74472928Y-45789880D01*
X74434833Y-45942261D01*
X74434833Y-46056547D01*
X74472928Y-46208928D01*
X74511023Y-46285119D01*
X74587214Y-46361309D01*
X74701500Y-46399404D01*
X74891976Y-46399404D01*
X81095833Y-65073214D02*
X81133928Y-65111309D01*
X81248214Y-65149404D01*
X81324404Y-65149404D01*
X81438690Y-65111309D01*
X81514880Y-65035119D01*
X81552976Y-64958928D01*
X81591071Y-64806547D01*
X81591071Y-64692261D01*
X81552976Y-64539880D01*
X81514880Y-64463690D01*
X81438690Y-64387500D01*
X81324404Y-64349404D01*
X81248214Y-64349404D01*
X81133928Y-64387500D01*
X81095833Y-64425595D01*
X80829166Y-64349404D02*
X80295833Y-64349404D01*
X80638690Y-65149404D01*
X76091976Y-41319404D02*
X76091976Y-40519404D01*
X75901500Y-40519404D01*
X75787214Y-40557500D01*
X75711023Y-40633690D01*
X75672928Y-40709880D01*
X75634833Y-40862261D01*
X75634833Y-40976547D01*
X75672928Y-41128928D01*
X75711023Y-41205119D01*
X75787214Y-41281309D01*
X75901500Y-41319404D01*
X76091976Y-41319404D01*
X75330071Y-40595595D02*
X75291976Y-40557500D01*
X75215785Y-40519404D01*
X75025309Y-40519404D01*
X74949119Y-40557500D01*
X74911023Y-40595595D01*
X74872928Y-40671785D01*
X74872928Y-40747976D01*
X74911023Y-40862261D01*
X75368166Y-41319404D01*
X74872928Y-41319404D01*
X87033023Y-40557500D02*
X87109214Y-40519404D01*
X87223500Y-40519404D01*
X87337785Y-40557500D01*
X87413976Y-40633690D01*
X87452071Y-40709880D01*
X87490166Y-40862261D01*
X87490166Y-40976547D01*
X87452071Y-41128928D01*
X87413976Y-41205119D01*
X87337785Y-41281309D01*
X87223500Y-41319404D01*
X87147309Y-41319404D01*
X87033023Y-41281309D01*
X86994928Y-41243214D01*
X86994928Y-40976547D01*
X87147309Y-40976547D01*
X86652071Y-41319404D02*
X86652071Y-40519404D01*
X86194928Y-41319404D01*
X86194928Y-40519404D01*
X85813976Y-41319404D02*
X85813976Y-40519404D01*
X85623500Y-40519404D01*
X85509214Y-40557500D01*
X85433023Y-40633690D01*
X85394928Y-40709880D01*
X85356833Y-40862261D01*
X85356833Y-40976547D01*
X85394928Y-41128928D01*
X85433023Y-41205119D01*
X85509214Y-41281309D01*
X85623500Y-41319404D01*
X85813976Y-41319404D01*
%TO.C,R2*%
X78007380Y-49045833D02*
X77531190Y-48712500D01*
X78007380Y-48474404D02*
X77007380Y-48474404D01*
X77007380Y-48855357D01*
X77055000Y-48950595D01*
X77102619Y-48998214D01*
X77197857Y-49045833D01*
X77340714Y-49045833D01*
X77435952Y-48998214D01*
X77483571Y-48950595D01*
X77531190Y-48855357D01*
X77531190Y-48474404D01*
X77102619Y-49426785D02*
X77055000Y-49474404D01*
X77007380Y-49569642D01*
X77007380Y-49807738D01*
X77055000Y-49902976D01*
X77102619Y-49950595D01*
X77197857Y-49998214D01*
X77293095Y-49998214D01*
X77435952Y-49950595D01*
X78007380Y-49379166D01*
X78007380Y-49998214D01*
%TO.C,R1*%
X84822380Y-49045833D02*
X84346190Y-48712500D01*
X84822380Y-48474404D02*
X83822380Y-48474404D01*
X83822380Y-48855357D01*
X83870000Y-48950595D01*
X83917619Y-48998214D01*
X84012857Y-49045833D01*
X84155714Y-49045833D01*
X84250952Y-48998214D01*
X84298571Y-48950595D01*
X84346190Y-48855357D01*
X84346190Y-48474404D01*
X84822380Y-49998214D02*
X84822380Y-49426785D01*
X84822380Y-49712500D02*
X83822380Y-49712500D01*
X83965238Y-49617261D01*
X84060476Y-49522023D01*
X84108095Y-49426785D01*
%TO.C,SW41*%
X85992767Y-155745458D02*
X79893971Y-149646662D01*
X83229394Y-158508831D02*
X85992767Y-155745458D01*
X83196867Y-158541358D02*
X79593451Y-155002996D01*
X76903617Y-149419681D02*
X74114080Y-152209217D01*
X74107716Y-152215581D02*
X76660372Y-154768236D01*
X79608300Y-155023502D02*
G75*
G03*
X76680879Y-154754801I-1598061J-1329359D01*
G01*
X79893971Y-149646662D02*
G75*
G03*
X76960892Y-149377961I-1600890J-1332189D01*
G01*
%TO.C,SW3*%
X184187500Y-41554000D02*
X184187500Y-37646000D01*
X173287500Y-43554000D02*
X176897500Y-43554000D01*
X184187500Y-41600000D02*
X179137500Y-41646000D01*
X173287500Y-39600000D02*
X173287500Y-43545000D01*
X184187500Y-37646000D02*
X175562500Y-37646000D01*
X175562500Y-37646000D02*
G75*
G03*
X173298500Y-39530000I-190000J-2074000D01*
G01*
X179162500Y-41650001D02*
G75*
G03*
X176902501Y-43529999I-190001J-2069997D01*
G01*
%TO.C,D9*%
X191587500Y-60418750D02*
X191587500Y-61818750D01*
X191587500Y-61118750D02*
X192487500Y-60418750D01*
X192487500Y-61818750D02*
X191587500Y-61118750D01*
X192487500Y-60418750D02*
X192487500Y-61818750D01*
%TO.C,SW37*%
X155031250Y-131675000D02*
X155031250Y-135620000D01*
X155031250Y-135629000D02*
X158641250Y-135629000D01*
X165931250Y-129721000D02*
X157306250Y-129721000D01*
X165931250Y-133675000D02*
X160881250Y-133721000D01*
X165931250Y-133629000D02*
X165931250Y-129721000D01*
X157306250Y-129721000D02*
G75*
G03*
X155042250Y-131605000I-190000J-2074000D01*
G01*
X160906250Y-133725001D02*
G75*
G03*
X158646251Y-135604999I-190001J-2069997D01*
G01*
%TO.C,SW31*%
X184187500Y-113846000D02*
X175562500Y-113846000D01*
X184187500Y-117800000D02*
X179137500Y-117846000D01*
X173287500Y-119754000D02*
X176897500Y-119754000D01*
X184187500Y-117754000D02*
X184187500Y-113846000D01*
X173287500Y-115800000D02*
X173287500Y-119745000D01*
X175562500Y-113846000D02*
G75*
G03*
X173298500Y-115730000I-190000J-2074000D01*
G01*
X179162500Y-117850001D02*
G75*
G03*
X176902501Y-119729999I-190001J-2069997D01*
G01*
%TO.C,D12*%
X135337500Y-56262500D02*
X134437500Y-55562500D01*
X134437500Y-54862500D02*
X134437500Y-56262500D01*
X134437500Y-55562500D02*
X135337500Y-54862500D01*
X135337500Y-54862500D02*
X135337500Y-56262500D01*
%TO.C,D27*%
X119462500Y-113412500D02*
X118562500Y-112712500D01*
X118562500Y-112012500D02*
X118562500Y-113412500D01*
X119462500Y-112012500D02*
X119462500Y-113412500D01*
X118562500Y-112712500D02*
X119462500Y-112012500D01*
%TO.C,J3*%
X82593750Y-106268750D02*
X70593750Y-106268750D01*
X70593750Y-106268750D02*
X70593750Y-100268750D01*
X70593750Y-100268750D02*
X82593750Y-100268750D01*
X82593750Y-100268750D02*
X82593750Y-106268750D01*
%TO.C,D6*%
X119462500Y-54862500D02*
X119462500Y-56262500D01*
X118562500Y-54862500D02*
X118562500Y-56262500D01*
X119462500Y-56262500D02*
X118562500Y-55562500D01*
X118562500Y-55562500D02*
X119462500Y-54862500D01*
%TO.C,D10*%
X172537500Y-55562500D02*
X173437500Y-54862500D01*
X173437500Y-56262500D02*
X172537500Y-55562500D01*
X172537500Y-54862500D02*
X172537500Y-56262500D01*
X173437500Y-54862500D02*
X173437500Y-56262500D01*
%TO.C,D4*%
X154387500Y-48512500D02*
X154387500Y-49912500D01*
X154387500Y-49912500D02*
X153487500Y-49212500D01*
X153487500Y-48512500D02*
X153487500Y-49912500D01*
X153487500Y-49212500D02*
X154387500Y-48512500D01*
%TO.C,D16*%
X192487500Y-95343750D02*
X192487500Y-96743750D01*
X191587500Y-95343750D02*
X191587500Y-96743750D01*
X192487500Y-96743750D02*
X191587500Y-96043750D01*
X191587500Y-96043750D02*
X192487500Y-95343750D01*
%TO.C,SW13*%
X116137500Y-61825000D02*
X116137500Y-65770000D01*
X127037500Y-63779000D02*
X127037500Y-59871000D01*
X127037500Y-63825000D02*
X121987500Y-63871000D01*
X116137500Y-65779000D02*
X119747500Y-65779000D01*
X127037500Y-59871000D02*
X118412500Y-59871000D01*
X122012500Y-63875001D02*
G75*
G03*
X119752501Y-65754999I-190001J-2069997D01*
G01*
X118412500Y-59871000D02*
G75*
G03*
X116148500Y-61755000I-190000J-2074000D01*
G01*
%TO.C,SW1*%
X222287500Y-43202250D02*
X213662500Y-43202250D01*
X211387500Y-45156250D02*
X211387500Y-49101250D01*
X211387500Y-49110250D02*
X214997500Y-49110250D01*
X222287500Y-47156250D02*
X217237500Y-47202250D01*
X222287500Y-47110250D02*
X222287500Y-43202250D01*
X213662500Y-43202250D02*
G75*
G03*
X211398500Y-45086250I-190000J-2074000D01*
G01*
X217262500Y-47206251D02*
G75*
G03*
X215002501Y-49086249I-190001J-2069997D01*
G01*
%TO.C,J1*%
X99737500Y-77100000D02*
X99737500Y-75300000D01*
X106637500Y-77100000D02*
X104837500Y-77100000D01*
X106637500Y-75300000D02*
X106637500Y-77100000D01*
X104837500Y-75300000D02*
X106637500Y-75300000D01*
X101537500Y-77100000D02*
X99737500Y-77100000D01*
X102337500Y-77100000D02*
X102337500Y-75300000D01*
X99737500Y-75300000D02*
X101537500Y-75300000D01*
X104137500Y-77100000D02*
X102337500Y-77100000D01*
X104837500Y-77100000D02*
X104837500Y-75300000D01*
X104137500Y-75300000D02*
X104137500Y-77100000D01*
X101537500Y-75300000D02*
X101537500Y-77100000D01*
X102337500Y-75300000D02*
X104137500Y-75300000D01*
%TO.C,SW21*%
X107987500Y-78921000D02*
X99362500Y-78921000D01*
X107987500Y-82829000D02*
X107987500Y-78921000D01*
X97087500Y-84829000D02*
X100697500Y-84829000D01*
X107987500Y-82875000D02*
X102937500Y-82921000D01*
X97087500Y-80875000D02*
X97087500Y-84820000D01*
X102962500Y-82925001D02*
G75*
G03*
X100702501Y-84804999I-190001J-2069997D01*
G01*
X99362500Y-78921000D02*
G75*
G03*
X97098500Y-80805000I-190000J-2074000D01*
G01*
%TO.C,D20*%
X116175000Y-92962500D02*
X116175000Y-94362500D01*
X116175000Y-94362500D02*
X115275000Y-93662500D01*
X115275000Y-92962500D02*
X115275000Y-94362500D01*
X115275000Y-93662500D02*
X116175000Y-92962500D01*
%TO.C,D14*%
X96337500Y-58737500D02*
X97237500Y-58037500D01*
X96337500Y-58037500D02*
X96337500Y-59437500D01*
X97237500Y-58037500D02*
X97237500Y-59437500D01*
X97237500Y-59437500D02*
X96337500Y-58737500D01*
%TO.C,D3*%
X172537500Y-51687500D02*
X172537500Y-53087500D01*
X173437500Y-53087500D02*
X172537500Y-52387500D01*
X172537500Y-52387500D02*
X173437500Y-51687500D01*
X173437500Y-51687500D02*
X173437500Y-53087500D01*
%TO.C,D32*%
X153487500Y-125412500D02*
X154387500Y-124712500D01*
X154387500Y-124712500D02*
X154387500Y-126112500D01*
X153487500Y-124712500D02*
X153487500Y-126112500D01*
X154387500Y-126112500D02*
X153487500Y-125412500D01*
%TO.C,D8*%
X223225000Y-60418750D02*
X223225000Y-61818750D01*
X223225000Y-61118750D02*
X224125000Y-60418750D01*
X224125000Y-61818750D02*
X223225000Y-61118750D01*
X224125000Y-60418750D02*
X224125000Y-61818750D01*
%TO.C,D17*%
X172537500Y-90487500D02*
X173437500Y-89787500D01*
X173437500Y-89787500D02*
X173437500Y-91187500D01*
X173437500Y-91187500D02*
X172537500Y-90487500D01*
X172537500Y-89787500D02*
X172537500Y-91187500D01*
%TO.C,D23*%
X191587500Y-115093750D02*
X192487500Y-114393750D01*
X192487500Y-114393750D02*
X192487500Y-115793750D01*
X191587500Y-114393750D02*
X191587500Y-115793750D01*
X192487500Y-115793750D02*
X191587500Y-115093750D01*
%TO.C,SW4*%
X154237500Y-40379000D02*
X157847500Y-40379000D01*
X154237500Y-36425000D02*
X154237500Y-40370000D01*
X165137500Y-38379000D02*
X165137500Y-34471000D01*
X165137500Y-34471000D02*
X156512500Y-34471000D01*
X165137500Y-38425000D02*
X160087500Y-38471000D01*
X156512500Y-34471000D02*
G75*
G03*
X154248500Y-36355000I-190000J-2074000D01*
G01*
X160112500Y-38475001D02*
G75*
G03*
X157852501Y-40354999I-190001J-2069997D01*
G01*
%TO.C,D39*%
X116181250Y-134937500D02*
X117081250Y-134237500D01*
X117081250Y-134237500D02*
X117081250Y-135637500D01*
X116181250Y-134237500D02*
X116181250Y-135637500D01*
X117081250Y-135637500D02*
X116181250Y-134937500D01*
%TO.C,D29*%
X223337500Y-118268750D02*
X224237500Y-117568750D01*
X223337500Y-117568750D02*
X223337500Y-118968750D01*
X224237500Y-118968750D02*
X223337500Y-118268750D01*
X224237500Y-117568750D02*
X224237500Y-118968750D01*
%TO.C,SW33*%
X135187500Y-115800000D02*
X135187500Y-119745000D01*
X146087500Y-117754000D02*
X146087500Y-113846000D01*
X135187500Y-119754000D02*
X138797500Y-119754000D01*
X146087500Y-113846000D02*
X137462500Y-113846000D01*
X146087500Y-117800000D02*
X141037500Y-117846000D01*
X137462500Y-113846000D02*
G75*
G03*
X135198500Y-115730000I-190000J-2074000D01*
G01*
X141062500Y-117850001D02*
G75*
G03*
X138802501Y-119729999I-190001J-2069997D01*
G01*
%TO.C,SW14*%
X107987500Y-63779000D02*
X107987500Y-59871000D01*
X97087500Y-65779000D02*
X100697500Y-65779000D01*
X107987500Y-63825000D02*
X102937500Y-63871000D01*
X97087500Y-61825000D02*
X97087500Y-65770000D01*
X107987500Y-59871000D02*
X99362500Y-59871000D01*
X99362500Y-59871000D02*
G75*
G03*
X97098500Y-61755000I-190000J-2074000D01*
G01*
X102962500Y-63875001D02*
G75*
G03*
X100702501Y-65754999I-190001J-2069997D01*
G01*
%TO.C,D37*%
X155181250Y-129287500D02*
X154281250Y-128587500D01*
X154281250Y-128587500D02*
X155181250Y-127887500D01*
X155181250Y-127887500D02*
X155181250Y-129287500D01*
X154281250Y-127887500D02*
X154281250Y-129287500D01*
%TO.C,D35*%
X96337500Y-131062500D02*
X96337500Y-132462500D01*
X97237500Y-132462500D02*
X96337500Y-131762500D01*
X96337500Y-131762500D02*
X97237500Y-131062500D01*
X97237500Y-131062500D02*
X97237500Y-132462500D01*
%TO.C,SW17*%
X184187500Y-75746000D02*
X175562500Y-75746000D01*
X173287500Y-77700000D02*
X173287500Y-81645000D01*
X184187500Y-79700000D02*
X179137500Y-79746000D01*
X184187500Y-79654000D02*
X184187500Y-75746000D01*
X173287500Y-81654000D02*
X176897500Y-81654000D01*
X179162500Y-79750001D02*
G75*
G03*
X176902501Y-81629999I-190001J-2069997D01*
G01*
X175562500Y-75746000D02*
G75*
G03*
X173298500Y-77630000I-190000J-2074000D01*
G01*
%TO.C,SW40*%
X92434324Y-145819879D02*
X94101553Y-149395263D01*
X103138875Y-142984265D02*
X101487283Y-139442414D01*
X101487283Y-139442414D02*
X93670378Y-143087497D01*
X94105357Y-149403420D02*
X97377128Y-147877768D01*
X103158315Y-143025955D02*
X98600901Y-145201868D01*
X93670378Y-143087496D02*
G75*
G03*
X92414710Y-145751788I704312J-1959980D01*
G01*
X98625250Y-145194928D02*
G75*
G03*
X97371517Y-147853902I702619J-1956353D01*
G01*
%TO.C,D15*%
X224237500Y-95343750D02*
X224237500Y-96743750D01*
X223337500Y-96043750D02*
X224237500Y-95343750D01*
X224237500Y-96743750D02*
X223337500Y-96043750D01*
X223337500Y-95343750D02*
X223337500Y-96743750D01*
%TO.C,SW20*%
X127037500Y-82829000D02*
X127037500Y-78921000D01*
X116137500Y-80875000D02*
X116137500Y-84820000D01*
X116137500Y-84829000D02*
X119747500Y-84829000D01*
X127037500Y-78921000D02*
X118412500Y-78921000D01*
X127037500Y-82875000D02*
X121987500Y-82921000D01*
X118412500Y-78921000D02*
G75*
G03*
X116148500Y-80805000I-190000J-2074000D01*
G01*
X122012500Y-82925001D02*
G75*
G03*
X119752501Y-84804999I-190001J-2069997D01*
G01*
%TO.C,SW32*%
X154237500Y-116579000D02*
X157847500Y-116579000D01*
X154237500Y-112625000D02*
X154237500Y-116570000D01*
X165137500Y-114625000D02*
X160087500Y-114671000D01*
X165137500Y-114579000D02*
X165137500Y-110671000D01*
X165137500Y-110671000D02*
X156512500Y-110671000D01*
X156512500Y-110671000D02*
G75*
G03*
X154248500Y-112555000I-190000J-2074000D01*
G01*
X160112500Y-114675001D02*
G75*
G03*
X157852501Y-116554999I-190001J-2069997D01*
G01*
%TO.C,SW11*%
X165137500Y-57475000D02*
X160087500Y-57521000D01*
X154237500Y-59429000D02*
X157847500Y-59429000D01*
X165137500Y-57429000D02*
X165137500Y-53521000D01*
X154237500Y-55475000D02*
X154237500Y-59420000D01*
X165137500Y-53521000D02*
X156512500Y-53521000D01*
X156512500Y-53521000D02*
G75*
G03*
X154248500Y-55405000I-190000J-2074000D01*
G01*
X160112500Y-57525001D02*
G75*
G03*
X157852501Y-59404999I-190001J-2069997D01*
G01*
%TO.C,SW22*%
X222287500Y-104260250D02*
X222287500Y-100352250D01*
X211387500Y-106260250D02*
X214997500Y-106260250D01*
X222287500Y-104306250D02*
X217237500Y-104352250D01*
X222287500Y-100352250D02*
X213662500Y-100352250D01*
X211387500Y-102306250D02*
X211387500Y-106251250D01*
X213662500Y-100352250D02*
G75*
G03*
X211398500Y-102236250I-190000J-2074000D01*
G01*
X217262500Y-104356251D02*
G75*
G03*
X215002501Y-106236249I-190001J-2069997D01*
G01*
%TO.C,D42*%
X89300000Y-118175000D02*
X88400000Y-117475000D01*
X88400000Y-117475000D02*
X89300000Y-116775000D01*
X88400000Y-116775000D02*
X88400000Y-118175000D01*
X89300000Y-116775000D02*
X89300000Y-118175000D01*
%TO.C,RSW1*%
X70531250Y-90662500D02*
X71131250Y-90662500D01*
X74031250Y-90662500D02*
X74031250Y-96562500D01*
X74031250Y-96662500D02*
X73331250Y-96662500D01*
X74031250Y-90662500D02*
X73331250Y-90662500D01*
X70531250Y-96662500D02*
X70531250Y-90662500D01*
X74031250Y-90662500D02*
X74031250Y-96662500D01*
X70531250Y-96662500D02*
X71131250Y-96662500D01*
%TO.C,D25*%
X153487500Y-105662500D02*
X153487500Y-107062500D01*
X154387500Y-107062500D02*
X153487500Y-106362500D01*
X153487500Y-106362500D02*
X154387500Y-105662500D01*
X154387500Y-105662500D02*
X154387500Y-107062500D01*
%TO.C,SW9*%
X203237500Y-66160250D02*
X203237500Y-62252250D01*
X203237500Y-62252250D02*
X194612500Y-62252250D01*
X192337500Y-64206250D02*
X192337500Y-68151250D01*
X203237500Y-66206250D02*
X198187500Y-66252250D01*
X192337500Y-68160250D02*
X195947500Y-68160250D01*
X198212500Y-66256251D02*
G75*
G03*
X195952501Y-68136249I-190001J-2069997D01*
G01*
X194612500Y-62252250D02*
G75*
G03*
X192348500Y-64136250I-190000J-2074000D01*
G01*
%TO.C,D40*%
X106762500Y-137225000D02*
X105862500Y-136525000D01*
X106762500Y-135825000D02*
X106762500Y-137225000D01*
X105862500Y-136525000D02*
X106762500Y-135825000D01*
X105862500Y-135825000D02*
X105862500Y-137225000D01*
%TO.C,D41*%
X93010171Y-137263972D02*
X92020222Y-138253921D01*
X93646567Y-137900368D02*
X92656618Y-138890317D01*
X92656618Y-138890317D02*
X92515197Y-137758947D01*
X92515197Y-137758947D02*
X93646567Y-137900368D01*
%TO.C,D7*%
X97237500Y-54862500D02*
X97237500Y-56262500D01*
X96337500Y-55562500D02*
X97237500Y-54862500D01*
X97237500Y-56262500D02*
X96337500Y-55562500D01*
X96337500Y-54862500D02*
X96337500Y-56262500D01*
%TO.C,D38*%
X135231250Y-131062500D02*
X135231250Y-132462500D01*
X135231250Y-131762500D02*
X136131250Y-131062500D01*
X136131250Y-131062500D02*
X136131250Y-132462500D01*
X136131250Y-132462500D02*
X135231250Y-131762500D01*
%TO.C,D13*%
X118562500Y-58037500D02*
X118562500Y-59437500D01*
X118562500Y-58737500D02*
X119462500Y-58037500D01*
X119462500Y-59437500D02*
X118562500Y-58737500D01*
X119462500Y-58037500D02*
X119462500Y-59437500D01*
%TO.C,SW15*%
X222287500Y-85210250D02*
X222287500Y-81302250D01*
X222287500Y-81302250D02*
X213662500Y-81302250D01*
X211387500Y-87210250D02*
X214997500Y-87210250D01*
X211387500Y-83256250D02*
X211387500Y-87201250D01*
X222287500Y-85256250D02*
X217237500Y-85302250D01*
X217262500Y-85306251D02*
G75*
G03*
X215002501Y-87186249I-190001J-2069997D01*
G01*
X213662500Y-81302250D02*
G75*
G03*
X211398500Y-83186250I-190000J-2074000D01*
G01*
%TO.C,D11*%
X154387500Y-51687500D02*
X154387500Y-53087500D01*
X153487500Y-51687500D02*
X153487500Y-53087500D01*
X153487500Y-52387500D02*
X154387500Y-51687500D01*
X154387500Y-53087500D02*
X153487500Y-52387500D01*
%TO.C,D31*%
X172425000Y-128587500D02*
X173325000Y-127887500D01*
X173325000Y-127887500D02*
X173325000Y-129287500D01*
X172425000Y-127887500D02*
X172425000Y-129287500D01*
X173325000Y-129287500D02*
X172425000Y-128587500D01*
%TO.C,SW19*%
X146087500Y-79700000D02*
X141037500Y-79746000D01*
X146087500Y-75746000D02*
X137462500Y-75746000D01*
X135187500Y-81654000D02*
X138797500Y-81654000D01*
X146087500Y-79654000D02*
X146087500Y-75746000D01*
X135187500Y-77700000D02*
X135187500Y-81645000D01*
X137462500Y-75746000D02*
G75*
G03*
X135198500Y-77630000I-190000J-2074000D01*
G01*
X141062500Y-79750001D02*
G75*
G03*
X138802501Y-81629999I-190001J-2069997D01*
G01*
%TO.C,SW16*%
X203237500Y-81302250D02*
X194612500Y-81302250D01*
X192337500Y-83256250D02*
X192337500Y-87201250D01*
X203237500Y-85210250D02*
X203237500Y-81302250D01*
X192337500Y-87210250D02*
X195947500Y-87210250D01*
X203237500Y-85256250D02*
X198187500Y-85302250D01*
X194612500Y-81302250D02*
G75*
G03*
X192348500Y-83186250I-190000J-2074000D01*
G01*
X198212500Y-85306251D02*
G75*
G03*
X195952501Y-87186249I-190001J-2069997D01*
G01*
%TO.C,SW23*%
X203237500Y-100352250D02*
X194612500Y-100352250D01*
X192337500Y-106260250D02*
X195947500Y-106260250D01*
X203237500Y-104306250D02*
X198187500Y-104352250D01*
X203237500Y-104260250D02*
X203237500Y-100352250D01*
X192337500Y-102306250D02*
X192337500Y-106251250D01*
X194612500Y-100352250D02*
G75*
G03*
X192348500Y-102236250I-190000J-2074000D01*
G01*
X198212500Y-104356251D02*
G75*
G03*
X195952501Y-106236249I-190001J-2069997D01*
G01*
%TO.C,D36*%
X172537500Y-131062500D02*
X172537500Y-132462500D01*
X173437500Y-132462500D02*
X172537500Y-131762500D01*
X173437500Y-131062500D02*
X173437500Y-132462500D01*
X172537500Y-131762500D02*
X173437500Y-131062500D01*
%TO.C,SW39*%
X116931250Y-141979000D02*
X120541250Y-141979000D01*
X127831250Y-136071000D02*
X119206250Y-136071000D01*
X127831250Y-140025000D02*
X122781250Y-140071000D01*
X127831250Y-139979000D02*
X127831250Y-136071000D01*
X116931250Y-138025000D02*
X116931250Y-141970000D01*
X122806250Y-140075001D02*
G75*
G03*
X120546251Y-141954999I-190001J-2069997D01*
G01*
X119206250Y-136071000D02*
G75*
G03*
X116942250Y-137955000I-190000J-2074000D01*
G01*
%TO.C,SW36*%
X184187500Y-136804000D02*
X184187500Y-132896000D01*
X173287500Y-138804000D02*
X176897500Y-138804000D01*
X184187500Y-136850000D02*
X179137500Y-136896000D01*
X173287500Y-134850000D02*
X173287500Y-138795000D01*
X184187500Y-132896000D02*
X175562500Y-132896000D01*
X175562500Y-132896000D02*
G75*
G03*
X173298500Y-134780000I-190000J-2074000D01*
G01*
X179162500Y-136900001D02*
G75*
G03*
X176902501Y-138779999I-190001J-2069997D01*
G01*
%TO.C,SW18*%
X165137500Y-76479000D02*
X165137500Y-72571000D01*
X154237500Y-78479000D02*
X157847500Y-78479000D01*
X154237500Y-74525000D02*
X154237500Y-78470000D01*
X165137500Y-76525000D02*
X160087500Y-76571000D01*
X165137500Y-72571000D02*
X156512500Y-72571000D01*
X160112500Y-76575001D02*
G75*
G03*
X157852501Y-78454999I-190001J-2069997D01*
G01*
X156512500Y-72571000D02*
G75*
G03*
X154248500Y-74455000I-190000J-2074000D01*
G01*
%TO.C,D19*%
X134437500Y-89787500D02*
X134437500Y-91187500D01*
X135337500Y-91187500D02*
X134437500Y-90487500D01*
X135337500Y-89787500D02*
X135337500Y-91187500D01*
X134437500Y-90487500D02*
X135337500Y-89787500D01*
%TO.C,SW24*%
X184187500Y-98704000D02*
X184187500Y-94796000D01*
X184187500Y-98750000D02*
X179137500Y-98796000D01*
X184187500Y-94796000D02*
X175562500Y-94796000D01*
X173287500Y-96750000D02*
X173287500Y-100695000D01*
X173287500Y-100704000D02*
X176897500Y-100704000D01*
X175562500Y-94796000D02*
G75*
G03*
X173298500Y-96680000I-190000J-2074000D01*
G01*
X179162500Y-98800001D02*
G75*
G03*
X176902501Y-100679999I-190001J-2069997D01*
G01*
%TO.C,SW28*%
X107987500Y-97971000D02*
X99362500Y-97971000D01*
X107987500Y-101879000D02*
X107987500Y-97971000D01*
X97087500Y-103879000D02*
X100697500Y-103879000D01*
X107987500Y-101925000D02*
X102937500Y-101971000D01*
X97087500Y-99925000D02*
X97087500Y-103870000D01*
X99362500Y-97971000D02*
G75*
G03*
X97098500Y-99855000I-190000J-2074000D01*
G01*
X102962500Y-101975001D02*
G75*
G03*
X100702501Y-103854999I-190001J-2069997D01*
G01*
%TO.C,SW5*%
X146087500Y-41554000D02*
X146087500Y-37646000D01*
X146087500Y-37646000D02*
X137462500Y-37646000D01*
X135187500Y-43554000D02*
X138797500Y-43554000D01*
X146087500Y-41600000D02*
X141037500Y-41646000D01*
X135187500Y-39600000D02*
X135187500Y-43545000D01*
X141062500Y-41650001D02*
G75*
G03*
X138802501Y-43529999I-190001J-2069997D01*
G01*
X137462500Y-37646000D02*
G75*
G03*
X135198500Y-39530000I-190000J-2074000D01*
G01*
%TO.C,SW35*%
X107987500Y-120929000D02*
X107987500Y-117021000D01*
X107987500Y-117021000D02*
X99362500Y-117021000D01*
X97087500Y-122929000D02*
X100697500Y-122929000D01*
X107987500Y-120975000D02*
X102937500Y-121021000D01*
X97087500Y-118975000D02*
X97087500Y-122920000D01*
X102962500Y-121025001D02*
G75*
G03*
X100702501Y-122904999I-190001J-2069997D01*
G01*
X99362500Y-117021000D02*
G75*
G03*
X97098500Y-118905000I-190000J-2074000D01*
G01*
D11*
%TO.C,SW42*%
X85475000Y-123318750D02*
X85475000Y-125918750D01*
X79375000Y-124118750D02*
X79375000Y-125118750D01*
X77375000Y-118718750D02*
X73275000Y-118718750D01*
X85475000Y-130518750D02*
X81375000Y-130518750D01*
X73275000Y-118718750D02*
X73275000Y-130518750D01*
X78875000Y-124618750D02*
X79875000Y-124618750D01*
X85475000Y-128118750D02*
X85475000Y-130518750D01*
X81375000Y-118718750D02*
X85475000Y-118718750D01*
X85475000Y-118718750D02*
X85475000Y-121118750D01*
X77375000Y-130518750D02*
X73275000Y-130518750D01*
X82375000Y-124618750D02*
G75*
G03*
X82375000Y-124618750I-3000000J0D01*
G01*
D10*
%TO.C,D30*%
X192487500Y-118968750D02*
X191587500Y-118268750D01*
X192487500Y-117568750D02*
X192487500Y-118968750D01*
X191587500Y-118268750D02*
X192487500Y-117568750D01*
X191587500Y-117568750D02*
X191587500Y-118968750D01*
%TO.C,D5*%
X135337500Y-53087500D02*
X134437500Y-52387500D01*
X134437500Y-52387500D02*
X135337500Y-51687500D01*
X134437500Y-51687500D02*
X134437500Y-53087500D01*
X135337500Y-51687500D02*
X135337500Y-53087500D01*
%TO.C,D21*%
X96337500Y-93662500D02*
X97237500Y-92962500D01*
X97237500Y-94362500D02*
X96337500Y-93662500D01*
X96337500Y-92962500D02*
X96337500Y-94362500D01*
X97237500Y-92962500D02*
X97237500Y-94362500D01*
%TO.C,SW30*%
X192337500Y-125310250D02*
X195947500Y-125310250D01*
X192337500Y-121356250D02*
X192337500Y-125301250D01*
X203237500Y-119402250D02*
X194612500Y-119402250D01*
X203237500Y-123310250D02*
X203237500Y-119402250D01*
X203237500Y-123356250D02*
X198187500Y-123402250D01*
X194612500Y-119402250D02*
G75*
G03*
X192348500Y-121286250I-190000J-2074000D01*
G01*
X198212500Y-123406251D02*
G75*
G03*
X195952501Y-125286249I-190001J-2069997D01*
G01*
%TO.C,D22*%
X223337500Y-114393750D02*
X223337500Y-115793750D01*
X224237500Y-114393750D02*
X224237500Y-115793750D01*
X223337500Y-115093750D02*
X224237500Y-114393750D01*
X224237500Y-115793750D02*
X223337500Y-115093750D01*
%TO.C,D1*%
X223337500Y-57243750D02*
X223337500Y-58643750D01*
X224237500Y-57243750D02*
X224237500Y-58643750D01*
X223337500Y-57943750D02*
X224237500Y-57243750D01*
X224237500Y-58643750D02*
X223337500Y-57943750D01*
%TO.C,D33*%
X134437500Y-127887500D02*
X134437500Y-129287500D01*
X135337500Y-127887500D02*
X135337500Y-129287500D01*
X135337500Y-129287500D02*
X134437500Y-128587500D01*
X134437500Y-128587500D02*
X135337500Y-127887500D01*
%TO.C,SW29*%
X222287500Y-123310250D02*
X222287500Y-119402250D01*
X211387500Y-121356250D02*
X211387500Y-125301250D01*
X222287500Y-123356250D02*
X217237500Y-123402250D01*
X211387500Y-125310250D02*
X214997500Y-125310250D01*
X222287500Y-119402250D02*
X213662500Y-119402250D01*
X217262500Y-123406251D02*
G75*
G03*
X215002501Y-125286249I-190001J-2069997D01*
G01*
X213662500Y-119402250D02*
G75*
G03*
X211398500Y-121286250I-190000J-2074000D01*
G01*
D12*
%TO.C,U1*%
X74612500Y-39687500D02*
X72072500Y-39687500D01*
X89852500Y-34607500D02*
X72072500Y-34607500D01*
X72072500Y-67627500D02*
X89852500Y-67627500D01*
X72072500Y-34607500D02*
X72072500Y-67627500D01*
X74612500Y-37147500D02*
X72072500Y-37147500D01*
X89852500Y-67627500D02*
X89852500Y-34607500D01*
X74612500Y-37147500D02*
X74612500Y-39687500D01*
D10*
X86807135Y-43036530D02*
X86807135Y-43336530D01*
X86807135Y-43336530D02*
X86907135Y-43336530D01*
X86907135Y-43336530D02*
X86907135Y-43036530D01*
X86907135Y-43036530D02*
X86807135Y-43036530D01*
G36*
X86907135Y-43336530D02*
G01*
X86807135Y-43336530D01*
X86807135Y-43036530D01*
X86907135Y-43036530D01*
X86907135Y-43336530D01*
G37*
X86907135Y-43336530D02*
X86807135Y-43336530D01*
X86807135Y-43036530D01*
X86907135Y-43036530D01*
X86907135Y-43336530D01*
X87207135Y-43036530D02*
X87207135Y-43836530D01*
X87207135Y-43836530D02*
X87307135Y-43836530D01*
X87307135Y-43836530D02*
X87307135Y-43036530D01*
X87307135Y-43036530D02*
X87207135Y-43036530D01*
G36*
X87307135Y-43836530D02*
G01*
X87207135Y-43836530D01*
X87207135Y-43036530D01*
X87307135Y-43036530D01*
X87307135Y-43836530D01*
G37*
X87307135Y-43836530D02*
X87207135Y-43836530D01*
X87207135Y-43036530D01*
X87307135Y-43036530D01*
X87307135Y-43836530D01*
X86807135Y-43636530D02*
X86807135Y-43836530D01*
X86807135Y-43836530D02*
X86907135Y-43836530D01*
X86907135Y-43836530D02*
X86907135Y-43636530D01*
X86907135Y-43636530D02*
X86807135Y-43636530D01*
G36*
X86907135Y-43836530D02*
G01*
X86807135Y-43836530D01*
X86807135Y-43636530D01*
X86907135Y-43636530D01*
X86907135Y-43836530D01*
G37*
X86907135Y-43836530D02*
X86807135Y-43836530D01*
X86807135Y-43636530D01*
X86907135Y-43636530D01*
X86907135Y-43836530D01*
X86807135Y-43036530D02*
X86807135Y-43136530D01*
X86807135Y-43136530D02*
X87307135Y-43136530D01*
X87307135Y-43136530D02*
X87307135Y-43036530D01*
X87307135Y-43036530D02*
X86807135Y-43036530D01*
G36*
X87307135Y-43136530D02*
G01*
X86807135Y-43136530D01*
X86807135Y-43036530D01*
X87307135Y-43036530D01*
X87307135Y-43136530D01*
G37*
X87307135Y-43136530D02*
X86807135Y-43136530D01*
X86807135Y-43036530D01*
X87307135Y-43036530D01*
X87307135Y-43136530D01*
X87007135Y-43436530D02*
X87007135Y-43536530D01*
X87007135Y-43536530D02*
X87107135Y-43536530D01*
X87107135Y-43536530D02*
X87107135Y-43436530D01*
X87107135Y-43436530D02*
X87007135Y-43436530D01*
G36*
X87107135Y-43536530D02*
G01*
X87007135Y-43536530D01*
X87007135Y-43436530D01*
X87107135Y-43436530D01*
X87107135Y-43536530D01*
G37*
X87107135Y-43536530D02*
X87007135Y-43536530D01*
X87007135Y-43436530D01*
X87107135Y-43436530D01*
X87107135Y-43536530D01*
%TO.C,SW10*%
X184187500Y-60604000D02*
X184187500Y-56696000D01*
X184187500Y-60650000D02*
X179137500Y-60696000D01*
X173287500Y-58650000D02*
X173287500Y-62595000D01*
X173287500Y-62604000D02*
X176897500Y-62604000D01*
X184187500Y-56696000D02*
X175562500Y-56696000D01*
X179162500Y-60700001D02*
G75*
G03*
X176902501Y-62579999I-190001J-2069997D01*
G01*
X175562500Y-56696000D02*
G75*
G03*
X173298500Y-58580000I-190000J-2074000D01*
G01*
%TO.C,SW12*%
X135187500Y-62604000D02*
X138797500Y-62604000D01*
X146087500Y-60604000D02*
X146087500Y-56696000D01*
X146087500Y-56696000D02*
X137462500Y-56696000D01*
X135187500Y-58650000D02*
X135187500Y-62595000D01*
X146087500Y-60650000D02*
X141037500Y-60696000D01*
X137462500Y-56696000D02*
G75*
G03*
X135198500Y-58580000I-190000J-2074000D01*
G01*
X141062500Y-60700001D02*
G75*
G03*
X138802501Y-62579999I-190001J-2069997D01*
G01*
%TO.C,SW2*%
X192337500Y-49110250D02*
X195947500Y-49110250D01*
X203237500Y-47110250D02*
X203237500Y-43202250D01*
X203237500Y-43202250D02*
X194612500Y-43202250D01*
X203237500Y-47156250D02*
X198187500Y-47202250D01*
X192337500Y-45156250D02*
X192337500Y-49101250D01*
X198212500Y-47206251D02*
G75*
G03*
X195952501Y-49086249I-190001J-2069997D01*
G01*
X194612500Y-43202250D02*
G75*
G03*
X192348500Y-45086250I-190000J-2074000D01*
G01*
%TO.C,SW8*%
X211387500Y-64206250D02*
X211387500Y-68151250D01*
X222287500Y-66206250D02*
X217237500Y-66252250D01*
X222287500Y-66160250D02*
X222287500Y-62252250D01*
X211387500Y-68160250D02*
X214997500Y-68160250D01*
X222287500Y-62252250D02*
X213662500Y-62252250D01*
X217262500Y-66256251D02*
G75*
G03*
X215002501Y-68136249I-190001J-2069997D01*
G01*
X213662500Y-62252250D02*
G75*
G03*
X211398500Y-64136250I-190000J-2074000D01*
G01*
%TO.C,D2*%
X191587500Y-57243750D02*
X191587500Y-58643750D01*
X192487500Y-58643750D02*
X191587500Y-57943750D01*
X192487500Y-57243750D02*
X192487500Y-58643750D01*
X191587500Y-57943750D02*
X192487500Y-57243750D01*
%TO.C,SW38*%
X146881250Y-136850000D02*
X141831250Y-136896000D01*
X135981250Y-138804000D02*
X139591250Y-138804000D01*
X146881250Y-132896000D02*
X138256250Y-132896000D01*
X135981250Y-134850000D02*
X135981250Y-138795000D01*
X146881250Y-136804000D02*
X146881250Y-132896000D01*
X141856250Y-136900001D02*
G75*
G03*
X139596251Y-138779999I-190001J-2069997D01*
G01*
X138256250Y-132896000D02*
G75*
G03*
X135992250Y-134780000I-190000J-2074000D01*
G01*
%TO.C,D26*%
X134437500Y-108837500D02*
X134437500Y-110237500D01*
X135337500Y-108837500D02*
X135337500Y-110237500D01*
X135337500Y-110237500D02*
X134437500Y-109537500D01*
X134437500Y-109537500D02*
X135337500Y-108837500D01*
%TO.C,D24*%
X172425000Y-108837500D02*
X172425000Y-110237500D01*
X172425000Y-109537500D02*
X173325000Y-108837500D01*
X173325000Y-108837500D02*
X173325000Y-110237500D01*
X173325000Y-110237500D02*
X172425000Y-109537500D01*
%TO.C,D28*%
X97237500Y-113412500D02*
X96337500Y-112712500D01*
X96337500Y-112012500D02*
X96337500Y-113412500D01*
X97237500Y-112012500D02*
X97237500Y-113412500D01*
X96337500Y-112712500D02*
X97237500Y-112012500D01*
%TO.C,D34*%
X116287500Y-131062500D02*
X116287500Y-132462500D01*
X115387500Y-131762500D02*
X116287500Y-131062500D01*
X116287500Y-132462500D02*
X115387500Y-131762500D01*
X115387500Y-131062500D02*
X115387500Y-132462500D01*
%TO.C,SW6*%
X127037500Y-40821000D02*
X118412500Y-40821000D01*
X127037500Y-44729000D02*
X127037500Y-40821000D01*
X116137500Y-42775000D02*
X116137500Y-46720000D01*
X116137500Y-46729000D02*
X119747500Y-46729000D01*
X127037500Y-44775000D02*
X121987500Y-44821000D01*
X118412500Y-40821000D02*
G75*
G03*
X116148500Y-42705000I-190000J-2074000D01*
G01*
X122012500Y-44825001D02*
G75*
G03*
X119752501Y-46704999I-190001J-2069997D01*
G01*
%TO.C,SW34*%
X116137500Y-122929000D02*
X119747500Y-122929000D01*
X127037500Y-120929000D02*
X127037500Y-117021000D01*
X127037500Y-120975000D02*
X121987500Y-121021000D01*
X116137500Y-118975000D02*
X116137500Y-122920000D01*
X127037500Y-117021000D02*
X118412500Y-117021000D01*
X122012500Y-121025001D02*
G75*
G03*
X119752501Y-122904999I-190001J-2069997D01*
G01*
X118412500Y-117021000D02*
G75*
G03*
X116148500Y-118905000I-190000J-2074000D01*
G01*
%TO.C,J2*%
X75882500Y-79057500D02*
X75882500Y-76517500D01*
X86042500Y-76517500D02*
X86042500Y-79057500D01*
X86042500Y-79057500D02*
X75882500Y-79057500D01*
X75882500Y-76517500D02*
X86042500Y-76517500D01*
%TO.C,SW7*%
X107987500Y-44775000D02*
X102937500Y-44821000D01*
X97087500Y-42775000D02*
X97087500Y-46720000D01*
X107987500Y-40821000D02*
X99362500Y-40821000D01*
X97087500Y-46729000D02*
X100697500Y-46729000D01*
X107987500Y-44729000D02*
X107987500Y-40821000D01*
X102962500Y-44825001D02*
G75*
G03*
X100702501Y-46704999I-190001J-2069997D01*
G01*
X99362500Y-40821000D02*
G75*
G03*
X97098500Y-42705000I-190000J-2074000D01*
G01*
%TO.C,D18*%
X154387500Y-86612500D02*
X154387500Y-88012500D01*
X153487500Y-87312500D02*
X154387500Y-86612500D01*
X154387500Y-88012500D02*
X153487500Y-87312500D01*
X153487500Y-86612500D02*
X153487500Y-88012500D01*
%TO.C,SW25*%
X154237500Y-93575000D02*
X154237500Y-97520000D01*
X165137500Y-95575000D02*
X160087500Y-95621000D01*
X154237500Y-97529000D02*
X157847500Y-97529000D01*
X165137500Y-91621000D02*
X156512500Y-91621000D01*
X165137500Y-95529000D02*
X165137500Y-91621000D01*
X156512500Y-91621000D02*
G75*
G03*
X154248500Y-93505000I-190000J-2074000D01*
G01*
X160112500Y-95625001D02*
G75*
G03*
X157852501Y-97504999I-190001J-2069997D01*
G01*
%TO.C,SW26*%
X146087500Y-94796000D02*
X137462500Y-94796000D01*
X146087500Y-98750000D02*
X141037500Y-98796000D01*
X146087500Y-98704000D02*
X146087500Y-94796000D01*
X135187500Y-100704000D02*
X138797500Y-100704000D01*
X135187500Y-96750000D02*
X135187500Y-100695000D01*
X137462500Y-94796000D02*
G75*
G03*
X135198500Y-96680000I-190000J-2074000D01*
G01*
X141062500Y-98800001D02*
G75*
G03*
X138802501Y-100679999I-190001J-2069997D01*
G01*
%TO.C,SW27*%
X127037500Y-97971000D02*
X118412500Y-97971000D01*
X127037500Y-101925000D02*
X121987500Y-101971000D01*
X116137500Y-99925000D02*
X116137500Y-103870000D01*
X116137500Y-103879000D02*
X119747500Y-103879000D01*
X127037500Y-101879000D02*
X127037500Y-97971000D01*
X122012500Y-101975001D02*
G75*
G03*
X119752501Y-103854999I-190001J-2069997D01*
G01*
X118412500Y-97971000D02*
G75*
G03*
X116148500Y-99855000I-190000J-2074000D01*
G01*
D11*
%TO.C,R2*%
X80285000Y-48610436D02*
X80285000Y-49814564D01*
X78465000Y-48610436D02*
X78465000Y-49814564D01*
D10*
%TO.C,JP7*%
X78486000Y-72675750D02*
X78486000Y-74961750D01*
X78486000Y-74961750D02*
X80264000Y-74961750D01*
X80264000Y-72675750D02*
X78486000Y-72675750D01*
X80264000Y-74961750D02*
X80264000Y-72675750D01*
%TO.C,JP8*%
X77882750Y-74961750D02*
X77882750Y-72675750D01*
X77882750Y-72675750D02*
X76104750Y-72675750D01*
X76104750Y-72675750D02*
X76104750Y-74961750D01*
X76104750Y-74961750D02*
X77882750Y-74961750D01*
D11*
%TO.C,R1*%
X83460000Y-49814564D02*
X83460000Y-48610436D01*
X81640000Y-49814564D02*
X81640000Y-48610436D01*
D10*
%TO.C,JP5*%
X85820250Y-74961750D02*
X85820250Y-72675750D01*
X85820250Y-72675750D02*
X84042250Y-72675750D01*
X84042250Y-74961750D02*
X85820250Y-74961750D01*
X84042250Y-72675750D02*
X84042250Y-74961750D01*
%TO.C,JP6*%
X81661000Y-74961750D02*
X83439000Y-74961750D01*
X83439000Y-74961750D02*
X83439000Y-72675750D01*
X83439000Y-72675750D02*
X81661000Y-72675750D01*
X81661000Y-72675750D02*
X81661000Y-74961750D01*
%TD*%
D13*
%TO.C,U1*%
X73342500Y-38417500D03*
D14*
X73342500Y-40957500D03*
X73342500Y-43497500D03*
X73342500Y-46037500D03*
X73342500Y-48577500D03*
X73342500Y-51117500D03*
X73342500Y-53657500D03*
X73342500Y-56197500D03*
X73342500Y-58737500D03*
X73342500Y-61277500D03*
X73342500Y-63817500D03*
X73571100Y-66357500D03*
X88582500Y-66357500D03*
X88582500Y-63817500D03*
X88582500Y-61277500D03*
X88582500Y-58737500D03*
X88582500Y-56197500D03*
X88582500Y-53657500D03*
X88582500Y-51117500D03*
X88582500Y-48577500D03*
X88582500Y-46037500D03*
X88582500Y-43497500D03*
X88582500Y-40957500D03*
X88582500Y-38417500D03*
X75882500Y-66357500D03*
X78422500Y-66357500D03*
X80962500Y-66357500D03*
X83502500Y-66357500D03*
X86042500Y-66357500D03*
%TD*%
M02*
