%TF.GenerationSoftware,KiCad,Pcbnew,(6.0.1)*%
%TF.CreationDate,2022-02-14T18:22:42+08:00*%
%TF.ProjectId,Sofle_Extended,536f666c-655f-4457-9874-656e6465642e,rev?*%
%TF.SameCoordinates,Original*%
%TF.FileFunction,Legend,Top*%
%TF.FilePolarity,Positive*%
%FSLAX46Y46*%
G04 Gerber Fmt 4.6, Leading zero omitted, Abs format (unit mm)*
G04 Created by KiCad (PCBNEW (6.0.1)) date 2022-02-14 18:22:42*
%MOMM*%
%LPD*%
G01*
G04 APERTURE LIST*
%ADD10C,0.150000*%
%ADD11C,0.120000*%
%ADD12C,0.381000*%
%ADD13C,1.200000*%
%ADD14O,2.500000X1.700000*%
%ADD15R,1.752600X1.752600*%
%ADD16C,1.752600*%
%ADD17C,1.397000*%
G04 APERTURE END LIST*
D10*
%TO.C,J3*%
X76496130Y-104030654D02*
X76496130Y-103459226D01*
X77496130Y-103744940D02*
X76496130Y-103744940D01*
X77496130Y-102554464D02*
X77019940Y-102887797D01*
X77496130Y-103125892D02*
X76496130Y-103125892D01*
X76496130Y-102744940D01*
X76543750Y-102649702D01*
X76591369Y-102602083D01*
X76686607Y-102554464D01*
X76829464Y-102554464D01*
X76924702Y-102602083D01*
X76972321Y-102649702D01*
X77019940Y-102744940D01*
X77019940Y-103125892D01*
X77496130Y-101554464D02*
X77019940Y-101887797D01*
X77496130Y-102125892D02*
X76496130Y-102125892D01*
X76496130Y-101744940D01*
X76543750Y-101649702D01*
X76591369Y-101602083D01*
X76686607Y-101554464D01*
X76829464Y-101554464D01*
X76924702Y-101602083D01*
X76972321Y-101649702D01*
X77019940Y-101744940D01*
X77019940Y-102125892D01*
X77448511Y-101173511D02*
X77496130Y-101030654D01*
X77496130Y-100792559D01*
X77448511Y-100697321D01*
X77400892Y-100649702D01*
X77305654Y-100602083D01*
X77210416Y-100602083D01*
X77115178Y-100649702D01*
X77067559Y-100697321D01*
X77019940Y-100792559D01*
X76972321Y-100983035D01*
X76924702Y-101078273D01*
X76877083Y-101125892D01*
X76781845Y-101173511D01*
X76686607Y-101173511D01*
X76591369Y-101125892D01*
X76543750Y-101078273D01*
X76496130Y-100983035D01*
X76496130Y-100744940D01*
X76543750Y-100602083D01*
%TO.C,J1*%
X100237500Y-74709523D02*
X100199404Y-74785714D01*
X100199404Y-74900000D01*
X100237500Y-75014285D01*
X100313690Y-75090476D01*
X100389880Y-75128571D01*
X100542261Y-75166666D01*
X100656547Y-75166666D01*
X100808928Y-75128571D01*
X100885119Y-75090476D01*
X100961309Y-75014285D01*
X100999404Y-74900000D01*
X100999404Y-74823809D01*
X100961309Y-74709523D01*
X100923214Y-74671428D01*
X100656547Y-74671428D01*
X100656547Y-74823809D01*
X100999404Y-74328571D02*
X100199404Y-74328571D01*
X100999404Y-73871428D01*
X100199404Y-73871428D01*
X100999404Y-73490476D02*
X100199404Y-73490476D01*
X100199404Y-73300000D01*
X100237500Y-73185714D01*
X100313690Y-73109523D01*
X100389880Y-73071428D01*
X100542261Y-73033333D01*
X100656547Y-73033333D01*
X100808928Y-73071428D01*
X100885119Y-73109523D01*
X100961309Y-73185714D01*
X100999404Y-73300000D01*
X100999404Y-73490476D01*
X103599404Y-74514285D02*
X103599404Y-74895238D01*
X102799404Y-74895238D01*
X103180357Y-74247619D02*
X103180357Y-73980952D01*
X103599404Y-73866666D02*
X103599404Y-74247619D01*
X102799404Y-74247619D01*
X102799404Y-73866666D01*
X103599404Y-73523809D02*
X102799404Y-73523809D01*
X102799404Y-73333333D01*
X102837500Y-73219047D01*
X102913690Y-73142857D01*
X102989880Y-73104761D01*
X103142261Y-73066666D01*
X103256547Y-73066666D01*
X103408928Y-73104761D01*
X103485119Y-73142857D01*
X103561309Y-73219047D01*
X103599404Y-73333333D01*
X103599404Y-73523809D01*
X105199404Y-75066666D02*
X105999404Y-74800000D01*
X105199404Y-74533333D01*
X105923214Y-73809523D02*
X105961309Y-73847619D01*
X105999404Y-73961904D01*
X105999404Y-74038095D01*
X105961309Y-74152380D01*
X105885119Y-74228571D01*
X105808928Y-74266666D01*
X105656547Y-74304761D01*
X105542261Y-74304761D01*
X105389880Y-74266666D01*
X105313690Y-74228571D01*
X105237500Y-74152380D01*
X105199404Y-74038095D01*
X105199404Y-73961904D01*
X105237500Y-73847619D01*
X105275595Y-73809523D01*
X105923214Y-73009523D02*
X105961309Y-73047619D01*
X105999404Y-73161904D01*
X105999404Y-73238095D01*
X105961309Y-73352380D01*
X105885119Y-73428571D01*
X105808928Y-73466666D01*
X105656547Y-73504761D01*
X105542261Y-73504761D01*
X105389880Y-73466666D01*
X105313690Y-73428571D01*
X105237500Y-73352380D01*
X105199404Y-73238095D01*
X105199404Y-73161904D01*
X105237500Y-73047619D01*
X105275595Y-73009523D01*
%TO.C,RSW1*%
X72593154Y-94824404D02*
X72212202Y-95091071D01*
X72593154Y-95281547D02*
X71793154Y-95281547D01*
X71793154Y-94976785D01*
X71831250Y-94900595D01*
X71869345Y-94862500D01*
X71945535Y-94824404D01*
X72059821Y-94824404D01*
X72136011Y-94862500D01*
X72174107Y-94900595D01*
X72212202Y-94976785D01*
X72212202Y-95281547D01*
X72174107Y-94481547D02*
X72174107Y-94214880D01*
X72593154Y-94100595D02*
X72593154Y-94481547D01*
X71793154Y-94481547D01*
X71793154Y-94100595D01*
X72555059Y-93795833D02*
X72593154Y-93681547D01*
X72593154Y-93491071D01*
X72555059Y-93414880D01*
X72516964Y-93376785D01*
X72440773Y-93338690D01*
X72364583Y-93338690D01*
X72288392Y-93376785D01*
X72250297Y-93414880D01*
X72212202Y-93491071D01*
X72174107Y-93643452D01*
X72136011Y-93719642D01*
X72097916Y-93757738D01*
X72021726Y-93795833D01*
X71945535Y-93795833D01*
X71869345Y-93757738D01*
X71831250Y-93719642D01*
X71793154Y-93643452D01*
X71793154Y-93452976D01*
X71831250Y-93338690D01*
X72174107Y-92995833D02*
X72174107Y-92729166D01*
X72593154Y-92614880D02*
X72593154Y-92995833D01*
X71793154Y-92995833D01*
X71793154Y-92614880D01*
X71793154Y-92386309D02*
X71793154Y-91929166D01*
X72593154Y-92157738D02*
X71793154Y-92157738D01*
%TO.C,U1*%
X86099690Y-63760357D02*
X86213976Y-63798452D01*
X86252071Y-63836547D01*
X86290166Y-63912738D01*
X86290166Y-64027023D01*
X86252071Y-64103214D01*
X86213976Y-64141309D01*
X86137785Y-64179404D01*
X85833023Y-64179404D01*
X85833023Y-63379404D01*
X86099690Y-63379404D01*
X86175880Y-63417500D01*
X86213976Y-63455595D01*
X86252071Y-63531785D01*
X86252071Y-63607976D01*
X86213976Y-63684166D01*
X86175880Y-63722261D01*
X86099690Y-63760357D01*
X85833023Y-63760357D01*
X86594928Y-63455595D02*
X86633023Y-63417500D01*
X86709214Y-63379404D01*
X86899690Y-63379404D01*
X86975880Y-63417500D01*
X87013976Y-63455595D01*
X87052071Y-63531785D01*
X87052071Y-63607976D01*
X87013976Y-63722261D01*
X86556833Y-64179404D01*
X87052071Y-64179404D01*
X74911023Y-54019404D02*
X74911023Y-53219404D01*
X75101500Y-53219404D01*
X75215785Y-53257500D01*
X75291976Y-53333690D01*
X75330071Y-53409880D01*
X75368166Y-53562261D01*
X75368166Y-53676547D01*
X75330071Y-53828928D01*
X75291976Y-53905119D01*
X75215785Y-53981309D01*
X75101500Y-54019404D01*
X74911023Y-54019404D01*
X76053880Y-53486071D02*
X76053880Y-54019404D01*
X75863404Y-53181309D02*
X75672928Y-53752738D01*
X76168166Y-53752738D01*
X74891976Y-43097500D02*
X74815785Y-43059404D01*
X74701500Y-43059404D01*
X74587214Y-43097500D01*
X74511023Y-43173690D01*
X74472928Y-43249880D01*
X74434833Y-43402261D01*
X74434833Y-43516547D01*
X74472928Y-43668928D01*
X74511023Y-43745119D01*
X74587214Y-43821309D01*
X74701500Y-43859404D01*
X74777690Y-43859404D01*
X74891976Y-43821309D01*
X74930071Y-43783214D01*
X74930071Y-43516547D01*
X74777690Y-43516547D01*
X75272928Y-43859404D02*
X75272928Y-43059404D01*
X75730071Y-43859404D01*
X75730071Y-43059404D01*
X76111023Y-43859404D02*
X76111023Y-43059404D01*
X76301500Y-43059404D01*
X76415785Y-43097500D01*
X76491976Y-43173690D01*
X76530071Y-43249880D01*
X76568166Y-43402261D01*
X76568166Y-43516547D01*
X76530071Y-43668928D01*
X76491976Y-43745119D01*
X76415785Y-43821309D01*
X76301500Y-43859404D01*
X76111023Y-43859404D01*
X74911023Y-59099404D02*
X74911023Y-58299404D01*
X75101500Y-58299404D01*
X75215785Y-58337500D01*
X75291976Y-58413690D01*
X75330071Y-58489880D01*
X75368166Y-58642261D01*
X75368166Y-58756547D01*
X75330071Y-58908928D01*
X75291976Y-58985119D01*
X75215785Y-59061309D01*
X75101500Y-59099404D01*
X74911023Y-59099404D01*
X75634833Y-58299404D02*
X76168166Y-58299404D01*
X75825309Y-59099404D01*
X86162286Y-43791309D02*
X86276572Y-43829404D01*
X86467048Y-43829404D01*
X86543239Y-43791309D01*
X86581334Y-43753214D01*
X86619429Y-43677023D01*
X86619429Y-43600833D01*
X86581334Y-43524642D01*
X86543239Y-43486547D01*
X86467048Y-43448452D01*
X86314667Y-43410357D01*
X86238477Y-43372261D01*
X86200381Y-43334166D01*
X86162286Y-43257976D01*
X86162286Y-43181785D01*
X86200381Y-43105595D01*
X86238477Y-43067500D01*
X86314667Y-43029404D01*
X86505143Y-43029404D01*
X86619429Y-43067500D01*
X86848000Y-43029404D02*
X87305143Y-43029404D01*
X87076572Y-43829404D02*
X87076572Y-43029404D01*
X86156833Y-56140357D02*
X85890166Y-56140357D01*
X85890166Y-56559404D02*
X85890166Y-55759404D01*
X86271119Y-55759404D01*
X86499690Y-55759404D02*
X87033023Y-55759404D01*
X86690166Y-56559404D01*
X85356833Y-45599404D02*
X85623500Y-46399404D01*
X85890166Y-45599404D01*
X86613976Y-46323214D02*
X86575880Y-46361309D01*
X86461595Y-46399404D01*
X86385404Y-46399404D01*
X86271119Y-46361309D01*
X86194928Y-46285119D01*
X86156833Y-46208928D01*
X86118738Y-46056547D01*
X86118738Y-45942261D01*
X86156833Y-45789880D01*
X86194928Y-45713690D01*
X86271119Y-45637500D01*
X86385404Y-45599404D01*
X86461595Y-45599404D01*
X86575880Y-45637500D01*
X86613976Y-45675595D01*
X87413976Y-46323214D02*
X87375880Y-46361309D01*
X87261595Y-46399404D01*
X87185404Y-46399404D01*
X87071119Y-46361309D01*
X86994928Y-46285119D01*
X86956833Y-46208928D01*
X86918738Y-46056547D01*
X86918738Y-45942261D01*
X86956833Y-45789880D01*
X86994928Y-45713690D01*
X87071119Y-45637500D01*
X87185404Y-45599404D01*
X87261595Y-45599404D01*
X87375880Y-45637500D01*
X87413976Y-45675595D01*
X80829166Y-65073214D02*
X80791071Y-65111309D01*
X80676785Y-65149404D01*
X80600595Y-65149404D01*
X80486309Y-65111309D01*
X80410119Y-65035119D01*
X80372023Y-64958928D01*
X80333928Y-64806547D01*
X80333928Y-64692261D01*
X80372023Y-64539880D01*
X80410119Y-64463690D01*
X80486309Y-64387500D01*
X80600595Y-64349404D01*
X80676785Y-64349404D01*
X80791071Y-64387500D01*
X80829166Y-64425595D01*
X81095833Y-64349404D02*
X81629166Y-64349404D01*
X81286309Y-65149404D01*
X86156833Y-53600357D02*
X85890166Y-53600357D01*
X85890166Y-54019404D02*
X85890166Y-53219404D01*
X86271119Y-53219404D01*
X86918738Y-53219404D02*
X86766357Y-53219404D01*
X86690166Y-53257500D01*
X86652071Y-53295595D01*
X86575880Y-53409880D01*
X86537785Y-53562261D01*
X86537785Y-53867023D01*
X86575880Y-53943214D01*
X86613976Y-53981309D01*
X86690166Y-54019404D01*
X86842547Y-54019404D01*
X86918738Y-53981309D01*
X86956833Y-53943214D01*
X86994928Y-53867023D01*
X86994928Y-53676547D01*
X86956833Y-53600357D01*
X86918738Y-53562261D01*
X86842547Y-53524166D01*
X86690166Y-53524166D01*
X86613976Y-53562261D01*
X86575880Y-53600357D01*
X86537785Y-53676547D01*
X74911023Y-51479404D02*
X74911023Y-50679404D01*
X75101500Y-50679404D01*
X75215785Y-50717500D01*
X75291976Y-50793690D01*
X75330071Y-50869880D01*
X75368166Y-51022261D01*
X75368166Y-51136547D01*
X75330071Y-51288928D01*
X75291976Y-51365119D01*
X75215785Y-51441309D01*
X75101500Y-51479404D01*
X74911023Y-51479404D01*
X75863404Y-50679404D02*
X75939595Y-50679404D01*
X76015785Y-50717500D01*
X76053880Y-50755595D01*
X76091976Y-50831785D01*
X76130071Y-50984166D01*
X76130071Y-51174642D01*
X76091976Y-51327023D01*
X76053880Y-51403214D01*
X76015785Y-51441309D01*
X75939595Y-51479404D01*
X75863404Y-51479404D01*
X75787214Y-51441309D01*
X75749119Y-51403214D01*
X75711023Y-51327023D01*
X75672928Y-51174642D01*
X75672928Y-50984166D01*
X75711023Y-50831785D01*
X75749119Y-50755595D01*
X75787214Y-50717500D01*
X75863404Y-50679404D01*
X86156833Y-48520357D02*
X85890166Y-48520357D01*
X85890166Y-48939404D02*
X85890166Y-48139404D01*
X86271119Y-48139404D01*
X86918738Y-48406071D02*
X86918738Y-48939404D01*
X86728261Y-48101309D02*
X86537785Y-48672738D01*
X87033023Y-48672738D01*
X75177690Y-63760357D02*
X75291976Y-63798452D01*
X75330071Y-63836547D01*
X75368166Y-63912738D01*
X75368166Y-64027023D01*
X75330071Y-64103214D01*
X75291976Y-64141309D01*
X75215785Y-64179404D01*
X74911023Y-64179404D01*
X74911023Y-63379404D01*
X75177690Y-63379404D01*
X75253880Y-63417500D01*
X75291976Y-63455595D01*
X75330071Y-63531785D01*
X75330071Y-63607976D01*
X75291976Y-63684166D01*
X75253880Y-63722261D01*
X75177690Y-63760357D01*
X74911023Y-63760357D01*
X76053880Y-63646071D02*
X76053880Y-64179404D01*
X75863404Y-63341309D02*
X75672928Y-63912738D01*
X76168166Y-63912738D01*
X85229166Y-64937500D02*
X84995833Y-64937500D01*
X84995833Y-65304166D02*
X84995833Y-64604166D01*
X85329166Y-64604166D01*
X85729166Y-64604166D02*
X85795833Y-64604166D01*
X85862500Y-64637500D01*
X85895833Y-64670833D01*
X85929166Y-64737500D01*
X85962500Y-64870833D01*
X85962500Y-65037500D01*
X85929166Y-65170833D01*
X85895833Y-65237500D01*
X85862500Y-65270833D01*
X85795833Y-65304166D01*
X85729166Y-65304166D01*
X85662500Y-65270833D01*
X85629166Y-65237500D01*
X85595833Y-65170833D01*
X85562500Y-65037500D01*
X85562500Y-64870833D01*
X85595833Y-64737500D01*
X85629166Y-64670833D01*
X85662500Y-64637500D01*
X85729166Y-64604166D01*
X86099690Y-58680357D02*
X86213976Y-58718452D01*
X86252071Y-58756547D01*
X86290166Y-58832738D01*
X86290166Y-58947023D01*
X86252071Y-59023214D01*
X86213976Y-59061309D01*
X86137785Y-59099404D01*
X85833023Y-59099404D01*
X85833023Y-58299404D01*
X86099690Y-58299404D01*
X86175880Y-58337500D01*
X86213976Y-58375595D01*
X86252071Y-58451785D01*
X86252071Y-58527976D01*
X86213976Y-58604166D01*
X86175880Y-58642261D01*
X86099690Y-58680357D01*
X85833023Y-58680357D01*
X87052071Y-59099404D02*
X86594928Y-59099404D01*
X86823500Y-59099404D02*
X86823500Y-58299404D01*
X86747309Y-58413690D01*
X86671119Y-58489880D01*
X86594928Y-58527976D01*
X74911023Y-48939404D02*
X74911023Y-48139404D01*
X75101500Y-48139404D01*
X75215785Y-48177500D01*
X75291976Y-48253690D01*
X75330071Y-48329880D01*
X75368166Y-48482261D01*
X75368166Y-48596547D01*
X75330071Y-48748928D01*
X75291976Y-48825119D01*
X75215785Y-48901309D01*
X75101500Y-48939404D01*
X74911023Y-48939404D01*
X76130071Y-48939404D02*
X75672928Y-48939404D01*
X75901500Y-48939404D02*
X75901500Y-48139404D01*
X75825309Y-48253690D01*
X75749119Y-48329880D01*
X75672928Y-48367976D01*
X77832023Y-65149404D02*
X77832023Y-64349404D01*
X78022500Y-64349404D01*
X78136785Y-64387500D01*
X78212976Y-64463690D01*
X78251071Y-64539880D01*
X78289166Y-64692261D01*
X78289166Y-64806547D01*
X78251071Y-64958928D01*
X78212976Y-65035119D01*
X78136785Y-65111309D01*
X78022500Y-65149404D01*
X77832023Y-65149404D01*
X79012976Y-64349404D02*
X78632023Y-64349404D01*
X78593928Y-64730357D01*
X78632023Y-64692261D01*
X78708214Y-64654166D01*
X78898690Y-64654166D01*
X78974880Y-64692261D01*
X79012976Y-64730357D01*
X79051071Y-64806547D01*
X79051071Y-64997023D01*
X79012976Y-65073214D01*
X78974880Y-65111309D01*
X78898690Y-65149404D01*
X78708214Y-65149404D01*
X78632023Y-65111309D01*
X78593928Y-65073214D01*
X85813976Y-40557500D02*
X85737785Y-40519404D01*
X85623500Y-40519404D01*
X85509214Y-40557500D01*
X85433023Y-40633690D01*
X85394928Y-40709880D01*
X85356833Y-40862261D01*
X85356833Y-40976547D01*
X85394928Y-41128928D01*
X85433023Y-41205119D01*
X85509214Y-41281309D01*
X85623500Y-41319404D01*
X85699690Y-41319404D01*
X85813976Y-41281309D01*
X85852071Y-41243214D01*
X85852071Y-40976547D01*
X85699690Y-40976547D01*
X86194928Y-41319404D02*
X86194928Y-40519404D01*
X86652071Y-41319404D01*
X86652071Y-40519404D01*
X87033023Y-41319404D02*
X87033023Y-40519404D01*
X87223500Y-40519404D01*
X87337785Y-40557500D01*
X87413976Y-40633690D01*
X87452071Y-40709880D01*
X87490166Y-40862261D01*
X87490166Y-40976547D01*
X87452071Y-41128928D01*
X87413976Y-41205119D01*
X87337785Y-41281309D01*
X87223500Y-41319404D01*
X87033023Y-41319404D01*
X75368166Y-56483214D02*
X75330071Y-56521309D01*
X75215785Y-56559404D01*
X75139595Y-56559404D01*
X75025309Y-56521309D01*
X74949119Y-56445119D01*
X74911023Y-56368928D01*
X74872928Y-56216547D01*
X74872928Y-56102261D01*
X74911023Y-55949880D01*
X74949119Y-55873690D01*
X75025309Y-55797500D01*
X75139595Y-55759404D01*
X75215785Y-55759404D01*
X75330071Y-55797500D01*
X75368166Y-55835595D01*
X76053880Y-55759404D02*
X75901500Y-55759404D01*
X75825309Y-55797500D01*
X75787214Y-55835595D01*
X75711023Y-55949880D01*
X75672928Y-56102261D01*
X75672928Y-56407023D01*
X75711023Y-56483214D01*
X75749119Y-56521309D01*
X75825309Y-56559404D01*
X75977690Y-56559404D01*
X76053880Y-56521309D01*
X76091976Y-56483214D01*
X76130071Y-56407023D01*
X76130071Y-56216547D01*
X76091976Y-56140357D01*
X76053880Y-56102261D01*
X75977690Y-56064166D01*
X75825309Y-56064166D01*
X75749119Y-56102261D01*
X75711023Y-56140357D01*
X75672928Y-56216547D01*
X83235833Y-64730357D02*
X82969166Y-64730357D01*
X82969166Y-65149404D02*
X82969166Y-64349404D01*
X83350119Y-64349404D01*
X84073928Y-65149404D02*
X83616785Y-65149404D01*
X83845357Y-65149404D02*
X83845357Y-64349404D01*
X83769166Y-64463690D01*
X83692976Y-64539880D01*
X83616785Y-64577976D01*
X74891976Y-45637500D02*
X74815785Y-45599404D01*
X74701500Y-45599404D01*
X74587214Y-45637500D01*
X74511023Y-45713690D01*
X74472928Y-45789880D01*
X74434833Y-45942261D01*
X74434833Y-46056547D01*
X74472928Y-46208928D01*
X74511023Y-46285119D01*
X74587214Y-46361309D01*
X74701500Y-46399404D01*
X74777690Y-46399404D01*
X74891976Y-46361309D01*
X74930071Y-46323214D01*
X74930071Y-46056547D01*
X74777690Y-46056547D01*
X75272928Y-46399404D02*
X75272928Y-45599404D01*
X75730071Y-46399404D01*
X75730071Y-45599404D01*
X76111023Y-46399404D02*
X76111023Y-45599404D01*
X76301500Y-45599404D01*
X76415785Y-45637500D01*
X76491976Y-45713690D01*
X76530071Y-45789880D01*
X76568166Y-45942261D01*
X76568166Y-46056547D01*
X76530071Y-46208928D01*
X76491976Y-46285119D01*
X76415785Y-46361309D01*
X76301500Y-46399404D01*
X76111023Y-46399404D01*
X74911023Y-41319404D02*
X74911023Y-40519404D01*
X75101500Y-40519404D01*
X75215785Y-40557500D01*
X75291976Y-40633690D01*
X75330071Y-40709880D01*
X75368166Y-40862261D01*
X75368166Y-40976547D01*
X75330071Y-41128928D01*
X75291976Y-41205119D01*
X75215785Y-41281309D01*
X75101500Y-41319404D01*
X74911023Y-41319404D01*
X75672928Y-40595595D02*
X75711023Y-40557500D01*
X75787214Y-40519404D01*
X75977690Y-40519404D01*
X76053880Y-40557500D01*
X76091976Y-40595595D01*
X76130071Y-40671785D01*
X76130071Y-40747976D01*
X76091976Y-40862261D01*
X75634833Y-41319404D01*
X76130071Y-41319404D01*
X74727491Y-65323202D02*
X74680351Y-65228921D01*
X74680351Y-65181780D01*
X74703921Y-65111070D01*
X74774632Y-65040359D01*
X74845342Y-65016789D01*
X74892483Y-65016789D01*
X74963193Y-65040359D01*
X75151755Y-65228921D01*
X74656780Y-65723896D01*
X74491789Y-65558904D01*
X74468219Y-65488193D01*
X74468219Y-65441053D01*
X74491789Y-65370342D01*
X74538929Y-65323202D01*
X74609640Y-65299632D01*
X74656780Y-65299632D01*
X74727491Y-65323202D01*
X74892483Y-65488193D01*
X73926103Y-64993219D02*
X74161806Y-65228921D01*
X74421078Y-65016789D01*
X74373938Y-65016789D01*
X74303227Y-64993219D01*
X74185376Y-64875367D01*
X74161806Y-64804657D01*
X74161806Y-64757516D01*
X74185376Y-64686806D01*
X74303227Y-64568955D01*
X74373938Y-64545384D01*
X74421078Y-64545384D01*
X74491789Y-64568955D01*
X74609640Y-64686806D01*
X74633210Y-64757516D01*
X74633210Y-64804657D01*
X87126797Y-65252491D02*
X87221078Y-65205351D01*
X87268219Y-65205351D01*
X87338929Y-65228921D01*
X87409640Y-65299632D01*
X87433210Y-65370342D01*
X87433210Y-65417483D01*
X87409640Y-65488193D01*
X87221078Y-65676755D01*
X86726103Y-65181780D01*
X86891095Y-65016789D01*
X86961806Y-64993219D01*
X87008946Y-64993219D01*
X87079657Y-65016789D01*
X87126797Y-65063929D01*
X87150367Y-65134640D01*
X87150367Y-65181780D01*
X87126797Y-65252491D01*
X86961806Y-65417483D01*
X87433210Y-64474674D02*
X87338929Y-64568955D01*
X87315359Y-64639665D01*
X87315359Y-64686806D01*
X87338929Y-64804657D01*
X87409640Y-64922508D01*
X87598202Y-65111070D01*
X87668912Y-65134640D01*
X87716053Y-65134640D01*
X87786764Y-65111070D01*
X87881044Y-65016789D01*
X87904615Y-64946078D01*
X87904615Y-64898938D01*
X87881044Y-64828227D01*
X87763193Y-64710376D01*
X87692483Y-64686806D01*
X87645342Y-64686806D01*
X87574632Y-64710376D01*
X87480351Y-64804657D01*
X87456780Y-64875367D01*
X87456780Y-64922508D01*
X87480351Y-64993219D01*
X76179166Y-64937500D02*
X76279166Y-64970833D01*
X76312500Y-65004166D01*
X76345833Y-65070833D01*
X76345833Y-65170833D01*
X76312500Y-65237500D01*
X76279166Y-65270833D01*
X76212500Y-65304166D01*
X75945833Y-65304166D01*
X75945833Y-64604166D01*
X76179166Y-64604166D01*
X76245833Y-64637500D01*
X76279166Y-64670833D01*
X76312500Y-64737500D01*
X76312500Y-64804166D01*
X76279166Y-64870833D01*
X76245833Y-64904166D01*
X76179166Y-64937500D01*
X75945833Y-64937500D01*
X76579166Y-64604166D02*
X77045833Y-64604166D01*
X76745833Y-65304166D01*
X86099690Y-38360357D02*
X86213976Y-38398452D01*
X86252071Y-38436547D01*
X86290166Y-38512738D01*
X86290166Y-38627023D01*
X86252071Y-38703214D01*
X86213976Y-38741309D01*
X86137785Y-38779404D01*
X85833023Y-38779404D01*
X85833023Y-37979404D01*
X86099690Y-37979404D01*
X86175880Y-38017500D01*
X86213976Y-38055595D01*
X86252071Y-38131785D01*
X86252071Y-38207976D01*
X86213976Y-38284166D01*
X86175880Y-38322261D01*
X86099690Y-38360357D01*
X85833023Y-38360357D01*
X86785404Y-37979404D02*
X86861595Y-37979404D01*
X86937785Y-38017500D01*
X86975880Y-38055595D01*
X87013976Y-38131785D01*
X87052071Y-38284166D01*
X87052071Y-38474642D01*
X87013976Y-38627023D01*
X86975880Y-38703214D01*
X86937785Y-38741309D01*
X86861595Y-38779404D01*
X86785404Y-38779404D01*
X86709214Y-38741309D01*
X86671119Y-38703214D01*
X86633023Y-38627023D01*
X86594928Y-38474642D01*
X86594928Y-38284166D01*
X86633023Y-38131785D01*
X86671119Y-38055595D01*
X86709214Y-38017500D01*
X86785404Y-37979404D01*
X74949119Y-61220357D02*
X75215785Y-61220357D01*
X75330071Y-61639404D02*
X74949119Y-61639404D01*
X74949119Y-60839404D01*
X75330071Y-60839404D01*
X76015785Y-60839404D02*
X75863404Y-60839404D01*
X75787214Y-60877500D01*
X75749119Y-60915595D01*
X75672928Y-61029880D01*
X75634833Y-61182261D01*
X75634833Y-61487023D01*
X75672928Y-61563214D01*
X75711023Y-61601309D01*
X75787214Y-61639404D01*
X75939595Y-61639404D01*
X76015785Y-61601309D01*
X76053880Y-61563214D01*
X76091976Y-61487023D01*
X76091976Y-61296547D01*
X76053880Y-61220357D01*
X76015785Y-61182261D01*
X75939595Y-61144166D01*
X75787214Y-61144166D01*
X75711023Y-61182261D01*
X75672928Y-61220357D01*
X75634833Y-61296547D01*
X86099690Y-61220357D02*
X86213976Y-61258452D01*
X86252071Y-61296547D01*
X86290166Y-61372738D01*
X86290166Y-61487023D01*
X86252071Y-61563214D01*
X86213976Y-61601309D01*
X86137785Y-61639404D01*
X85833023Y-61639404D01*
X85833023Y-60839404D01*
X86099690Y-60839404D01*
X86175880Y-60877500D01*
X86213976Y-60915595D01*
X86252071Y-60991785D01*
X86252071Y-61067976D01*
X86213976Y-61144166D01*
X86175880Y-61182261D01*
X86099690Y-61220357D01*
X85833023Y-61220357D01*
X86556833Y-60839404D02*
X87052071Y-60839404D01*
X86785404Y-61144166D01*
X86899690Y-61144166D01*
X86975880Y-61182261D01*
X87013976Y-61220357D01*
X87052071Y-61296547D01*
X87052071Y-61487023D01*
X87013976Y-61563214D01*
X86975880Y-61601309D01*
X86899690Y-61639404D01*
X86671119Y-61639404D01*
X86594928Y-61601309D01*
X86556833Y-61563214D01*
X86156833Y-51060357D02*
X85890166Y-51060357D01*
X85890166Y-51479404D02*
X85890166Y-50679404D01*
X86271119Y-50679404D01*
X86956833Y-50679404D02*
X86575880Y-50679404D01*
X86537785Y-51060357D01*
X86575880Y-51022261D01*
X86652071Y-50984166D01*
X86842547Y-50984166D01*
X86918738Y-51022261D01*
X86956833Y-51060357D01*
X86994928Y-51136547D01*
X86994928Y-51327023D01*
X86956833Y-51403214D01*
X86918738Y-51441309D01*
X86842547Y-51479404D01*
X86652071Y-51479404D01*
X86575880Y-51441309D01*
X86537785Y-51403214D01*
X75200151Y-37979404D02*
X75657294Y-37979404D01*
X75428723Y-38779404D02*
X75428723Y-37979404D01*
X75847770Y-37979404D02*
X76381104Y-38779404D01*
X76381104Y-37979404D02*
X75847770Y-38779404D01*
X76838247Y-37979404D02*
X76914437Y-37979404D01*
X76990628Y-38017500D01*
X77028723Y-38055595D01*
X77066818Y-38131785D01*
X77104913Y-38284166D01*
X77104913Y-38474642D01*
X77066818Y-38627023D01*
X77028723Y-38703214D01*
X76990628Y-38741309D01*
X76914437Y-38779404D01*
X76838247Y-38779404D01*
X76762056Y-38741309D01*
X76723961Y-38703214D01*
X76685866Y-38627023D01*
X76647770Y-38474642D01*
X76647770Y-38284166D01*
X76685866Y-38131785D01*
X76723961Y-38055595D01*
X76762056Y-38017500D01*
X76838247Y-37979404D01*
X78019199Y-37941309D02*
X77333485Y-38969880D01*
X78285866Y-38779404D02*
X78285866Y-37979404D01*
X78476342Y-37979404D01*
X78590628Y-38017500D01*
X78666818Y-38093690D01*
X78704913Y-38169880D01*
X78743008Y-38322261D01*
X78743008Y-38436547D01*
X78704913Y-38588928D01*
X78666818Y-38665119D01*
X78590628Y-38741309D01*
X78476342Y-38779404D01*
X78285866Y-38779404D01*
X79009675Y-37979404D02*
X79504913Y-37979404D01*
X79238247Y-38284166D01*
X79352532Y-38284166D01*
X79428723Y-38322261D01*
X79466818Y-38360357D01*
X79504913Y-38436547D01*
X79504913Y-38627023D01*
X79466818Y-38703214D01*
X79428723Y-38741309D01*
X79352532Y-38779404D01*
X79123961Y-38779404D01*
X79047770Y-38741309D01*
X79009675Y-38703214D01*
%TO.C,J2*%
X74792395Y-79988433D02*
X75372966Y-79988433D01*
X75489080Y-80027138D01*
X75566490Y-80104547D01*
X75605195Y-80220661D01*
X75605195Y-80298071D01*
X74869804Y-79640090D02*
X74831100Y-79601385D01*
X74792395Y-79523976D01*
X74792395Y-79330452D01*
X74831100Y-79253042D01*
X74869804Y-79214338D01*
X74947214Y-79175633D01*
X75024623Y-79175633D01*
X75140738Y-79214338D01*
X75605195Y-79678795D01*
X75605195Y-79175633D01*
%TO.C,SW41*%
X76408642Y-151753133D02*
X79947004Y-155356549D01*
X85530319Y-158046383D02*
X82740783Y-160835920D01*
X79204542Y-148957233D02*
X85303338Y-155056029D01*
X76441169Y-151720606D02*
X79204542Y-148957233D01*
X82734419Y-160842284D02*
X80181764Y-158289628D01*
X80195200Y-158269122D02*
G75*
G03*
X79926498Y-155341700I-1598062J1329360D01*
G01*
X85572039Y-157989108D02*
G75*
G03*
X85303338Y-155056029I-1600890J1332189D01*
G01*
%TO.C,SW3*%
X185487500Y-39600000D02*
X185487500Y-43545000D01*
X185487500Y-43554000D02*
X181877500Y-43554000D01*
X174587500Y-41600000D02*
X179637500Y-41646000D01*
X174587500Y-37646000D02*
X183212500Y-37646000D01*
X174587500Y-41554000D02*
X174587500Y-37646000D01*
X181872501Y-43529999D02*
G75*
G03*
X179612500Y-41650000I-2070000J-190001D01*
G01*
X185476500Y-39530000D02*
G75*
G03*
X183212500Y-37646000I-2074000J-190000D01*
G01*
%TO.C,D9*%
X192487500Y-61818750D02*
X191587500Y-61118750D01*
X192487500Y-60418750D02*
X192487500Y-61818750D01*
X191587500Y-60418750D02*
X191587500Y-61818750D01*
X191587500Y-61118750D02*
X192487500Y-60418750D01*
%TO.C,SW37*%
X156331250Y-129721000D02*
X164956250Y-129721000D01*
X167231250Y-131675000D02*
X167231250Y-135620000D01*
X156331250Y-133675000D02*
X161381250Y-133721000D01*
X167231250Y-135629000D02*
X163621250Y-135629000D01*
X156331250Y-133629000D02*
X156331250Y-129721000D01*
X163616251Y-135604999D02*
G75*
G03*
X161356250Y-133725000I-2070000J-190001D01*
G01*
X167220250Y-131605000D02*
G75*
G03*
X164956250Y-129721000I-2074000J-190000D01*
G01*
%TO.C,SW31*%
X185487500Y-115800000D02*
X185487500Y-119745000D01*
X174587500Y-117800000D02*
X179637500Y-117846000D01*
X174587500Y-113846000D02*
X183212500Y-113846000D01*
X185487500Y-119754000D02*
X181877500Y-119754000D01*
X174587500Y-117754000D02*
X174587500Y-113846000D01*
X181872501Y-119729999D02*
G75*
G03*
X179612500Y-117850000I-2070000J-190001D01*
G01*
X185476500Y-115730000D02*
G75*
G03*
X183212500Y-113846000I-2074000J-190000D01*
G01*
%TO.C,D12*%
X135337500Y-54862500D02*
X135337500Y-56262500D01*
X134437500Y-54862500D02*
X134437500Y-56262500D01*
X135337500Y-56262500D02*
X134437500Y-55562500D01*
X134437500Y-55562500D02*
X135337500Y-54862500D01*
%TO.C,D27*%
X119462500Y-113412500D02*
X118562500Y-112712500D01*
X118562500Y-112712500D02*
X119462500Y-112012500D01*
X118562500Y-112012500D02*
X118562500Y-113412500D01*
X119462500Y-112012500D02*
X119462500Y-113412500D01*
%TO.C,J3*%
X82593750Y-98518750D02*
X82593750Y-104518750D01*
X82593750Y-104518750D02*
X70593750Y-104518750D01*
X70593750Y-104518750D02*
X70593750Y-98518750D01*
X70593750Y-98518750D02*
X82593750Y-98518750D01*
%TO.C,D6*%
X119462500Y-54862500D02*
X119462500Y-56262500D01*
X118562500Y-54862500D02*
X118562500Y-56262500D01*
X119462500Y-56262500D02*
X118562500Y-55562500D01*
X118562500Y-55562500D02*
X119462500Y-54862500D01*
%TO.C,D10*%
X173437500Y-54862500D02*
X173437500Y-56262500D01*
X173437500Y-56262500D02*
X172537500Y-55562500D01*
X172537500Y-54862500D02*
X172537500Y-56262500D01*
X172537500Y-55562500D02*
X173437500Y-54862500D01*
%TO.C,D4*%
X153487500Y-49212500D02*
X154387500Y-48512500D01*
X154387500Y-49912500D02*
X153487500Y-49212500D01*
X154387500Y-48512500D02*
X154387500Y-49912500D01*
X153487500Y-48512500D02*
X153487500Y-49912500D01*
%TO.C,D16*%
X191587500Y-95343750D02*
X191587500Y-96743750D01*
X192487500Y-96743750D02*
X191587500Y-96043750D01*
X192487500Y-95343750D02*
X192487500Y-96743750D01*
X191587500Y-96043750D02*
X192487500Y-95343750D01*
%TO.C,SW13*%
X128337500Y-65779000D02*
X124727500Y-65779000D01*
X128337500Y-61825000D02*
X128337500Y-65770000D01*
X117437500Y-63825000D02*
X122487500Y-63871000D01*
X117437500Y-63779000D02*
X117437500Y-59871000D01*
X117437500Y-59871000D02*
X126062500Y-59871000D01*
X124722501Y-65754999D02*
G75*
G03*
X122462500Y-63875000I-2070000J-190001D01*
G01*
X128326500Y-61755000D02*
G75*
G03*
X126062500Y-59871000I-2074000J-190000D01*
G01*
%TO.C,SW1*%
X212687500Y-47110250D02*
X212687500Y-43202250D01*
X212687500Y-43202250D02*
X221312500Y-43202250D01*
X212687500Y-47156250D02*
X217737500Y-47202250D01*
X223587500Y-45156250D02*
X223587500Y-49101250D01*
X223587500Y-49110250D02*
X219977500Y-49110250D01*
X219972501Y-49086249D02*
G75*
G03*
X217712500Y-47206250I-2070000J-190001D01*
G01*
X223576500Y-45086250D02*
G75*
G03*
X221312500Y-43202250I-2074000J-190000D01*
G01*
%TO.C,J1*%
X104137500Y-77100000D02*
X102337500Y-77100000D01*
X104837500Y-77100000D02*
X104837500Y-75300000D01*
X101537500Y-77100000D02*
X99737500Y-77100000D01*
X99737500Y-77100000D02*
X99737500Y-75300000D01*
X101537500Y-75300000D02*
X99737500Y-75300000D01*
X104137500Y-75300000D02*
X104137500Y-77100000D01*
X102337500Y-77100000D02*
X102337500Y-75300000D01*
X106637500Y-77100000D02*
X104837500Y-77100000D01*
X104837500Y-75300000D02*
X106637500Y-75300000D01*
X104137500Y-75300000D02*
X102337500Y-75300000D01*
X101537500Y-75300000D02*
X101537500Y-77100000D01*
X106637500Y-75300000D02*
X106637500Y-77100000D01*
%TO.C,JP10*%
X79819500Y-53879750D02*
X82105500Y-53879750D01*
X82105500Y-53879750D02*
X82105500Y-55657750D01*
X79819500Y-55657750D02*
X79819500Y-53879750D01*
X82105500Y-55657750D02*
X79819500Y-55657750D01*
%TO.C,JP9*%
X81812130Y-56261000D02*
X81812130Y-58039000D01*
X79526130Y-56261000D02*
X81812130Y-56261000D01*
X81812130Y-58039000D02*
X79526130Y-58039000D01*
X79526130Y-58039000D02*
X79526130Y-56261000D01*
%TO.C,SW21*%
X109287500Y-84829000D02*
X105677500Y-84829000D01*
X98387500Y-82875000D02*
X103437500Y-82921000D01*
X109287500Y-80875000D02*
X109287500Y-84820000D01*
X98387500Y-82829000D02*
X98387500Y-78921000D01*
X98387500Y-78921000D02*
X107012500Y-78921000D01*
X109276500Y-80805000D02*
G75*
G03*
X107012500Y-78921000I-2074000J-190000D01*
G01*
X105672501Y-84804999D02*
G75*
G03*
X103412500Y-82925000I-2070000J-190001D01*
G01*
%TO.C,D20*%
X116175000Y-92962500D02*
X116175000Y-94362500D01*
X116175000Y-94362500D02*
X115275000Y-93662500D01*
X115275000Y-92962500D02*
X115275000Y-94362500D01*
X115275000Y-93662500D02*
X116175000Y-92962500D01*
%TO.C,D14*%
X96337500Y-58037500D02*
X96337500Y-59437500D01*
X96337500Y-58737500D02*
X97237500Y-58037500D01*
X97237500Y-59437500D02*
X96337500Y-58737500D01*
X97237500Y-58037500D02*
X97237500Y-59437500D01*
%TO.C,D3*%
X173437500Y-53087500D02*
X172537500Y-52387500D01*
X172537500Y-52387500D02*
X173437500Y-51687500D01*
X173437500Y-51687500D02*
X173437500Y-53087500D01*
X172537500Y-51687500D02*
X172537500Y-53087500D01*
%TO.C,D32*%
X154387500Y-126112500D02*
X153487500Y-125412500D01*
X153487500Y-125412500D02*
X154387500Y-124712500D01*
X154387500Y-124712500D02*
X154387500Y-126112500D01*
X153487500Y-124712500D02*
X153487500Y-126112500D01*
%TO.C,D8*%
X223225000Y-60418750D02*
X223225000Y-61818750D01*
X223225000Y-61118750D02*
X224125000Y-60418750D01*
X224125000Y-61818750D02*
X223225000Y-61118750D01*
X224125000Y-60418750D02*
X224125000Y-61818750D01*
%TO.C,D17*%
X172537500Y-90487500D02*
X173437500Y-89787500D01*
X173437500Y-91187500D02*
X172537500Y-90487500D01*
X173437500Y-89787500D02*
X173437500Y-91187500D01*
X172537500Y-89787500D02*
X172537500Y-91187500D01*
%TO.C,D23*%
X192487500Y-114393750D02*
X192487500Y-115793750D01*
X191587500Y-114393750D02*
X191587500Y-115793750D01*
X191587500Y-115093750D02*
X192487500Y-114393750D01*
X192487500Y-115793750D02*
X191587500Y-115093750D01*
%TO.C,SW4*%
X155537500Y-38379000D02*
X155537500Y-34471000D01*
X166437500Y-40379000D02*
X162827500Y-40379000D01*
X166437500Y-36425000D02*
X166437500Y-40370000D01*
X155537500Y-34471000D02*
X164162500Y-34471000D01*
X155537500Y-38425000D02*
X160587500Y-38471000D01*
X166426500Y-36355000D02*
G75*
G03*
X164162500Y-34471000I-2074000J-190000D01*
G01*
X162822501Y-40354999D02*
G75*
G03*
X160562500Y-38475000I-2070000J-190001D01*
G01*
%TO.C,D39*%
X116181250Y-134237500D02*
X116181250Y-135637500D01*
X116181250Y-134937500D02*
X117081250Y-134237500D01*
X117081250Y-135637500D02*
X116181250Y-134937500D01*
X117081250Y-134237500D02*
X117081250Y-135637500D01*
%TO.C,JP3*%
X80264000Y-72675750D02*
X80264000Y-74961750D01*
X78486000Y-72675750D02*
X80264000Y-72675750D01*
X78486000Y-74961750D02*
X78486000Y-72675750D01*
X80264000Y-74961750D02*
X78486000Y-74961750D01*
%TO.C,D29*%
X224237500Y-117568750D02*
X224237500Y-118968750D01*
X224237500Y-118968750D02*
X223337500Y-118268750D01*
X223337500Y-117568750D02*
X223337500Y-118968750D01*
X223337500Y-118268750D02*
X224237500Y-117568750D01*
%TO.C,SW33*%
X147387500Y-119754000D02*
X143777500Y-119754000D01*
X136487500Y-117754000D02*
X136487500Y-113846000D01*
X136487500Y-113846000D02*
X145112500Y-113846000D01*
X136487500Y-117800000D02*
X141537500Y-117846000D01*
X147387500Y-115800000D02*
X147387500Y-119745000D01*
X143772501Y-119729999D02*
G75*
G03*
X141512500Y-117850000I-2070000J-190001D01*
G01*
X147376500Y-115730000D02*
G75*
G03*
X145112500Y-113846000I-2074000J-190000D01*
G01*
%TO.C,SW14*%
X98387500Y-63825000D02*
X103437500Y-63871000D01*
X98387500Y-59871000D02*
X107012500Y-59871000D01*
X109287500Y-61825000D02*
X109287500Y-65770000D01*
X98387500Y-63779000D02*
X98387500Y-59871000D01*
X109287500Y-65779000D02*
X105677500Y-65779000D01*
X105672501Y-65754999D02*
G75*
G03*
X103412500Y-63875000I-2070000J-190001D01*
G01*
X109276500Y-61755000D02*
G75*
G03*
X107012500Y-59871000I-2074000J-190000D01*
G01*
%TO.C,D37*%
X155181250Y-127887500D02*
X155181250Y-129287500D01*
X154281250Y-127887500D02*
X154281250Y-129287500D01*
X154281250Y-128587500D02*
X155181250Y-127887500D01*
X155181250Y-129287500D02*
X154281250Y-128587500D01*
%TO.C,D35*%
X97237500Y-132462500D02*
X96337500Y-131762500D01*
X97237500Y-131062500D02*
X97237500Y-132462500D01*
X96337500Y-131762500D02*
X97237500Y-131062500D01*
X96337500Y-131062500D02*
X96337500Y-132462500D01*
%TO.C,SW17*%
X185487500Y-77700000D02*
X185487500Y-81645000D01*
X185487500Y-81654000D02*
X181877500Y-81654000D01*
X174587500Y-79654000D02*
X174587500Y-75746000D01*
X174587500Y-79700000D02*
X179637500Y-79746000D01*
X174587500Y-75746000D02*
X183212500Y-75746000D01*
X181872501Y-81629999D02*
G75*
G03*
X179612500Y-79750000I-2070000J-190001D01*
G01*
X185476500Y-77630000D02*
G75*
G03*
X183212500Y-75746000I-2074000J-190000D01*
G01*
%TO.C,SW40*%
X92786728Y-143499549D02*
X100603633Y-139854467D01*
X103491279Y-140663936D02*
X105158508Y-144239320D01*
X94457761Y-147083090D02*
X99054055Y-144990558D01*
X105162312Y-144247477D02*
X101890540Y-145773129D01*
X94438320Y-147041400D02*
X92786728Y-143499549D01*
X101875866Y-145753490D02*
G75*
G03*
X99033088Y-145004749I-1795759J-1047018D01*
G01*
X103451726Y-140605143D02*
G75*
G03*
X100603633Y-139854467I-1799385J-1048709D01*
G01*
%TO.C,D15*%
X224237500Y-96743750D02*
X223337500Y-96043750D01*
X223337500Y-95343750D02*
X223337500Y-96743750D01*
X224237500Y-95343750D02*
X224237500Y-96743750D01*
X223337500Y-96043750D02*
X224237500Y-95343750D01*
%TO.C,SW20*%
X128337500Y-84829000D02*
X124727500Y-84829000D01*
X128337500Y-80875000D02*
X128337500Y-84820000D01*
X117437500Y-82875000D02*
X122487500Y-82921000D01*
X117437500Y-82829000D02*
X117437500Y-78921000D01*
X117437500Y-78921000D02*
X126062500Y-78921000D01*
X128326500Y-80805000D02*
G75*
G03*
X126062500Y-78921000I-2074000J-190000D01*
G01*
X124722501Y-84804999D02*
G75*
G03*
X122462500Y-82925000I-2070000J-190001D01*
G01*
%TO.C,SW32*%
X166437500Y-112625000D02*
X166437500Y-116570000D01*
X155537500Y-110671000D02*
X164162500Y-110671000D01*
X166437500Y-116579000D02*
X162827500Y-116579000D01*
X155537500Y-114579000D02*
X155537500Y-110671000D01*
X155537500Y-114625000D02*
X160587500Y-114671000D01*
X166426500Y-112555000D02*
G75*
G03*
X164162500Y-110671000I-2074000J-190000D01*
G01*
X162822501Y-116554999D02*
G75*
G03*
X160562500Y-114675000I-2070000J-190001D01*
G01*
%TO.C,SW11*%
X166437500Y-55475000D02*
X166437500Y-59420000D01*
X155537500Y-57429000D02*
X155537500Y-53521000D01*
X166437500Y-59429000D02*
X162827500Y-59429000D01*
X155537500Y-53521000D02*
X164162500Y-53521000D01*
X155537500Y-57475000D02*
X160587500Y-57521000D01*
X162822501Y-59404999D02*
G75*
G03*
X160562500Y-57525000I-2070000J-190001D01*
G01*
X166426500Y-55405000D02*
G75*
G03*
X164162500Y-53521000I-2074000J-190000D01*
G01*
%TO.C,SW22*%
X212687500Y-104260250D02*
X212687500Y-100352250D01*
X212687500Y-104306250D02*
X217737500Y-104352250D01*
X223587500Y-106260250D02*
X219977500Y-106260250D01*
X223587500Y-102306250D02*
X223587500Y-106251250D01*
X212687500Y-100352250D02*
X221312500Y-100352250D01*
X223576500Y-102236250D02*
G75*
G03*
X221312500Y-100352250I-2074000J-190000D01*
G01*
X219972501Y-106236249D02*
G75*
G03*
X217712500Y-104356250I-2070000J-190001D01*
G01*
%TO.C,D42*%
X88400000Y-116775000D02*
X88400000Y-118175000D01*
X88400000Y-117475000D02*
X89300000Y-116775000D01*
X89300000Y-118175000D02*
X88400000Y-117475000D01*
X89300000Y-116775000D02*
X89300000Y-118175000D01*
%TO.C,JP4*%
X76104750Y-72675750D02*
X77882750Y-72675750D01*
X77882750Y-74961750D02*
X76104750Y-74961750D01*
X77882750Y-72675750D02*
X77882750Y-74961750D01*
X76104750Y-74961750D02*
X76104750Y-72675750D01*
%TO.C,RSW1*%
X70531250Y-90662500D02*
X71131250Y-90662500D01*
X74031250Y-96662500D02*
X74031250Y-90662500D01*
X74031250Y-96662500D02*
X73331250Y-96662500D01*
X70531250Y-96662500D02*
X71131250Y-96662500D01*
X74031250Y-90662500D02*
X73331250Y-90662500D01*
X70531250Y-90662500D02*
X70531250Y-96662500D01*
%TO.C,D25*%
X153487500Y-106362500D02*
X154387500Y-105662500D01*
X154387500Y-107062500D02*
X153487500Y-106362500D01*
X153487500Y-105662500D02*
X153487500Y-107062500D01*
X154387500Y-105662500D02*
X154387500Y-107062500D01*
%TO.C,SW9*%
X193637500Y-66206250D02*
X198687500Y-66252250D01*
X204537500Y-68160250D02*
X200927500Y-68160250D01*
X193637500Y-66160250D02*
X193637500Y-62252250D01*
X204537500Y-64206250D02*
X204537500Y-68151250D01*
X193637500Y-62252250D02*
X202262500Y-62252250D01*
X204526500Y-64136250D02*
G75*
G03*
X202262500Y-62252250I-2074000J-190000D01*
G01*
X200922501Y-68136249D02*
G75*
G03*
X198662500Y-66256250I-2070000J-190001D01*
G01*
%TO.C,D40*%
X105862500Y-135825000D02*
X105862500Y-137225000D01*
X106762500Y-135825000D02*
X106762500Y-137225000D01*
X105862500Y-136525000D02*
X106762500Y-135825000D01*
X106762500Y-137225000D02*
X105862500Y-136525000D01*
%TO.C,D41*%
X93646567Y-137900368D02*
X92656618Y-138890317D01*
X92515197Y-137758947D02*
X93646567Y-137900368D01*
X92656618Y-138890317D02*
X92515197Y-137758947D01*
X93010171Y-137263972D02*
X92020222Y-138253921D01*
%TO.C,D7*%
X96337500Y-54862500D02*
X96337500Y-56262500D01*
X96337500Y-55562500D02*
X97237500Y-54862500D01*
X97237500Y-56262500D02*
X96337500Y-55562500D01*
X97237500Y-54862500D02*
X97237500Y-56262500D01*
%TO.C,D38*%
X136131250Y-132462500D02*
X135231250Y-131762500D01*
X135231250Y-131762500D02*
X136131250Y-131062500D01*
X136131250Y-131062500D02*
X136131250Y-132462500D01*
X135231250Y-131062500D02*
X135231250Y-132462500D01*
%TO.C,D13*%
X118562500Y-58037500D02*
X118562500Y-59437500D01*
X118562500Y-58737500D02*
X119462500Y-58037500D01*
X119462500Y-58037500D02*
X119462500Y-59437500D01*
X119462500Y-59437500D02*
X118562500Y-58737500D01*
%TO.C,SW15*%
X212687500Y-85256250D02*
X217737500Y-85302250D01*
X212687500Y-85210250D02*
X212687500Y-81302250D01*
X212687500Y-81302250D02*
X221312500Y-81302250D01*
X223587500Y-87210250D02*
X219977500Y-87210250D01*
X223587500Y-83256250D02*
X223587500Y-87201250D01*
X223576500Y-83186250D02*
G75*
G03*
X221312500Y-81302250I-2074000J-190000D01*
G01*
X219972501Y-87186249D02*
G75*
G03*
X217712500Y-85306250I-2070000J-190001D01*
G01*
%TO.C,D11*%
X153487500Y-51687500D02*
X153487500Y-53087500D01*
X154387500Y-51687500D02*
X154387500Y-53087500D01*
X153487500Y-52387500D02*
X154387500Y-51687500D01*
X154387500Y-53087500D02*
X153487500Y-52387500D01*
%TO.C,D31*%
X172425000Y-128587500D02*
X173325000Y-127887500D01*
X172425000Y-127887500D02*
X172425000Y-129287500D01*
X173325000Y-127887500D02*
X173325000Y-129287500D01*
X173325000Y-129287500D02*
X172425000Y-128587500D01*
%TO.C,SW19*%
X136487500Y-75746000D02*
X145112500Y-75746000D01*
X136487500Y-79700000D02*
X141537500Y-79746000D01*
X147387500Y-81654000D02*
X143777500Y-81654000D01*
X147387500Y-77700000D02*
X147387500Y-81645000D01*
X136487500Y-79654000D02*
X136487500Y-75746000D01*
X143772501Y-81629999D02*
G75*
G03*
X141512500Y-79750000I-2070000J-190001D01*
G01*
X147376500Y-77630000D02*
G75*
G03*
X145112500Y-75746000I-2074000J-190000D01*
G01*
%TO.C,SW16*%
X193637500Y-81302250D02*
X202262500Y-81302250D01*
X204537500Y-87210250D02*
X200927500Y-87210250D01*
X193637500Y-85256250D02*
X198687500Y-85302250D01*
X204537500Y-83256250D02*
X204537500Y-87201250D01*
X193637500Y-85210250D02*
X193637500Y-81302250D01*
X200922501Y-87186249D02*
G75*
G03*
X198662500Y-85306250I-2070000J-190001D01*
G01*
X204526500Y-83186250D02*
G75*
G03*
X202262500Y-81302250I-2074000J-190000D01*
G01*
%TO.C,SW23*%
X193637500Y-104306250D02*
X198687500Y-104352250D01*
X193637500Y-104260250D02*
X193637500Y-100352250D01*
X204537500Y-102306250D02*
X204537500Y-106251250D01*
X204537500Y-106260250D02*
X200927500Y-106260250D01*
X193637500Y-100352250D02*
X202262500Y-100352250D01*
X200922501Y-106236249D02*
G75*
G03*
X198662500Y-104356250I-2070000J-190001D01*
G01*
X204526500Y-102236250D02*
G75*
G03*
X202262500Y-100352250I-2074000J-190000D01*
G01*
%TO.C,D36*%
X172537500Y-131062500D02*
X172537500Y-132462500D01*
X173437500Y-131062500D02*
X173437500Y-132462500D01*
X173437500Y-132462500D02*
X172537500Y-131762500D01*
X172537500Y-131762500D02*
X173437500Y-131062500D01*
%TO.C,SW39*%
X129131250Y-141979000D02*
X125521250Y-141979000D01*
X118231250Y-136071000D02*
X126856250Y-136071000D01*
X118231250Y-140025000D02*
X123281250Y-140071000D01*
X129131250Y-138025000D02*
X129131250Y-141970000D01*
X118231250Y-139979000D02*
X118231250Y-136071000D01*
X129120250Y-137955000D02*
G75*
G03*
X126856250Y-136071000I-2074000J-190000D01*
G01*
X125516251Y-141954999D02*
G75*
G03*
X123256250Y-140075000I-2070000J-190001D01*
G01*
%TO.C,SW36*%
X185487500Y-134850000D02*
X185487500Y-138795000D01*
X174587500Y-136804000D02*
X174587500Y-132896000D01*
X174587500Y-136850000D02*
X179637500Y-136896000D01*
X185487500Y-138804000D02*
X181877500Y-138804000D01*
X174587500Y-132896000D02*
X183212500Y-132896000D01*
X185476500Y-134780000D02*
G75*
G03*
X183212500Y-132896000I-2074000J-190000D01*
G01*
X181872501Y-138779999D02*
G75*
G03*
X179612500Y-136900000I-2070000J-190001D01*
G01*
%TO.C,SW18*%
X155537500Y-76479000D02*
X155537500Y-72571000D01*
X166437500Y-74525000D02*
X166437500Y-78470000D01*
X166437500Y-78479000D02*
X162827500Y-78479000D01*
X155537500Y-72571000D02*
X164162500Y-72571000D01*
X155537500Y-76525000D02*
X160587500Y-76571000D01*
X162822501Y-78454999D02*
G75*
G03*
X160562500Y-76575000I-2070000J-190001D01*
G01*
X166426500Y-74455000D02*
G75*
G03*
X164162500Y-72571000I-2074000J-190000D01*
G01*
%TO.C,D19*%
X135337500Y-91187500D02*
X134437500Y-90487500D01*
X134437500Y-90487500D02*
X135337500Y-89787500D01*
X135337500Y-89787500D02*
X135337500Y-91187500D01*
X134437500Y-89787500D02*
X134437500Y-91187500D01*
%TO.C,SW24*%
X174587500Y-94796000D02*
X183212500Y-94796000D01*
X174587500Y-98704000D02*
X174587500Y-94796000D01*
X185487500Y-96750000D02*
X185487500Y-100695000D01*
X185487500Y-100704000D02*
X181877500Y-100704000D01*
X174587500Y-98750000D02*
X179637500Y-98796000D01*
X185476500Y-96680000D02*
G75*
G03*
X183212500Y-94796000I-2074000J-190000D01*
G01*
X181872501Y-100679999D02*
G75*
G03*
X179612500Y-98800000I-2070000J-190001D01*
G01*
%TO.C,SW28*%
X98387500Y-101879000D02*
X98387500Y-97971000D01*
X109287500Y-99925000D02*
X109287500Y-103870000D01*
X109287500Y-103879000D02*
X105677500Y-103879000D01*
X98387500Y-97971000D02*
X107012500Y-97971000D01*
X98387500Y-101925000D02*
X103437500Y-101971000D01*
X109276500Y-99855000D02*
G75*
G03*
X107012500Y-97971000I-2074000J-190000D01*
G01*
X105672501Y-103854999D02*
G75*
G03*
X103412500Y-101975000I-2070000J-190001D01*
G01*
%TO.C,SW5*%
X147387500Y-43554000D02*
X143777500Y-43554000D01*
X136487500Y-41554000D02*
X136487500Y-37646000D01*
X136487500Y-37646000D02*
X145112500Y-37646000D01*
X136487500Y-41600000D02*
X141537500Y-41646000D01*
X147387500Y-39600000D02*
X147387500Y-43545000D01*
X147376500Y-39530000D02*
G75*
G03*
X145112500Y-37646000I-2074000J-190000D01*
G01*
X143772501Y-43529999D02*
G75*
G03*
X141512500Y-41650000I-2070000J-190001D01*
G01*
%TO.C,SW35*%
X109287500Y-122929000D02*
X105677500Y-122929000D01*
X98387500Y-120975000D02*
X103437500Y-121021000D01*
X109287500Y-118975000D02*
X109287500Y-122920000D01*
X98387500Y-117021000D02*
X107012500Y-117021000D01*
X98387500Y-120929000D02*
X98387500Y-117021000D01*
X105672501Y-122904999D02*
G75*
G03*
X103412500Y-121025000I-2070000J-190001D01*
G01*
X109276500Y-118905000D02*
G75*
G03*
X107012500Y-117021000I-2074000J-190000D01*
G01*
D11*
%TO.C,SW42*%
X77375000Y-118718750D02*
X73275000Y-118718750D01*
X85475000Y-128118750D02*
X85475000Y-130518750D01*
X79375000Y-124118750D02*
X79375000Y-125118750D01*
X85475000Y-123318750D02*
X85475000Y-125918750D01*
X78875000Y-124618750D02*
X79875000Y-124618750D01*
X85475000Y-118718750D02*
X85475000Y-121118750D01*
X85475000Y-130518750D02*
X81375000Y-130518750D01*
X81375000Y-118718750D02*
X85475000Y-118718750D01*
X73275000Y-118718750D02*
X73275000Y-130518750D01*
X77375000Y-130518750D02*
X73275000Y-130518750D01*
X82375000Y-124618750D02*
G75*
G03*
X82375000Y-124618750I-3000000J0D01*
G01*
D10*
%TO.C,D30*%
X192487500Y-117568750D02*
X192487500Y-118968750D01*
X192487500Y-118968750D02*
X191587500Y-118268750D01*
X191587500Y-117568750D02*
X191587500Y-118968750D01*
X191587500Y-118268750D02*
X192487500Y-117568750D01*
%TO.C,D5*%
X134437500Y-51687500D02*
X134437500Y-53087500D01*
X135337500Y-53087500D02*
X134437500Y-52387500D01*
X135337500Y-51687500D02*
X135337500Y-53087500D01*
X134437500Y-52387500D02*
X135337500Y-51687500D01*
%TO.C,D21*%
X96337500Y-93662500D02*
X97237500Y-92962500D01*
X97237500Y-94362500D02*
X96337500Y-93662500D01*
X97237500Y-92962500D02*
X97237500Y-94362500D01*
X96337500Y-92962500D02*
X96337500Y-94362500D01*
%TO.C,SW30*%
X204537500Y-121356250D02*
X204537500Y-125301250D01*
X204537500Y-125310250D02*
X200927500Y-125310250D01*
X193637500Y-123356250D02*
X198687500Y-123402250D01*
X193637500Y-119402250D02*
X202262500Y-119402250D01*
X193637500Y-123310250D02*
X193637500Y-119402250D01*
X204526500Y-121286250D02*
G75*
G03*
X202262500Y-119402250I-2074000J-190000D01*
G01*
X200922501Y-125286249D02*
G75*
G03*
X198662500Y-123406250I-2070000J-190001D01*
G01*
%TO.C,D22*%
X223337500Y-114393750D02*
X223337500Y-115793750D01*
X224237500Y-114393750D02*
X224237500Y-115793750D01*
X223337500Y-115093750D02*
X224237500Y-114393750D01*
X224237500Y-115793750D02*
X223337500Y-115093750D01*
%TO.C,D1*%
X224237500Y-58643750D02*
X223337500Y-57943750D01*
X223337500Y-57943750D02*
X224237500Y-57243750D01*
X223337500Y-57243750D02*
X223337500Y-58643750D01*
X224237500Y-57243750D02*
X224237500Y-58643750D01*
%TO.C,D33*%
X135337500Y-127887500D02*
X135337500Y-129287500D01*
X135337500Y-129287500D02*
X134437500Y-128587500D01*
X134437500Y-127887500D02*
X134437500Y-129287500D01*
X134437500Y-128587500D02*
X135337500Y-127887500D01*
%TO.C,SW29*%
X212687500Y-123310250D02*
X212687500Y-119402250D01*
X223587500Y-125310250D02*
X219977500Y-125310250D01*
X212687500Y-123356250D02*
X217737500Y-123402250D01*
X212687500Y-119402250D02*
X221312500Y-119402250D01*
X223587500Y-121356250D02*
X223587500Y-125301250D01*
X223576500Y-121286250D02*
G75*
G03*
X221312500Y-119402250I-2074000J-190000D01*
G01*
X219972501Y-125286249D02*
G75*
G03*
X217712500Y-123406250I-2070000J-190001D01*
G01*
D12*
%TO.C,U1*%
X89852500Y-37147500D02*
X89852500Y-34607500D01*
X74612500Y-37147500D02*
X72072500Y-37147500D01*
X72072500Y-37147500D02*
X72072500Y-67627500D01*
X72072500Y-34607500D02*
X72072500Y-37147500D01*
X72072500Y-67627500D02*
X89852500Y-67627500D01*
X74612500Y-39687500D02*
X72072500Y-39687500D01*
X89852500Y-67627500D02*
X89852500Y-37147500D01*
X89852500Y-34607500D02*
X72072500Y-34607500D01*
X74612500Y-37147500D02*
X74612500Y-39687500D01*
D10*
X85894068Y-43626860D02*
X85894068Y-43826860D01*
X85894068Y-43826860D02*
X85794068Y-43826860D01*
X85794068Y-43826860D02*
X85794068Y-43626860D01*
X85794068Y-43626860D02*
X85894068Y-43626860D01*
G36*
X85894068Y-43826860D02*
G01*
X85794068Y-43826860D01*
X85794068Y-43626860D01*
X85894068Y-43626860D01*
X85894068Y-43826860D01*
G37*
X85894068Y-43826860D02*
X85794068Y-43826860D01*
X85794068Y-43626860D01*
X85894068Y-43626860D01*
X85894068Y-43826860D01*
X85494068Y-43026860D02*
X85494068Y-43826860D01*
X85494068Y-43826860D02*
X85394068Y-43826860D01*
X85394068Y-43826860D02*
X85394068Y-43026860D01*
X85394068Y-43026860D02*
X85494068Y-43026860D01*
G36*
X85494068Y-43826860D02*
G01*
X85394068Y-43826860D01*
X85394068Y-43026860D01*
X85494068Y-43026860D01*
X85494068Y-43826860D01*
G37*
X85494068Y-43826860D02*
X85394068Y-43826860D01*
X85394068Y-43026860D01*
X85494068Y-43026860D01*
X85494068Y-43826860D01*
X85894068Y-43026860D02*
X85894068Y-43326860D01*
X85894068Y-43326860D02*
X85794068Y-43326860D01*
X85794068Y-43326860D02*
X85794068Y-43026860D01*
X85794068Y-43026860D02*
X85894068Y-43026860D01*
G36*
X85894068Y-43326860D02*
G01*
X85794068Y-43326860D01*
X85794068Y-43026860D01*
X85894068Y-43026860D01*
X85894068Y-43326860D01*
G37*
X85894068Y-43326860D02*
X85794068Y-43326860D01*
X85794068Y-43026860D01*
X85894068Y-43026860D01*
X85894068Y-43326860D01*
X85894068Y-43026860D02*
X85894068Y-43126860D01*
X85894068Y-43126860D02*
X85394068Y-43126860D01*
X85394068Y-43126860D02*
X85394068Y-43026860D01*
X85394068Y-43026860D02*
X85894068Y-43026860D01*
G36*
X85894068Y-43126860D02*
G01*
X85394068Y-43126860D01*
X85394068Y-43026860D01*
X85894068Y-43026860D01*
X85894068Y-43126860D01*
G37*
X85894068Y-43126860D02*
X85394068Y-43126860D01*
X85394068Y-43026860D01*
X85894068Y-43026860D01*
X85894068Y-43126860D01*
X85694068Y-43426860D02*
X85694068Y-43526860D01*
X85694068Y-43526860D02*
X85594068Y-43526860D01*
X85594068Y-43526860D02*
X85594068Y-43426860D01*
X85594068Y-43426860D02*
X85694068Y-43426860D01*
G36*
X85694068Y-43526860D02*
G01*
X85594068Y-43526860D01*
X85594068Y-43426860D01*
X85694068Y-43426860D01*
X85694068Y-43526860D01*
G37*
X85694068Y-43526860D02*
X85594068Y-43526860D01*
X85594068Y-43426860D01*
X85694068Y-43426860D01*
X85694068Y-43526860D01*
%TO.C,SW10*%
X174587500Y-60650000D02*
X179637500Y-60696000D01*
X174587500Y-60604000D02*
X174587500Y-56696000D01*
X185487500Y-62604000D02*
X181877500Y-62604000D01*
X185487500Y-58650000D02*
X185487500Y-62595000D01*
X174587500Y-56696000D02*
X183212500Y-56696000D01*
X181872501Y-62579999D02*
G75*
G03*
X179612500Y-60700000I-2070000J-190001D01*
G01*
X185476500Y-58580000D02*
G75*
G03*
X183212500Y-56696000I-2074000J-190000D01*
G01*
%TO.C,JP1*%
X85820250Y-74961750D02*
X84042250Y-74961750D01*
X84042250Y-72675750D02*
X85820250Y-72675750D01*
X84042250Y-74961750D02*
X84042250Y-72675750D01*
X85820250Y-72675750D02*
X85820250Y-74961750D01*
%TO.C,SW12*%
X136487500Y-56696000D02*
X145112500Y-56696000D01*
X136487500Y-60650000D02*
X141537500Y-60696000D01*
X147387500Y-58650000D02*
X147387500Y-62595000D01*
X136487500Y-60604000D02*
X136487500Y-56696000D01*
X147387500Y-62604000D02*
X143777500Y-62604000D01*
X147376500Y-58580000D02*
G75*
G03*
X145112500Y-56696000I-2074000J-190000D01*
G01*
X143772501Y-62579999D02*
G75*
G03*
X141512500Y-60700000I-2070000J-190001D01*
G01*
%TO.C,SW2*%
X193637500Y-43202250D02*
X202262500Y-43202250D01*
X204537500Y-49110250D02*
X200927500Y-49110250D01*
X193637500Y-47110250D02*
X193637500Y-43202250D01*
X204537500Y-45156250D02*
X204537500Y-49101250D01*
X193637500Y-47156250D02*
X198687500Y-47202250D01*
X204526500Y-45086250D02*
G75*
G03*
X202262500Y-43202250I-2074000J-190000D01*
G01*
X200922501Y-49086249D02*
G75*
G03*
X198662500Y-47206250I-2070000J-190001D01*
G01*
%TO.C,SW8*%
X223587500Y-64206250D02*
X223587500Y-68151250D01*
X212687500Y-66160250D02*
X212687500Y-62252250D01*
X223587500Y-68160250D02*
X219977500Y-68160250D01*
X212687500Y-62252250D02*
X221312500Y-62252250D01*
X212687500Y-66206250D02*
X217737500Y-66252250D01*
X219972501Y-68136249D02*
G75*
G03*
X217712500Y-66256250I-2070000J-190001D01*
G01*
X223576500Y-64136250D02*
G75*
G03*
X221312500Y-62252250I-2074000J-190000D01*
G01*
%TO.C,D2*%
X192487500Y-58643750D02*
X191587500Y-57943750D01*
X192487500Y-57243750D02*
X192487500Y-58643750D01*
X191587500Y-57243750D02*
X191587500Y-58643750D01*
X191587500Y-57943750D02*
X192487500Y-57243750D01*
%TO.C,SW38*%
X148181250Y-134850000D02*
X148181250Y-138795000D01*
X137281250Y-136850000D02*
X142331250Y-136896000D01*
X137281250Y-132896000D02*
X145906250Y-132896000D01*
X137281250Y-136804000D02*
X137281250Y-132896000D01*
X148181250Y-138804000D02*
X144571250Y-138804000D01*
X144566251Y-138779999D02*
G75*
G03*
X142306250Y-136900000I-2070000J-190001D01*
G01*
X148170250Y-134780000D02*
G75*
G03*
X145906250Y-132896000I-2074000J-190000D01*
G01*
%TO.C,D26*%
X134437500Y-109537500D02*
X135337500Y-108837500D01*
X135337500Y-110237500D02*
X134437500Y-109537500D01*
X135337500Y-108837500D02*
X135337500Y-110237500D01*
X134437500Y-108837500D02*
X134437500Y-110237500D01*
%TO.C,D24*%
X172425000Y-109537500D02*
X173325000Y-108837500D01*
X173325000Y-108837500D02*
X173325000Y-110237500D01*
X172425000Y-108837500D02*
X172425000Y-110237500D01*
X173325000Y-110237500D02*
X172425000Y-109537500D01*
%TO.C,D28*%
X96337500Y-112712500D02*
X97237500Y-112012500D01*
X97237500Y-113412500D02*
X96337500Y-112712500D01*
X96337500Y-112012500D02*
X96337500Y-113412500D01*
X97237500Y-112012500D02*
X97237500Y-113412500D01*
%TO.C,D34*%
X115387500Y-131762500D02*
X116287500Y-131062500D01*
X115387500Y-131062500D02*
X115387500Y-132462500D01*
X116287500Y-131062500D02*
X116287500Y-132462500D01*
X116287500Y-132462500D02*
X115387500Y-131762500D01*
%TO.C,SW6*%
X128337500Y-46729000D02*
X124727500Y-46729000D01*
X128337500Y-42775000D02*
X128337500Y-46720000D01*
X117437500Y-44729000D02*
X117437500Y-40821000D01*
X117437500Y-44775000D02*
X122487500Y-44821000D01*
X117437500Y-40821000D02*
X126062500Y-40821000D01*
X128326500Y-42705000D02*
G75*
G03*
X126062500Y-40821000I-2074000J-190000D01*
G01*
X124722501Y-46704999D02*
G75*
G03*
X122462500Y-44825000I-2070000J-190001D01*
G01*
%TO.C,SW34*%
X117437500Y-117021000D02*
X126062500Y-117021000D01*
X117437500Y-120975000D02*
X122487500Y-121021000D01*
X128337500Y-118975000D02*
X128337500Y-122920000D01*
X128337500Y-122929000D02*
X124727500Y-122929000D01*
X117437500Y-120929000D02*
X117437500Y-117021000D01*
X128326500Y-118905000D02*
G75*
G03*
X126062500Y-117021000I-2074000J-190000D01*
G01*
X124722501Y-122904999D02*
G75*
G03*
X122462500Y-121025000I-2070000J-190001D01*
G01*
%TO.C,J2*%
X75882500Y-76517500D02*
X86042500Y-76517500D01*
X86042500Y-76517500D02*
X86042500Y-79057500D01*
X75882500Y-79057500D02*
X75882500Y-76517500D01*
X75882500Y-79057500D02*
X86042500Y-79057500D01*
%TO.C,JP2*%
X83439000Y-72675750D02*
X83439000Y-74961750D01*
X81661000Y-74961750D02*
X81661000Y-72675750D01*
X83439000Y-74961750D02*
X81661000Y-74961750D01*
X81661000Y-72675750D02*
X83439000Y-72675750D01*
%TO.C,SW7*%
X109287500Y-42775000D02*
X109287500Y-46720000D01*
X98387500Y-44775000D02*
X103437500Y-44821000D01*
X98387500Y-44729000D02*
X98387500Y-40821000D01*
X109287500Y-46729000D02*
X105677500Y-46729000D01*
X98387500Y-40821000D02*
X107012500Y-40821000D01*
X105672501Y-46704999D02*
G75*
G03*
X103412500Y-44825000I-2070000J-190001D01*
G01*
X109276500Y-42705000D02*
G75*
G03*
X107012500Y-40821000I-2074000J-190000D01*
G01*
%TO.C,D18*%
X154387500Y-86612500D02*
X154387500Y-88012500D01*
X154387500Y-88012500D02*
X153487500Y-87312500D01*
X153487500Y-86612500D02*
X153487500Y-88012500D01*
X153487500Y-87312500D02*
X154387500Y-86612500D01*
%TO.C,SW25*%
X166437500Y-93575000D02*
X166437500Y-97520000D01*
X155537500Y-95575000D02*
X160587500Y-95621000D01*
X155537500Y-95529000D02*
X155537500Y-91621000D01*
X166437500Y-97529000D02*
X162827500Y-97529000D01*
X155537500Y-91621000D02*
X164162500Y-91621000D01*
X166426500Y-93505000D02*
G75*
G03*
X164162500Y-91621000I-2074000J-190000D01*
G01*
X162822501Y-97504999D02*
G75*
G03*
X160562500Y-95625000I-2070000J-190001D01*
G01*
%TO.C,SW26*%
X147387500Y-96750000D02*
X147387500Y-100695000D01*
X147387500Y-100704000D02*
X143777500Y-100704000D01*
X136487500Y-98750000D02*
X141537500Y-98796000D01*
X136487500Y-98704000D02*
X136487500Y-94796000D01*
X136487500Y-94796000D02*
X145112500Y-94796000D01*
X147376500Y-96680000D02*
G75*
G03*
X145112500Y-94796000I-2074000J-190000D01*
G01*
X143772501Y-100679999D02*
G75*
G03*
X141512500Y-98800000I-2070000J-190001D01*
G01*
%TO.C,SW27*%
X128337500Y-103879000D02*
X124727500Y-103879000D01*
X117437500Y-101879000D02*
X117437500Y-97971000D01*
X117437500Y-101925000D02*
X122487500Y-101971000D01*
X128337500Y-99925000D02*
X128337500Y-103870000D01*
X117437500Y-97971000D02*
X126062500Y-97971000D01*
X124722501Y-103854999D02*
G75*
G03*
X122462500Y-101975000I-2070000J-190001D01*
G01*
X128326500Y-99855000D02*
G75*
G03*
X126062500Y-97971000I-2074000J-190000D01*
G01*
%TD*%
D13*
%TO.C,J3*%
X72093750Y-103268750D03*
X79093750Y-101518750D03*
X72093750Y-101518750D03*
X79093750Y-103268750D03*
D14*
X80893750Y-105368750D03*
X80893750Y-99418750D03*
X76893750Y-99418750D03*
X76893750Y-105368750D03*
X73893750Y-99418750D03*
X73893750Y-105368750D03*
X82393750Y-101168750D03*
X82393750Y-103618750D03*
%TD*%
D15*
%TO.C,U1*%
X73342500Y-38417500D03*
D16*
X73342500Y-40957500D03*
X73342500Y-43497500D03*
X73342500Y-46037500D03*
X73342500Y-48577500D03*
X73342500Y-51117500D03*
X73342500Y-53657500D03*
X73342500Y-56197500D03*
X73342500Y-58737500D03*
X73342500Y-61277500D03*
X73342500Y-63817500D03*
X73571100Y-66357500D03*
X88582500Y-66357500D03*
X88582500Y-63817500D03*
X88582500Y-61277500D03*
X88582500Y-58737500D03*
X88582500Y-56197500D03*
X88582500Y-53657500D03*
X88582500Y-51117500D03*
X88582500Y-48577500D03*
X88582500Y-46037500D03*
X88582500Y-43497500D03*
X88582500Y-40957500D03*
X88582500Y-38417500D03*
X75882500Y-66357500D03*
X78422500Y-66357500D03*
X80962500Y-66357500D03*
X83502500Y-66357500D03*
X86042500Y-66357500D03*
%TD*%
D17*
%TO.C,J2*%
X77152500Y-77787500D03*
X79692500Y-77787500D03*
X82232500Y-77787500D03*
X84772500Y-77787500D03*
%TD*%
M02*
