M48
; DRILL file {KiCad (6.0.1)} date Mon Feb 14 18:22:39 2022
; FORMAT={-:-/ absolute / metric / decimal}
; #@! TF.CreationDate,2022-02-14T18:22:39+08:00
; #@! TF.GenerationSoftware,Kicad,Pcbnew,(6.0.1)
; #@! TF.FileFunction,NonPlated,1,2,NPTH
FMAT,2
METRIC
; #@! TA.AperFunction,NonPlated,NPTH,ComponentDrill
T1C1.200
; #@! TA.AperFunction,NonPlated,NPTH,ComponentDrill
T2C1.700
; #@! TA.AperFunction,NonPlated,NPTH,ComponentDrill
T3C3.000
; #@! TA.AperFunction,NonPlated,NPTH,ComponentDrill
T4C4.000
%
G90
G05
T1
X72.094Y-101.519
X72.094Y-103.269
X79.094Y-101.519
X79.094Y-103.269
T2
X74.195Y-153.57
X81.38Y-160.755
X95.408Y-149.784
X98.108Y-47.625
X98.108Y-66.675
X98.108Y-85.725
X98.108Y-104.775
X98.108Y-123.825
X104.617Y-145.491
X108.267Y-47.625
X108.267Y-66.675
X108.267Y-85.725
X108.267Y-104.775
X108.267Y-123.825
X117.157Y-47.625
X117.157Y-66.675
X117.157Y-85.725
X117.157Y-104.775
X117.157Y-123.825
X117.951Y-142.875
X127.317Y-47.625
X127.317Y-66.675
X127.317Y-85.725
X127.317Y-104.775
X127.317Y-123.825
X128.111Y-142.875
X136.207Y-44.45
X136.207Y-63.5
X136.207Y-82.55
X136.207Y-101.6
X136.207Y-120.65
X137.001Y-139.7
X146.368Y-44.45
X146.368Y-63.5
X146.368Y-82.55
X146.368Y-101.6
X146.368Y-120.65
X147.161Y-139.7
X155.257Y-41.275
X155.257Y-60.325
X155.257Y-79.375
X155.257Y-98.425
X155.257Y-117.475
X156.051Y-136.525
X165.417Y-41.275
X165.417Y-60.325
X165.417Y-79.375
X165.417Y-98.425
X165.417Y-117.475
X166.211Y-136.525
X174.308Y-44.45
X174.308Y-63.5
X174.308Y-82.55
X174.308Y-101.6
X174.308Y-120.65
X174.308Y-139.7
X184.468Y-44.45
X184.468Y-63.5
X184.468Y-82.55
X184.468Y-101.6
X184.468Y-120.65
X184.468Y-139.7
X193.357Y-50.006
X193.357Y-69.056
X193.357Y-88.106
X193.357Y-107.156
X193.357Y-126.206
X203.517Y-50.006
X203.517Y-69.056
X203.517Y-88.106
X203.517Y-107.156
X203.517Y-126.206
X212.407Y-50.006
X212.407Y-69.056
X212.407Y-88.106
X212.407Y-107.156
X212.407Y-126.206
X222.567Y-50.006
X222.567Y-69.056
X222.567Y-88.106
X222.567Y-107.156
X222.567Y-126.206
T3
X76.889Y-152.672
X79.584Y-151.774
X82.278Y-158.061
X83.176Y-155.366
X95.486Y-146.946
X95.564Y-144.107
X99.377Y-45.085
X99.377Y-64.135
X99.377Y-83.185
X99.377Y-102.235
X99.377Y-121.285
X100.168Y-141.96
X100.647Y-42.545
X100.647Y-61.595
X100.647Y-80.645
X100.647Y-99.695
X100.647Y-118.745
X102.392Y-143.725
X105.727Y-42.545
X105.727Y-61.595
X105.727Y-80.645
X105.727Y-99.695
X105.727Y-118.745
X106.997Y-45.085
X106.997Y-64.135
X106.997Y-83.185
X106.997Y-102.235
X106.997Y-121.285
X118.427Y-45.085
X118.427Y-64.135
X118.427Y-83.185
X118.427Y-102.235
X118.427Y-121.285
X119.221Y-140.335
X119.697Y-42.545
X119.697Y-61.595
X119.697Y-80.645
X119.697Y-99.695
X119.697Y-118.745
X120.491Y-137.795
X124.777Y-42.545
X124.777Y-61.595
X124.777Y-80.645
X124.777Y-99.695
X124.777Y-118.745
X125.571Y-137.795
X126.047Y-45.085
X126.047Y-64.135
X126.047Y-83.185
X126.047Y-102.235
X126.047Y-121.285
X126.841Y-140.335
X137.477Y-41.91
X137.477Y-60.96
X137.477Y-80.01
X137.477Y-99.06
X137.477Y-118.11
X138.271Y-137.16
X138.748Y-39.37
X138.748Y-58.42
X138.748Y-77.47
X138.748Y-96.52
X138.748Y-115.57
X139.541Y-134.62
X143.827Y-39.37
X143.827Y-58.42
X143.827Y-77.47
X143.827Y-96.52
X143.827Y-115.57
X144.621Y-134.62
X145.097Y-41.91
X145.097Y-60.96
X145.097Y-80.01
X145.097Y-99.06
X145.097Y-118.11
X145.891Y-137.16
X156.528Y-38.735
X156.528Y-57.785
X156.528Y-76.835
X156.528Y-95.885
X156.528Y-114.935
X157.321Y-133.985
X157.797Y-36.195
X157.797Y-55.245
X157.797Y-74.295
X157.797Y-93.345
X157.797Y-112.395
X158.591Y-131.445
X162.877Y-36.195
X162.877Y-55.245
X162.877Y-74.295
X162.877Y-93.345
X162.877Y-112.395
X163.671Y-131.445
X164.147Y-38.735
X164.147Y-57.785
X164.147Y-76.835
X164.147Y-95.885
X164.147Y-114.935
X164.941Y-133.985
X175.577Y-41.91
X175.577Y-60.96
X175.577Y-80.01
X175.577Y-99.06
X175.577Y-118.11
X175.577Y-137.16
X176.847Y-39.37
X176.847Y-58.42
X176.847Y-77.47
X176.847Y-96.52
X176.847Y-115.57
X176.847Y-134.62
X181.927Y-39.37
X181.927Y-58.42
X181.927Y-77.47
X181.927Y-96.52
X181.927Y-115.57
X181.927Y-134.62
X183.197Y-41.91
X183.197Y-60.96
X183.197Y-80.01
X183.197Y-99.06
X183.197Y-118.11
X183.197Y-137.16
X194.627Y-47.466
X194.627Y-66.516
X194.627Y-85.566
X194.627Y-104.616
X194.627Y-123.666
X195.897Y-44.926
X195.897Y-63.976
X195.897Y-83.026
X195.897Y-102.076
X195.897Y-121.126
X200.977Y-44.926
X200.977Y-63.976
X200.977Y-83.026
X200.977Y-102.076
X200.977Y-121.126
X202.248Y-47.466
X202.248Y-66.516
X202.248Y-85.566
X202.248Y-104.616
X202.248Y-123.666
X213.677Y-47.466
X213.677Y-66.516
X213.677Y-85.566
X213.677Y-104.616
X213.677Y-123.666
X214.947Y-44.926
X214.947Y-63.976
X214.947Y-83.026
X214.947Y-102.076
X214.947Y-121.126
X220.028Y-44.926
X220.028Y-63.976
X220.028Y-83.026
X220.028Y-102.076
X220.028Y-121.126
X221.297Y-47.466
X221.297Y-66.516
X221.297Y-85.566
X221.297Y-104.616
X221.297Y-123.666
T4
X77.787Y-157.162
X100.012Y-147.637
X103.188Y-47.625
X103.188Y-66.675
X103.188Y-85.725
X103.188Y-104.775
X103.188Y-123.825
X122.237Y-47.625
X122.237Y-66.675
X122.237Y-85.725
X122.237Y-104.775
X122.237Y-123.825
X123.031Y-142.875
X141.287Y-44.45
X141.287Y-63.5
X141.287Y-82.55
X141.287Y-101.6
X141.287Y-120.65
X142.081Y-139.7
X160.338Y-41.275
X160.338Y-60.325
X160.338Y-79.375
X160.338Y-98.425
X160.338Y-117.475
X161.131Y-136.525
X179.387Y-44.45
X179.387Y-63.5
X179.387Y-82.55
X179.387Y-101.6
X179.387Y-120.65
X179.387Y-139.7
X198.438Y-50.006
X198.438Y-69.056
X198.438Y-88.106
X198.438Y-107.156
X198.438Y-126.206
X217.487Y-50.006
X217.487Y-69.056
X217.487Y-88.106
X217.487Y-107.156
X217.487Y-126.206
T0
M30
