%TF.GenerationSoftware,KiCad,Pcbnew,(6.0.1)*%
%TF.CreationDate,2022-02-14T18:22:42+08:00*%
%TF.ProjectId,Sofle_Extended,536f666c-655f-4457-9874-656e6465642e,rev?*%
%TF.SameCoordinates,Original*%
%TF.FileFunction,Paste,Top*%
%TF.FilePolarity,Positive*%
%FSLAX46Y46*%
G04 Gerber Fmt 4.6, Leading zero omitted, Abs format (unit mm)*
G04 Created by KiCad (PCBNEW (6.0.1)) date 2022-02-14 18:22:42*
%MOMM*%
%LPD*%
G01*
G04 APERTURE LIST*
G04 Aperture macros list*
%AMRoundRect*
0 Rectangle with rounded corners*
0 $1 Rounding radius*
0 $2 $3 $4 $5 $6 $7 $8 $9 X,Y pos of 4 corners*
0 Add a 4 corners polygon primitive as box body*
4,1,4,$2,$3,$4,$5,$6,$7,$8,$9,$2,$3,0*
0 Add four circle primitives for the rounded corners*
1,1,$1+$1,$2,$3*
1,1,$1+$1,$4,$5*
1,1,$1+$1,$6,$7*
1,1,$1+$1,$8,$9*
0 Add four rect primitives between the rounded corners*
20,1,$1+$1,$2,$3,$4,$5,0*
20,1,$1+$1,$4,$5,$6,$7,0*
20,1,$1+$1,$6,$7,$8,$9,0*
20,1,$1+$1,$8,$9,$2,$3,0*%
%AMFreePoly0*
4,1,24,2.735355,1.235355,2.750000,1.200000,2.750000,-0.800000,2.748029,-0.804757,2.749028,-0.809806,2.740927,-0.821903,2.735355,-0.835355,2.730600,-0.837325,2.727735,-0.841603,2.127735,-1.241603,2.113450,-1.244429,2.100000,-1.250000,0.300001,-1.250000,0.264645,-1.235355,0.250000,-1.200000,0.250000,-0.750000,-0.349999,-0.750000,-0.349999,0.750000,0.250000,0.750000,0.250000,1.200000,
0.264645,1.235355,0.300001,1.250000,2.700000,1.250000,2.735355,1.235355,2.735355,1.235355,$1*%
%AMFreePoly1*
4,1,17,-0.364645,1.235355,-0.350000,1.200001,-0.349999,0.750000,0.349999,0.750000,0.349999,-0.750000,-0.349999,-0.750000,-0.350000,-1.200001,-0.364645,-1.235355,-0.400000,-1.250000,-2.800000,-1.249999,-2.835355,-1.235355,-2.850000,-1.200000,-2.850000,1.200000,-2.835355,1.235355,-2.800000,1.249999,-0.400000,1.250000,-0.364645,1.235355,-0.364645,1.235355,$1*%
G04 Aperture macros list end*
%ADD10FreePoly0,315.000000*%
%ADD11FreePoly1,315.000000*%
%ADD12FreePoly0,0.000000*%
%ADD13FreePoly1,0.000000*%
%ADD14R,0.635000X1.143000*%
%ADD15R,1.143000X0.635000*%
%ADD16FreePoly0,25.000000*%
%ADD17FreePoly1,25.000000*%
%ADD18RoundRect,0.250000X-0.625000X0.375000X-0.625000X-0.375000X0.625000X-0.375000X0.625000X0.375000X0*%
%ADD19RoundRect,0.250000X0.625000X-0.375000X0.625000X0.375000X-0.625000X0.375000X-0.625000X-0.375000X0*%
G04 APERTURE END LIST*
D10*
%TO.C,SW41*%
X76302576Y-148465087D03*
D11*
X85565675Y-161405141D03*
%TD*%
D12*
%TO.C,SW3*%
X172187500Y-39350000D03*
D13*
X187887500Y-41950000D03*
%TD*%
D12*
%TO.C,SW37*%
X153931250Y-131425000D03*
D13*
X169631250Y-134025000D03*
%TD*%
D12*
%TO.C,SW31*%
X172187500Y-115550000D03*
D13*
X187887500Y-118150000D03*
%TD*%
D12*
%TO.C,SW13*%
X115037500Y-61575000D03*
D13*
X130737500Y-64175000D03*
%TD*%
D12*
%TO.C,SW1*%
X210287500Y-44906250D03*
D13*
X225987500Y-47506250D03*
%TD*%
D14*
%TO.C,JP10*%
X80462120Y-54768750D03*
X81462880Y-54768750D03*
%TD*%
%TO.C,JP9*%
X80168750Y-57150000D03*
X81169510Y-57150000D03*
%TD*%
D12*
%TO.C,SW21*%
X95987500Y-80625000D03*
D13*
X111687500Y-83225000D03*
%TD*%
D12*
%TO.C,SW4*%
X153137500Y-36175000D03*
D13*
X168837500Y-38775000D03*
%TD*%
D15*
%TO.C,JP3*%
X79375000Y-74319130D03*
X79375000Y-73318370D03*
%TD*%
D12*
%TO.C,SW33*%
X134087500Y-115550000D03*
D13*
X149787500Y-118150000D03*
%TD*%
D12*
%TO.C,SW14*%
X95987500Y-61575000D03*
D13*
X111687500Y-64175000D03*
%TD*%
D12*
%TO.C,SW17*%
X172187500Y-77450000D03*
D13*
X187887500Y-80050000D03*
%TD*%
D16*
%TO.C,SW40*%
X91331731Y-146058182D03*
D17*
X106659571Y-141779475D03*
%TD*%
D12*
%TO.C,SW20*%
X115037500Y-80625000D03*
D13*
X130737500Y-83225000D03*
%TD*%
D12*
%TO.C,SW32*%
X153137500Y-112375000D03*
D13*
X168837500Y-114975000D03*
%TD*%
D12*
%TO.C,SW11*%
X153137500Y-55225000D03*
D13*
X168837500Y-57825000D03*
%TD*%
D12*
%TO.C,SW22*%
X210287500Y-102056250D03*
D13*
X225987500Y-104656250D03*
%TD*%
D15*
%TO.C,JP4*%
X76993750Y-74319130D03*
X76993750Y-73318370D03*
%TD*%
D12*
%TO.C,SW9*%
X191237500Y-63956250D03*
D13*
X206937500Y-66556250D03*
%TD*%
D12*
%TO.C,SW15*%
X210287500Y-83006250D03*
D13*
X225987500Y-85606250D03*
%TD*%
D12*
%TO.C,SW19*%
X134087500Y-77450000D03*
D13*
X149787500Y-80050000D03*
%TD*%
D12*
%TO.C,SW16*%
X191237500Y-83006250D03*
D13*
X206937500Y-85606250D03*
%TD*%
D12*
%TO.C,SW23*%
X191237500Y-102056250D03*
D13*
X206937500Y-104656250D03*
%TD*%
D12*
%TO.C,SW39*%
X115831250Y-137775000D03*
D13*
X131531250Y-140375000D03*
%TD*%
D12*
%TO.C,SW36*%
X172187500Y-134600000D03*
D13*
X187887500Y-137200000D03*
%TD*%
D12*
%TO.C,SW18*%
X153137500Y-74275000D03*
D13*
X168837500Y-76875000D03*
%TD*%
D12*
%TO.C,SW24*%
X172187500Y-96500000D03*
D13*
X187887500Y-99100000D03*
%TD*%
D12*
%TO.C,SW28*%
X95987500Y-99675000D03*
D13*
X111687500Y-102275000D03*
%TD*%
D12*
%TO.C,SW5*%
X134087500Y-39350000D03*
D13*
X149787500Y-41950000D03*
%TD*%
D12*
%TO.C,SW35*%
X95987500Y-118725000D03*
D13*
X111687500Y-121325000D03*
%TD*%
D12*
%TO.C,SW30*%
X191237500Y-121106250D03*
D13*
X206937500Y-123706250D03*
%TD*%
D12*
%TO.C,SW29*%
X210287500Y-121106250D03*
D13*
X225987500Y-123706250D03*
%TD*%
D12*
%TO.C,SW10*%
X172187500Y-58400000D03*
D13*
X187887500Y-61000000D03*
%TD*%
D15*
%TO.C,JP1*%
X84931250Y-74319130D03*
X84931250Y-73318370D03*
%TD*%
D12*
%TO.C,SW12*%
X134087500Y-58400000D03*
D13*
X149787500Y-61000000D03*
%TD*%
D12*
%TO.C,SW2*%
X191237500Y-44906250D03*
D13*
X206937500Y-47506250D03*
%TD*%
D12*
%TO.C,SW8*%
X210287500Y-63956250D03*
D13*
X225987500Y-66556250D03*
%TD*%
D12*
%TO.C,SW38*%
X134881250Y-134600000D03*
D13*
X150581250Y-137200000D03*
%TD*%
D12*
%TO.C,SW6*%
X115037500Y-42525000D03*
D13*
X130737500Y-45125000D03*
%TD*%
D12*
%TO.C,SW34*%
X115037500Y-118725000D03*
D13*
X130737500Y-121325000D03*
%TD*%
D15*
%TO.C,JP2*%
X82550000Y-74319130D03*
X82550000Y-73318370D03*
%TD*%
D12*
%TO.C,SW7*%
X95987500Y-42525000D03*
D13*
X111687500Y-45125000D03*
%TD*%
D12*
%TO.C,SW25*%
X153137500Y-93325000D03*
D13*
X168837500Y-95925000D03*
%TD*%
D12*
%TO.C,SW26*%
X134087500Y-96500000D03*
D13*
X149787500Y-99100000D03*
%TD*%
D12*
%TO.C,SW27*%
X115037500Y-99675000D03*
D13*
X130737500Y-102275000D03*
%TD*%
D18*
%TO.C,R2*%
X79375000Y-47812500D03*
X79375000Y-50612500D03*
%TD*%
D19*
%TO.C,R1*%
X82550000Y-50612500D03*
X82550000Y-47812500D03*
%TD*%
M02*
