%TF.GenerationSoftware,KiCad,Pcbnew,(6.0.1)*%
%TF.CreationDate,2022-02-14T18:22:42+08:00*%
%TF.ProjectId,Sofle_Extended,536f666c-655f-4457-9874-656e6465642e,rev?*%
%TF.SameCoordinates,Original*%
%TF.FileFunction,Paste,Bot*%
%TF.FilePolarity,Positive*%
%FSLAX46Y46*%
G04 Gerber Fmt 4.6, Leading zero omitted, Abs format (unit mm)*
G04 Created by KiCad (PCBNEW (6.0.1)) date 2022-02-14 18:22:42*
%MOMM*%
%LPD*%
G01*
G04 APERTURE LIST*
G04 Aperture macros list*
%AMFreePoly0*
4,1,17,2.735355,1.235355,2.750000,1.200000,2.750000,-1.200000,2.735355,-1.235355,2.700000,-1.250000,0.300001,-1.250000,0.264645,-1.235355,0.250000,-1.200000,0.250000,-0.750000,-0.349999,-0.750000,-0.349999,0.750000,0.250000,0.750000,0.250000,1.200000,0.264645,1.235355,0.300001,1.250000,2.700000,1.250000,2.735355,1.235355,2.735355,1.235355,$1*%
%AMFreePoly1*
4,1,24,-0.364645,1.235355,-0.350000,1.200001,-0.349999,0.750000,0.349999,0.750000,0.349999,-0.750000,-0.349999,-0.750000,-0.350000,-1.200001,-0.364645,-1.235355,-0.400000,-1.250000,-2.300000,-1.250000,-2.315318,-1.243655,-2.331235,-1.239043,-2.831234,-0.839043,-2.832649,-0.836476,-2.835355,-0.835355,-2.841697,-0.820044,-2.849694,-0.805522,-2.848878,-0.802708,-2.850000,-0.800000,-2.850000,1.200000,
-2.835355,1.235355,-2.800000,1.249999,-0.400000,1.250000,-0.364645,1.235355,-0.364645,1.235355,$1*%
G04 Aperture macros list end*
%ADD10FreePoly0,315.000000*%
%ADD11FreePoly1,315.000000*%
%ADD12FreePoly0,0.000000*%
%ADD13FreePoly1,0.000000*%
%ADD14FreePoly0,25.000000*%
%ADD15FreePoly1,25.000000*%
%ADD16R,1.143000X0.635000*%
G04 APERTURE END LIST*
D10*
%TO.C,SW41*%
X73544859Y-149384325D03*
D11*
X86484913Y-158647424D03*
%TD*%
D12*
%TO.C,SW3*%
X170887500Y-41950000D03*
D13*
X186587500Y-39350000D03*
%TD*%
D12*
%TO.C,SW37*%
X152631250Y-134025000D03*
D13*
X168331250Y-131425000D03*
%TD*%
D12*
%TO.C,SW31*%
X170887500Y-118150000D03*
D13*
X186587500Y-115550000D03*
%TD*%
D12*
%TO.C,SW13*%
X113737500Y-64175000D03*
D13*
X129437500Y-61575000D03*
%TD*%
D12*
%TO.C,SW1*%
X208987500Y-47506250D03*
D13*
X224687500Y-44906250D03*
%TD*%
D12*
%TO.C,SW21*%
X94687500Y-83225000D03*
D13*
X110387500Y-80625000D03*
%TD*%
D12*
%TO.C,SW4*%
X151837500Y-38775000D03*
D13*
X167537500Y-36175000D03*
%TD*%
D12*
%TO.C,SW33*%
X132787500Y-118150000D03*
D13*
X148487500Y-115550000D03*
%TD*%
D12*
%TO.C,SW14*%
X94687500Y-64175000D03*
D13*
X110387500Y-61575000D03*
%TD*%
D12*
%TO.C,SW17*%
X170887500Y-80050000D03*
D13*
X186587500Y-77450000D03*
%TD*%
D14*
%TO.C,SW40*%
X91252338Y-148963986D03*
D15*
X104382563Y-139972479D03*
%TD*%
D12*
%TO.C,SW20*%
X113737500Y-83225000D03*
D13*
X129437500Y-80625000D03*
%TD*%
D12*
%TO.C,SW32*%
X151837500Y-114975000D03*
D13*
X167537500Y-112375000D03*
%TD*%
D12*
%TO.C,SW11*%
X151837500Y-57825000D03*
D13*
X167537500Y-55225000D03*
%TD*%
D12*
%TO.C,SW22*%
X208987500Y-104656250D03*
D13*
X224687500Y-102056250D03*
%TD*%
D12*
%TO.C,SW9*%
X189937500Y-66556250D03*
D13*
X205637500Y-63956250D03*
%TD*%
D12*
%TO.C,SW15*%
X208987500Y-85606250D03*
D13*
X224687500Y-83006250D03*
%TD*%
D12*
%TO.C,SW19*%
X132787500Y-80050000D03*
D13*
X148487500Y-77450000D03*
%TD*%
D12*
%TO.C,SW16*%
X189937500Y-85606250D03*
D13*
X205637500Y-83006250D03*
%TD*%
D12*
%TO.C,SW23*%
X189937500Y-104656250D03*
D13*
X205637500Y-102056250D03*
%TD*%
D12*
%TO.C,SW39*%
X114531250Y-140375000D03*
D13*
X130231250Y-137775000D03*
%TD*%
D12*
%TO.C,SW36*%
X170887500Y-137200000D03*
D13*
X186587500Y-134600000D03*
%TD*%
D12*
%TO.C,SW18*%
X151837500Y-76875000D03*
D13*
X167537500Y-74275000D03*
%TD*%
D12*
%TO.C,SW24*%
X170887500Y-99100000D03*
D13*
X186587500Y-96500000D03*
%TD*%
D12*
%TO.C,SW28*%
X94687500Y-102275000D03*
D13*
X110387500Y-99675000D03*
%TD*%
D12*
%TO.C,SW5*%
X132787500Y-41950000D03*
D13*
X148487500Y-39350000D03*
%TD*%
D12*
%TO.C,SW35*%
X94687500Y-121325000D03*
D13*
X110387500Y-118725000D03*
%TD*%
D12*
%TO.C,SW30*%
X189937500Y-123706250D03*
D13*
X205637500Y-121106250D03*
%TD*%
D12*
%TO.C,SW29*%
X208987500Y-123706250D03*
D13*
X224687500Y-121106250D03*
%TD*%
D12*
%TO.C,SW10*%
X170887500Y-61000000D03*
D13*
X186587500Y-58400000D03*
%TD*%
D12*
%TO.C,SW12*%
X132787500Y-61000000D03*
D13*
X148487500Y-58400000D03*
%TD*%
D12*
%TO.C,SW2*%
X189937500Y-47506250D03*
D13*
X205637500Y-44906250D03*
%TD*%
D12*
%TO.C,SW8*%
X208987500Y-66556250D03*
D13*
X224687500Y-63956250D03*
%TD*%
D12*
%TO.C,SW38*%
X133581250Y-137200000D03*
D13*
X149281250Y-134600000D03*
%TD*%
D12*
%TO.C,SW6*%
X113737500Y-45125000D03*
D13*
X129437500Y-42525000D03*
%TD*%
D12*
%TO.C,SW34*%
X113737500Y-121325000D03*
D13*
X129437500Y-118725000D03*
%TD*%
D12*
%TO.C,SW7*%
X94687500Y-45125000D03*
D13*
X110387500Y-42525000D03*
%TD*%
D12*
%TO.C,SW25*%
X151837500Y-95925000D03*
D13*
X167537500Y-93325000D03*
%TD*%
D12*
%TO.C,SW26*%
X132787500Y-99100000D03*
D13*
X148487500Y-96500000D03*
%TD*%
D12*
%TO.C,SW27*%
X113737500Y-102275000D03*
D13*
X129437500Y-99675000D03*
%TD*%
D16*
%TO.C,JP7*%
X79375000Y-74319130D03*
X79375000Y-73318370D03*
%TD*%
%TO.C,JP8*%
X76993750Y-74319130D03*
X76993750Y-73318370D03*
%TD*%
%TO.C,JP5*%
X84931250Y-74319130D03*
X84931250Y-73318370D03*
%TD*%
%TO.C,JP6*%
X82550000Y-74319130D03*
X82550000Y-73318370D03*
%TD*%
M02*
