M48
; DRILL file {KiCad (6.0.1)} date Mon Feb 14 18:22:39 2022
; FORMAT={-:-/ absolute / metric / decimal}
; #@! TF.CreationDate,2022-02-14T18:22:39+08:00
; #@! TF.GenerationSoftware,Kicad,Pcbnew,(6.0.1)
; #@! TF.FileFunction,Plated,1,2,PTH
FMAT,2
METRIC
; #@! TA.AperFunction,Plated,PTH,ViaDrill
T1C0.400
; #@! TA.AperFunction,Plated,PTH,ComponentDrill
T2C0.400
; #@! TA.AperFunction,Plated,PTH,ComponentDrill
T3C0.813
; #@! TA.AperFunction,Plated,PTH,ComponentDrill
T4C1.000
; #@! TA.AperFunction,Plated,PTH,ComponentDrill
T5C1.092
; #@! TA.AperFunction,Plated,PTH,ComponentDrill
T6C1.300
; #@! TA.AperFunction,Plated,PTH,ComponentDrill
T7C1.500
; #@! TA.AperFunction,Plated,PTH,ComponentDrill
T8C2.200
; #@! TA.AperFunction,Plated,PTH,ComponentDrill
T9C4.100
%
G90
G05
T1
X65.881Y-47.625
X66.675Y-45.244
X66.675Y-122.237
X67.469Y-43.656
X68.263Y-80.962
X69.85Y-55.562
X69.85Y-89.688
X70.644Y-88.9
X74.612Y-148.431
X77.787Y-50.006
X78.988Y-53.975
X79.375Y-69.85
X80.962Y-53.181
X81.036Y-73.943
X81.756Y-72.231
X82.163Y-68.149
X84.138Y-90.487
X84.931Y-88.9
X85.725Y-88.106
X86.519Y-55.562
X86.519Y-57.944
X86.519Y-87.312
X87.312Y-76.2
X87.312Y-159.544
X88.106Y-87.312
X88.9Y-88.106
X89.694Y-88.9
X90.487Y-75.406
X90.487Y-80.169
X90.487Y-91.281
X90.487Y-146.844
X91.281Y-90.487
X92.075Y-69.056
X92.075Y-70.644
X92.869Y-71.438
X93.662Y-72.231
X93.662Y-77.787
X94.456Y-43.656
X94.456Y-62.706
X94.456Y-81.756
X94.456Y-100.806
X94.456Y-119.856
X95.25Y-72.231
X105.569Y-139.7
X111.125Y-42.862
X111.125Y-61.912
X111.125Y-80.962
X111.125Y-100.012
X111.125Y-119.062
X113.506Y-43.656
X113.506Y-62.706
X113.506Y-81.756
X113.506Y-100.806
X113.506Y-119.856
X114.3Y-138.906
X115.094Y-71.438
X123.825Y-134.213
X130.175Y-42.862
X130.175Y-61.912
X130.175Y-80.962
X130.175Y-100.012
X130.175Y-119.062
X130.969Y-138.112
X132.556Y-40.481
X132.556Y-59.531
X132.556Y-78.581
X132.556Y-97.631
X132.556Y-116.681
X133.35Y-70.644
X133.35Y-135.731
X143.669Y-130.969
X149.225Y-39.688
X149.225Y-58.737
X149.225Y-77.787
X149.225Y-96.837
X149.225Y-115.887
X150.019Y-134.938
X151.606Y-37.306
X151.606Y-56.356
X151.606Y-75.406
X151.606Y-94.456
X151.606Y-113.506
X152.4Y-132.556
X153.194Y-69.056
X168.275Y-36.512
X168.275Y-55.562
X168.275Y-74.612
X168.275Y-93.662
X168.275Y-112.712
X169.069Y-131.762
X170.656Y-40.481
X170.656Y-59.531
X170.656Y-78.581
X170.656Y-97.631
X170.656Y-116.681
X170.656Y-135.731
X183.356Y-130.969
X187.325Y-39.688
X187.325Y-58.737
X187.325Y-77.787
X187.325Y-96.837
X187.325Y-115.887
X187.325Y-134.938
X189.706Y-46.038
X189.706Y-65.087
X189.706Y-84.138
X189.706Y-103.188
X189.706Y-122.237
X206.375Y-45.244
X206.375Y-64.294
X206.375Y-83.344
X206.375Y-102.394
X206.375Y-121.444
X208.756Y-46.038
X208.756Y-65.087
X208.756Y-84.138
X208.756Y-103.188
X208.756Y-122.237
X225.425Y-45.244
X225.425Y-64.294
X225.425Y-83.344
X225.425Y-102.394
X225.425Y-121.444
T2
X79.375Y-47.812
X79.375Y-50.612
X82.55Y-47.812
X82.55Y-50.612
X87.2Y-117.475
X90.6Y-117.475
X91.667Y-136.91
X94.071Y-139.315
X95.137Y-55.562
X95.137Y-58.737
X95.137Y-93.662
X95.137Y-112.712
X95.137Y-131.762
X98.537Y-55.562
X98.537Y-58.737
X98.537Y-93.662
X98.537Y-112.712
X98.537Y-131.762
X104.662Y-136.525
X108.062Y-136.525
X114.075Y-93.662
X114.188Y-131.762
X114.981Y-134.938
X117.362Y-55.562
X117.362Y-58.737
X117.362Y-112.712
X117.475Y-93.662
X117.587Y-131.762
X118.381Y-134.938
X120.762Y-55.562
X120.762Y-58.737
X120.762Y-112.712
X133.237Y-52.387
X133.237Y-55.562
X133.237Y-90.487
X133.237Y-109.537
X133.237Y-128.588
X134.031Y-131.762
X136.637Y-52.387
X136.637Y-55.562
X136.637Y-90.487
X136.637Y-109.537
X136.637Y-128.588
X137.431Y-131.762
X152.287Y-49.212
X152.287Y-52.387
X152.287Y-87.312
X152.287Y-106.362
X152.287Y-125.412
X153.081Y-128.588
X155.688Y-49.212
X155.688Y-52.387
X155.688Y-87.312
X155.688Y-106.362
X155.688Y-125.412
X156.481Y-128.588
X171.225Y-109.537
X171.225Y-128.588
X171.338Y-52.387
X171.338Y-55.562
X171.338Y-90.487
X171.338Y-131.762
X174.625Y-109.537
X174.625Y-128.588
X174.737Y-52.387
X174.737Y-55.562
X174.737Y-90.487
X174.737Y-131.762
X190.387Y-57.944
X190.387Y-61.119
X190.387Y-96.044
X190.387Y-115.094
X190.387Y-118.269
X193.787Y-57.944
X193.787Y-61.119
X193.787Y-96.044
X193.787Y-115.094
X193.787Y-118.269
X222.025Y-61.119
X222.137Y-57.944
X222.137Y-96.044
X222.137Y-115.094
X222.137Y-118.269
X225.425Y-61.119
X225.537Y-57.944
X225.537Y-96.044
X225.537Y-115.094
X225.537Y-118.269
T3
X77.153Y-77.787
X79.692Y-77.787
X82.233Y-77.787
X84.772Y-77.787
T4
X71.875Y-122.119
X71.875Y-124.619
X71.875Y-127.119
X86.375Y-122.119
X86.375Y-127.119
X100.637Y-76.2
X103.237Y-76.2
X105.737Y-76.2
T5
X73.343Y-38.417
X73.343Y-40.957
X73.343Y-43.497
X73.343Y-46.038
X73.343Y-48.578
X73.343Y-51.117
X73.343Y-53.657
X73.343Y-56.197
X73.343Y-58.737
X73.343Y-61.277
X73.343Y-63.817
X73.571Y-66.358
X75.882Y-66.358
X78.422Y-66.358
X80.962Y-66.358
X83.502Y-66.358
X86.042Y-66.358
X88.582Y-38.417
X88.582Y-40.957
X88.582Y-43.497
X88.582Y-46.038
X88.582Y-48.578
X88.582Y-51.117
X88.582Y-53.657
X88.582Y-56.197
X88.582Y-58.737
X88.582Y-61.277
X88.582Y-63.817
X88.582Y-66.358
T6
X72.231Y-90.412
X72.231Y-96.912
T8
X74.612Y-111.125
X84.931Y-111.125
T9
X86.519Y-138.906
X112.712Y-57.15
X112.712Y-114.3
X207.962Y-59.531
X207.962Y-116.681
T4
G00X73.644Y-99.419
M15
G01X74.144Y-99.419
M16
G05
G00X73.644Y-105.369
M15
G01X74.144Y-105.369
M16
G05
G00X76.644Y-99.419
M15
G01X77.144Y-99.419
M16
G05
G00X76.644Y-105.369
M15
G01X77.144Y-105.369
M16
G05
G00X80.644Y-99.419
M15
G01X81.144Y-99.419
M16
G05
G00X80.644Y-105.369
M15
G01X81.144Y-105.369
M16
G05
G00X82.144Y-101.169
M15
G01X82.644Y-101.169
M16
G05
G00X82.144Y-103.619
M15
G01X82.644Y-103.619
M16
G05
T7
G00X78.725Y-119.019
M15
G01X80.025Y-119.019
M16
G05
G00X78.725Y-130.219
M15
G01X80.025Y-130.219
M16
G05
T0
M30
